<svg id="Layer_1" data-name="Layer 1" xmlns="http://www.w3.org/2000/svg" width="800" height="1200" viewBox="0 0 800 1200"><defs><style>.cls-1{fill:#292f36;stroke:#292f36;stroke-width:1px;}</style></defs><title>icon-blank-small</title><rect class="cls-1" x="100" width="100" height="100"/><rect class="cls-1" x="200" width="100" height="100"/><rect class="cls-1" x="200" y="100" width="100" height="100"/><rect class="cls-1" x="200" y="200" width="100" height="100"/><rect class="cls-1" x="200" y="300" width="100" height="100"/><rect class="cls-1" x="100" y="400" width="100" height="100"/><rect class="cls-1" x="200" y="400" width="100" height="100"/><rect class="cls-1" x="300" y="400" width="100" height="100"/><rect class="cls-1" x="400" y="300" width="100" height="100"/><rect class="cls-1" x="500" y="300" width="100" height="100"/><rect class="cls-1" x="600" y="200" width="100" height="100"/><rect class="cls-1" y="500" width="100" height="100"/><rect class="cls-1" x="200" y="500" width="100" height="100"/><rect class="cls-1" x="200" y="600" width="100" height="100"/><rect class="cls-1" x="300" y="600" width="100" height="100"/><rect class="cls-1" x="400" y="500" width="100" height="100"/><rect class="cls-1" x="500" y="500" width="100" height="100"/><rect class="cls-1" x="600" y="500" width="100" height="100"/><rect class="cls-1" x="200" y="700" width="100" height="100"/><rect class="cls-1" x="200" y="800" width="100" height="100"/><rect class="cls-1" x="200" y="900" width="100" height="100"/><rect class="cls-1" x="200" y="1000" width="100" height="100"/><rect class="cls-1" x="300" y="1000" width="100" height="100"/><rect class="cls-1" x="200" y="1100" width="100" height="100"/><rect class="cls-1" x="100" y="1100" width="100" height="100"/><rect class="cls-1" x="400" y="1100" width="100" height="100"/><rect class="cls-1" x="500" y="1100" width="100" height="100"/><rect class="cls-1" x="600" y="1100" width="100" height="100"/><rect class="cls-1" x="700" y="600" width="100" height="100"/><rect class="cls-1" x="700" y="700" width="100" height="100"/><rect class="cls-1" x="700" y="800" width="100" height="100"/><rect class="cls-1" x="700" y="900" width="100" height="100"/><rect class="cls-1" x="700" y="1000" width="100" height="100"/></svg>
