<?xml version="1.0" standalone="yes"?>
<!DOCTYPE svg PUBLIC "-//W3C//DTD SVG 1.1//EN" 
   "http://www.w3.org/Graphics/SVG/1.1/DTD/svg11.dtd">
<svg width="853" height="410" viewBox="0 0 853 410" version="1.1" 
   xmlns="http://www.w3.org/2000/svg">
   <polygon points="9.901879336414368,29.980704006179636 102.09941895226412,44.0107643825046 84.06076989698917,1.9205832535297134" style="fill:rgba(0,0,0,0.00392156862745098)" />
   <polygon points="155.02513834912935,7.903211243405799 101.9007599957622,43.9876946532401 162.04156567881935,88.09095215414868" style="fill:rgba(0,0,0,0.12549019607843137)" />
   <polygon points="227.09997475758163,44.99775325869506 154.943623826873,7.917406252636454 161.958824611803,88.0911295089794" style="fill:rgba(0,0,0,0.2235294117647059)" />
   <polygon points="162.0586652184023,88.08098390055939 101.90512754364615,43.96838960573821 120.95374780731892,91.08866078429719" style="fill:rgba(0,0,0,0.16862745098039217)" />
   <polygon points="102.09154578414325,43.959758610789436 9.924568276594684,29.934348990075527 57.00987200327711,121.09951152471596" style="fill:rgba(0,0,0,0.0196078431372549)" />
   <polygon points="121.09760262848572,91.02176526849544 102.0550571548283,43.916521202079736 56.95429155932389,121.08894233216506" style="fill:rgba(0,0,0,0.09411764705882353)" />
   <polygon points="162.03963779525293,87.90819125756504 120.94742050633025,90.91493886407157 119.9451713041614,166.08362902673497" style="fill:rgba(0,0,0,0.2549019607843137)" />
   <polygon points="121.05016826496256,90.91349482564236 56.90141760521343,120.98322169739976 120.04784403590398,166.08781200503586" style="fill:rgba(0,0,0,0.1411764705882353)" />
   <polygon points="56.9226315675857,120.93664287202094 50.90716553755335,160.0371720672312 120.08502488292537,166.05263809726355" style="fill:rgba(0,0,0,0.16470588235294117)" />
   <polygon points="227.0473557568445,44.91192371321585 161.90041756315674,88.00912897980929 250.099349271534,89.01138956740448" style="fill:rgba(0,0,0,0.2823529411764706)" />
   <polygon points="226.90172733737015,44.98149368270995 249.9591022920385,89.0912544655537 302.08881958085385,33.954053486999015" style="fill:rgba(0,0,0,0.403921568627451)" />
   <polygon points="302.05081825489174,33.91387506185917 249.91685774369955,89.05556406408166 319.09461303739687,80.0323785909907" style="fill:rgba(0,0,0,0.4588235294117647)" />
   <polygon points="250.08848401915225,88.95341053386583 161.9125975449637,87.95141182393188 246.0804891794164,142.05934216036576" style="fill:rgba(0,0,0,0.3411764705882353)" />
   <polygon points="319.0614434184411,79.92110319188797 249.92037483808764,88.93950344149928 245.9121969493715,142.0478604669882" style="fill:rgba(0,0,0,0.5058823529411764)" />
   <polygon points="352.0796688683048,99.93956101073785 319.0167143153553,79.90140673622298 306.99382175064636,184.0998089637003" style="fill:rgba(0,0,0,0.5764705882352941)" />
   <polygon points="319.03696142930556,79.90708147254885 245.90232353286748,142.02143146678395 307.0148291723569,184.0988943661045" style="fill:rgba(0,0,0,0.5058823529411764)" />
   <polygon points="245.97256928697544,141.9038357863706 254.9913147871404,236.09962212142682 307.0996221214268,183.9913147871404" style="fill:rgba(0,0,0,0.5529411764705883)" />
   <polygon points="307.07047030395324,183.92904976208115 254.92904976208115,236.07047030395321 301.0541525491218,241.0840684329794" style="fill:rgba(0,0,0,0.596078431372549)" />
   <polygon points="352.0295493382327,99.9044655213548 306.936837579792,184.07752747044412 347.01924803173927,194.09813008343093" style="fill:rgba(0,0,0,0.592156862745098)" />
   <polygon points="306.9587870283305,183.90888748183608 300.9407189526946,241.0805342003771 347.07924086590316,193.93900094122924" style="fill:rgba(0,0,0,0.6470588235294118)" />
   <polygon points="300.91172461461395,241.04698357516142 355.0682658266642,250.07307377716978 347.04507453599007,193.91073474245104" style="fill:rgba(0,0,0,0.6549019607843137)" />
   <polygon points="351.973069262695,99.90369457238448 346.96300487209646,194.09290511563634 413.09585482799673,162.0284930158059" style="fill:rgba(0,0,0,0.6392156862745098)" />
   <polygon points="351.9131774994177,99.95038293244616 413.04819885411837,162.08761775197797 415.0526257837807,83.91496749514764" style="fill:rgba(0,0,0,0.6313725490196078)" />
   <polygon points="301.9029912530573,33.975724435812964 318.9420923084092,80.08152729147118 384.09159634357843,62.0401261740397" style="fill:rgba(0,0,0,0.5411764705882353)" />
   <polygon points="318.90890363880305,80.04124867242325 352.00558572549767,100.09984387648056 384.0993380519894,61.98851298877166" style="fill:rgba(0,0,0,0.5803921568627451)" />
   <polygon points="351.90137477965345,100.01652470609696 415.0945584025179,83.96746219870279 383.99949979444176,61.900001251035825" style="fill:rgba(0,0,0,0.615686274509804)" />
   <polygon points="383.90004160765125,62.00288440618651 415.03027392602905,84.09530734180947 423.0638822662556,42.9230645981485" style="fill:rgba(0,0,0,0.6392156862745098)" />
   <polygon points="618.0228835503965,100.09734651057562 614.0136406418474,14.900934703907012 571.9165901020817,33.944838519515294" style="fill:rgba(0,0,0,0.5098039215686274)" />
   <polygon points="613.9377049226432,14.921773896063364 617.9453264104421,100.08373051179144 698.0977561664215,44.97893505455563" style="fill:rgba(0,0,0,0.4627450980392157)" />
   <polygon points="788.0789195145936,21.93858574907808 697.9012916162005,44.9839795453341 775.0532621514924,96.08463535442354" style="fill:rgba(0,0,0,0.3568627450980392)" />
   <polygon points="844.0717836995711,30.930378879096416 787.9536459085112,21.91139244839036 774.9262210641581,96.06750310086238" style="fill:rgba(0,0,0,0.25882352941176473)" />
   <polygon points="851.0681124989195,108.07321671592564 844.0537928862294,30.91570097633356 774.9126424182832,96.04866880845674" style="fill:rgba(0,0,0,0.27450980392156865)" />
   <polygon points="851.0883198308367,107.95310002685521 774.9304270715784,95.92816959118285 833.0509241773282,172.08606235044113" style="fill:rgba(0,0,0,0.40980392156862744)" />
   <polygon points="833.0889253873598,172.04574139791148 774.9793470317642,95.90215596644123 761.9547863658548,195.08919488375116" style="fill:rgba(0,0,0,0.43137254901960786)" />
   <polygon points="698.0670128562538,44.92577549530837 617.9067008985525,100.03598996622796 684.038958263656,128.09209915142338" style="fill:rgba(0,0,0,0.5098039215686274)" />
   <polygon points="775.0996821233103,96.00796707551979 697.9537730929063,44.911326029408 683.9272441782873,128.06860459464878" style="fill:rgba(0,0,0,0.43137254901960786)" />
   <polygon points="762.0382413178958,195.09239914288347 775.0607999767055,95.92060627963994 683.9028893650373,127.97613528594087" style="fill:rgba(0,0,0,0.5215686274509804)" />
   <polygon points="694.9293956654793,188.07081686202375 762.0544418309153,195.08388138677077 683.9088656980197,127.95883522133478" style="fill:rgba(0,0,0,0.5607843137254902)" />
   <polygon points="618.0781936955722,100.06233575196285 571.9685802212861,33.90506424537844 576.9804947293605,115.09807927618658" style="fill:rgba(0,0,0,0.5294117647058824)" />
   <polygon points="422.92002309095506,42.939969224396044 414.9033221485834,84.02556155405048 506.09329536806035,89.03599964303274" style="fill:rgba(0,0,0,0.6588235294117647)" />
   <polygon points="487.0525051805342,29.914892973162765 422.918451128578,42.942122702466364 506.09230247720865,89.03847405230988" style="fill:rgba(0,0,0,0.6392156862745098)" />
   <polygon points="414.92656036372637,83.93212791572381 412.92317853501345,162.0640192355259 506.08043357016214,88.940582487506" style="fill:rgba(0,0,0,0.7019607843137254)" />
   <polygon points="572.094402588829,33.96701286277362 486.9091124140928,29.958293325138982 505.95053021785736,89.08690650524994" style="fill:rgba(0,0,0,0.592156862745098)" />
   <polygon points="577.0553597018923,115.08327846904456 572.0446971533012,33.91054518186944 505.9039515118992,89.02783321637105" style="fill:rgba(0,0,0,0.5843137254901961)" />
   <polygon points="506.08036108986073,88.94048449583175 412.9231005627462,162.06392555474963 487.04823259507384,176.08759918248728" style="fill:rgba(0,0,0,0.7058823529411765)" />
   <polygon points="577.0933285160602,114.96408638016007 505.9519353003055,88.91230858284145 563.0654481636578,171.07560778976944" style="fill:rgba(0,0,0,0.6431372549019608)" />
   <polygon points="505.9679047602352,88.90529046729901 486.9313427234131,176.07270610958972 563.0775908707016,171.06308452095232" style="fill:rgba(0,0,0,0.6588235294117647)" />
   <polygon points="695.0726042994357,188.06876493076743 684.043488484043,127.90995139226148 629.9005562993876,166.01053329998192" style="fill:rgba(0,0,0,0.6)" />
   <polygon points="684.0999484034955,127.99678804752472 617.9328512994285,99.92589836701147 629.963232591077,166.0929954710784" style="fill:rgba(0,0,0,0.5764705882352941)" />
   <polygon points="618.0270627807389,99.90373159449393 576.9172017064385,114.94392467045749 630.0592172415097,166.0805811287336" style="fill:rgba(0,0,0,0.6039215686274509)" />
   <polygon points="576.9533650886568,114.91153992401081 562.9172232777611,171.05610716759367 630.0901876584763,166.04319937798806" style="fill:rgba(0,0,0,0.6352941176470588)" />
   <polygon points="161.98488475625388,87.90114895343754 119.90915266181696,166.04179427167753 194.0425853996344,193.09047918952984" style="fill:rgba(0,0,0,0.2549019607843137)" />
   <polygon points="246.09958197622416,142.00913400302647 161.95034766776732,87.91319766187564 194.00719883289375,193.0997405474467" style="fill:rgba(0,0,0,0.3411764705882353)" />
   <polygon points="255.02730299743428,236.09620055265486 246.00855292222104,141.9003664337611 193.90021915432237,193.00661685996943" style="fill:rgba(0,0,0,0.4823529411764706)" />
   <polygon points="120.08165894752719,165.9422781125677 50.92952995533207,159.9290495045507 108.05520173149327,230.08338326474865" style="fill:rgba(0,0,0,0.20784313725490197)" />
   <polygon points="50.95800030981391,159.9092474461832 51.96014699311438,245.09171552672353 108.08036125794096,230.0595152772164" style="fill:rgba(0,0,0,0.20784313725490197)" />
   <polygon points="194.09997410591623,193.00227555405348 119.92205153992231,165.93735786105572 164.0278433359187,232.0960455550503" style="fill:rgba(0,0,0,0.3568627450980392)" />
   <polygon points="119.95755505441677,165.90945483671427 107.92763684062459,230.06901864360597 164.0672551716548,232.07400501257132" style="fill:rgba(0,0,0,0.32941176470588235)" />
   <polygon points="255.09999974661002,236.0002251175942 193.96617944478402,192.90589277368406 163.9003661815909,231.9914500158351" style="fill:rgba(0,0,0,0.49019607843137253)" />
   <polygon points="346.9165305706605,193.9449286429644 354.93528932780407,250.0762399429692 416.0783248510236,244.06217087511155" style="fill:rgba(0,0,0,0.7058823529411765)" />
   <polygon points="413.0440094146671,161.9102048363181 346.9022427247095,193.97894020114603 416.0504533551197,244.0863392086897" style="fill:rgba(0,0,0,0.6862745098039216)" />
   <polygon points="487.0857569599862,175.94856320564105 412.9389598535234,161.92079078009402 415.94491108756915,244.08345784401234" style="fill:rgba(0,0,0,0.7568627450980392)" />
   <polygon points="563.0867673811931,170.95028660582017 486.90746743857636,175.96208265467652 519.9853213610284,234.09891682141043" style="fill:rgba(0,0,0,0.7490196078431373)" />
   <polygon points="487.03760681831795,175.90734080069416 415.9058045243936,244.0335739836076 520.0988670394377,234.015010280238" style="fill:rgba(0,0,0,0.7686274509803922)" />
   <polygon points="630.0899953564412,165.95640142411713 562.9045302797972,170.97024210147862 585.9681973956601,216.09480819773205" style="fill:rgba(0,0,0,0.6901960784313725)" />
   <polygon points="563.0382653215447,170.90761079518106 519.9279061137789,234.06929986702397 586.0972946652334,216.02310298935458" style="fill:rgba(0,0,0,0.7294117647058823)" />
   <polygon points="695.0970910232326,187.97605562262953 629.937409938706,165.9220097170975 631.9423232028453,231.081690801624" style="fill:rgba(0,0,0,0.6431372549019608)" />
   <polygon points="630.036690577099,165.90697418878534 585.912394029788,216.04822026527518 632.0423404201586,231.0905940882221" style="fill:rgba(0,0,0,0.6784313725490196)" />
   <polygon points="762.0780921605585,194.93753709533402 694.936505291251,187.9227444373467 687.9217126332636,254.0622180697988" style="fill:rgba(0,0,0,0.6274509803921569)" />
   <polygon points="695.063487141103,187.92273821827985 631.9049162817983,231.0309691222498 688.0458681567358,254.08886007088486" style="fill:rgba(0,0,0,0.6666666666666666)" />
   <polygon points="833.054468503457,171.91613593063084 761.9067034222338,194.96400349215384 791.9691393720465,258.0951189867603" style="fill:rgba(0,0,0,0.5529411764705883)" />
   <polygon points="762.0403046936863,194.90848206915115 687.9018039035307,254.01890837481577 792.0964536626683,258.0263949040134" style="fill:rgba(0,0,0,0.6313725490196078)" />
   <polygon points="833.0305768309721,171.90478940496087 791.9452816429206,258.0837012628251 851.0680234988972,253.07329941062372" style="fill:rgba(0,0,0,0.5294117647058824)" />
   <polygon points="851.0993647699952,252.98874644572567 791.9001585162222,258.00562833163866 810.9643096826915,284.0934141383861" style="fill:rgba(0,0,0,0.6235294117647059)" />
   <polygon points="792.0998787187342,257.99507642975016 687.9007945206904,253.98741934521 786.088393091924,285.0467617503962" style="fill:rgba(0,0,0,0.7019607843137254)" />
   <polygon points="811.0776899901977,284.06296241278017 791.9636118448269,257.9068554770097 785.9275871673414,285.0689665256944" style="fill:rgba(0,0,0,0.6352941176470588)" />
   <polygon points="811.0211029423729,283.90225202905833 785.9711571332464,284.9042498614234 820.0390834336583,379.0920461037387" style="fill:rgba(0,0,0,0.6627450980392157)" />
   <polygon points="820.0631130655689,379.07756765404787 785.9988887008502,284.90000617511964 776.9818881337188,390.0983461249863" style="fill:rgba(0,0,0,0.6705882352941176)" />
   <polygon points="786.0999945271474,285.00104620293166 687.9175949430055,253.94334837529493 691.9250398239908,320.0661889115538" style="fill:rgba(0,0,0,0.7019607843137254)" />
   <polygon points="777.042587585335,390.0904781607645 786.0573637905412,284.9180891000249 691.9030345361648,319.9755521202714" style="fill:rgba(0,0,0,0.7294117647058823)" />
   <polygon points="684.9014758861974,358.0171172135412 777.0666350393508,390.07456387550764 691.9140423435026,319.94889930245614" style="fill:rgba(0,0,0,0.7725490196078432)" />
   <polygon points="688.098705869238,253.9839640598038 631.9410593126445,230.9192163669172 648.9889163030389,295.0993838601669" style="fill:rgba(0,0,0,0.7137254901960784)" />
   <polygon points="692.029007778653,320.0957003070926 688.0172378767633,253.90149692591245 648.9024813333385,295.022138420282" style="fill:rgba(0,0,0,0.7254901960784313)" />
   <polygon points="632.068237187964,230.92689947894326 585.9879718909092,215.90072601251234 573.9670331177645,327.094409664101" style="fill:rgba(0,0,0,0.7411764705882353)" />
   <polygon points="649.0934335046536,295.03563958765386 632.0634320660164,230.92269299513694 573.9610742165479,327.0921128839123" style="fill:rgba(0,0,0,0.7529411764705882)" />
   <polygon points="685.0657482326429,358.07534699665104 692.0882809020463,319.953026791318 651.9595227911694,363.0914417605107" style="fill:rgba(0,0,0,0.796078431372549)" />
   <polygon points="692.0968711536644,319.97518106392874 648.97364204546,294.90353623357726 651.9822394251021,363.09841017213324" style="fill:rgba(0,0,0,0.7725490196078432)" />
   <polygon points="649.063732199003,294.9229402387089 573.9002679046758,326.9926850042885 652.0702707707761,363.07114786556554" style="fill:rgba(0,0,0,0.8196078431372549)" />
   <polygon points="685.0444956374074,357.9104447754081 651.9309725472918,362.9276452436074 658.955053202771,410.0893296446811" style="fill:rgba(0,0,0,0.8352941176470589)" />
   <polygon points="652.0895973277522,363.0444107966564 573.9080754689295,326.9606314771998 574.9104026722478,363.0444107966564" style="fill:rgba(0,0,0,0.8509803921568627)" />
   <polygon points="659.0935092491227,410.03544037709327 652.0791232107961,362.938848405472 574.9208767892039,362.938848405472" style="fill:rgba(0,0,0,0.8823529411764706)" />
   <polygon points="575.0901352515431,363.0433086184179 574.0875920818984,326.9517545112087 510.9273723942824,373.0687403148649" style="fill:rgba(0,0,0,0.8862745098039215)" />
   <polygon points="586.0376989738893,215.90737825650695 519.9204975373374,233.93934228465744 525.9311522133876,309.07252573528456" style="fill:rgba(0,0,0,0.7764705882352941)" />
   <polygon points="574.0106304359251,327.09943336377717 586.0316355635268,215.90513593346088 525.926609925518,309.06792567237454" style="fill:rgba(0,0,0,0.7725490196078432)" />
   <polygon points="510.92746353738875,373.06883648445296 574.0876559291878,326.95187061107583 525.9656045830552,308.90610135627605" style="fill:rgba(0,0,0,0.8705882352941177)" />
   <polygon points="520.0907058414804,233.95789952112688 415.902933969095,243.97595450885626 422.91557246050553,287.05359095609253" style="fill:rgba(0,0,0,0.803921568627451)" />
   <polygon points="526.0807633212764,309.0589685164847 520.0703611619463,233.92894152485752 422.9021929194418,287.02082726560735" style="fill:rgba(0,0,0,0.8117647058823529)" />
   <polygon points="411.93307298002077,390.07430191112417 511.0878800839332,373.04771887307857 422.9502737693444,286.9132399747304" style="fill:rgba(0,0,0,0.8352941176470589)" />
   <polygon points="511.07012166165816,373.0712948284681 526.0944982695991,308.9672879679203 422.92711222840484,286.93153560960695" style="fill:rgba(0,0,0,0.8431372549019608)" />
   <polygon points="416.08358203723174,243.945099698979 354.90732317605904,249.96243663614354 354.90732317605904,276.03756336385646" style="fill:rgba(0,0,0,0.7490196078431373)" />
   <polygon points="423.08860111771935,287.0463663880293 416.06932004546957,243.92792551563764 354.90129927300694,276.01606756020817" style="fill:rgba(0,0,0,0.7490196078431373)" />
   <polygon points="301.0555054914869,240.91681862940058 254.96366251647672,235.90683569733426 323.0994303925787,288.010658190824" style="fill:rgba(0,0,0,0.6313725490196078)" />
   <polygon points="355.0964312102372,249.97352318576213 300.9173683625014,240.94367937780618 322.9903198930604,288.0995303749096" style="fill:rgba(0,0,0,0.6901960784313725)" />
   <polygon points="355.0871701345484,276.0490037513137 355.0871701345484,249.9509962486863 322.9665455159301,288.09423798329556" style="fill:rgba(0,0,0,0.7215686274509804)" />
   <polygon points="255.0943003010397,235.96672158020849 163.90898333150716,231.95857577934993 224.03117034438577,299.095017943731" style="fill:rgba(0,0,0,0.5215686274509804)" />
   <polygon points="323.09963972144453,288.008480914482 254.96570888477206,235.9060632158501 223.9046521798184,299.0301461968849" style="fill:rgba(0,0,0,0.596078431372549)" />
   <polygon points="224.0898817057582,299.04383239635246 163.9663113326425,231.9058454797066 146.9312997269264,313.0726654834128" style="fill:rgba(0,0,0,0.5058823529411764)" />
   <polygon points="108.07208517760897,229.93069107439092 51.90292206276616,244.97600262300952 100.04791901834571,282.0877711096021" style="fill:rgba(0,0,0,0.30196078431372547)" />
   <polygon points="164.07108057813392,231.92966116711125 107.93411832097188,229.9247696579269 99.91455228423445,282.0519488967202" style="fill:rgba(0,0,0,0.4)" />
   <polygon points="147.01173716780997,313.0993088057113 164.05067327991722,231.91378968331787 99.90409026963107,282.0283076601039" style="fill:rgba(0,0,0,0.403921568627451)" />
   <polygon points="100.09861361516906,282.01659382123825 51.958849718698254,244.90885915104198 37.918085248894265,296.05735829104225" style="fill:rgba(0,0,0,0.2901960784313726)" />
   <polygon points="100.05238916742586,281.91482151013065 37.91609268782605,295.9455981345564 56.957860963832445,362.0906879354207" style="fill:rgba(0,0,0,0.3411764705882353)" />
   <polygon points="147.09314104809852,312.9636029512308 99.996788950185,281.9000515675006 78.95373801281939,374.08865567405473" style="fill:rgba(0,0,0,0.42745098039215684)" />
   <polygon points="100.02165360589778,281.9023725379229 56.93052110817676,362.0719213708922 78.97714703724333,374.0973536958376" style="fill:rgba(0,0,0,0.3803921568627451)" />
   <polygon points="224.06843447524813,298.9270841402882 146.9102789485492,312.95583969059703 179.97805988856302,382.0975634742623" style="fill:rgba(0,0,0,0.5529411764705883)" />
   <polygon points="147.03093031099147,312.90490364958646 78.90211511158108,374.0204584608223 180.09344356952886,382.03561319016467" style="fill:rgba(0,0,0,0.4745098039215686)" />
   <polygon points="224.04435368652497,298.910374387078 179.95071482522107,382.0870113299922 228.05286631027988,381.08488317405346" style="fill:rgba(0,0,0,0.592156862745098)" />
   <polygon points="323.0775098141807,287.93681591414224 223.9105109917086,298.95537133886137 315.0640149598395,371.076825027932" style="fill:rgba(0,0,0,0.6352941176470588)" />
   <polygon points="223.9258206712194,298.93293714007245 227.93270004431042,381.0739642884383 315.08232640904004,371.05676585571075" style="fill:rgba(0,0,0,0.6431372549019608)" />
   <polygon points="412.00659315091684,390.09978241508895 423.0275168610818,286.90386040172643 360.90958322197037,360.0427177510028" style="fill:rgba(0,0,0,0.7843137254901961)" />
   <polygon points="423.0805061537452,286.9406808697876 354.94230183529675,275.91832428886215 360.95449633398334,360.089047270475" style="fill:rgba(0,0,0,0.7725490196078432)" />
   <polygon points="355.00555154025795,275.90015421691044 322.93016531092485,287.9284240529104 361.0196864582579,360.0980430689098" style="fill:rgba(0,0,0,0.7372549019607844)" />
   <polygon points="322.98458068695425,287.90119592728433 314.9659932949657,371.09404011916575 361.07287079889994,360.0684824551815" style="fill:rgba(0,0,0,0.7372549019607844)" />
   <polygon points="9.930416885046132,30.071820541026344 84.09969781108254,2.007768298742297 26.969305746432873,-43.095172804928495" style="fill:rgba(0,0,0,0.00392156862745098)" />
   <polygon points="101.949754810549,44.08646051663639 155.09889264387914,7.985159346827236 92.9244295180967,-10.065491238077346" style="fill:rgba(0,0,0,0.10588235294117647)" />
   <polygon points="83.90804089405164,1.960712306848352 101.96502963576611,44.09368603751547 92.93653526490888,-10.077280187627965" style="fill:rgba(0,0,0,0.09411764705882353)" />
   <polygon points="26.91169321239451,-43.04692452730501 84.06613771958737,2.0750053467946223 93.0905236944073,-9.957509286298613" style="fill:rgba(0,0,0,0.0196078431372549)" />
   <polygon points="26.924747158153494,-42.93414402233644 92.99246692297704,-9.90028413992465 177.0786557145707,-46.938248250507556" style="fill:rgba(0,0,0,0)" />
   <polygon points="92.91286538641805,-9.950933115893466 155.0473120332252,8.088099781566683 177.09501890789875,-47.0311674051171" style="fill:rgba(0,0,0,0.10588235294117647)" />
   <polygon points="154.90004384483717,8.002960919632033 227.05578467147058,45.0829943999853 239.08174147590947,-20.05760495739206" style="fill:rgba(0,0,0,0.21176470588235294)" />
   <polygon points="176.95580041591404,-47.08970170994261 154.90613015639113,8.034473938864682 239.09578023820592,-20.028742755073576" style="fill:rgba(0,0,0,0.21176470588235294)" />
   <polygon points="226.92172319061007,45.06223135151781 302.0928502069068,34.03713272246095 238.94910351321755,-20.086078729272707" style="fill:rgba(0,0,0,0.3607843137254902)" />
   <polygon points="301.91010254557943,34.043800087770535 384.04433416039103,62.08963527331594 316.9346571092645,-39.075698788829996" style="fill:rgba(0,0,0,0.5137254901960784)" />
   <polygon points="238.90354414698112,-20.026386898612724 302.0408285361496,34.091285434960255 317.07351529547543,-39.06779012709211" style="fill:rgba(0,0,0,0.38823529411764707)" />
   <polygon points="176.9350646369403,-46.923951340417446 238.9885551593371,-19.900657080664004 317.05584968751367,-38.91704933752753" style="fill:rgba(0,0,0,0)" />
   <polygon points="384.00779885985105,62.09969542509575 423.0736992255923,43.067590118708985 384.00779885985105,-56.09969542509575" style="fill:rgba(0,0,0,0.611764705882353)" />
   <polygon points="316.92592395264546,-39.06717692467153 384.0330871420024,62.09436758465762 384.0330871420024,-56.09436758465762" style="fill:rgba(0,0,0,0.5294117647058824)" />
   <polygon points="176.97408738809665,-46.9034156506242 317.0147416519295,-38.90109254983372 384.03419762104954,-55.90602913901347" style="fill:rgba(0,0,0,0)" />
   <polygon points="422.93302370182704,43.07425749445712 487.09064018609655,30.042241646089884 458.01922021666195,-27.09813553521262" style="fill:rgba(0,0,0,0.6078431372549019)" />
   <polygon points="383.955120068407,-56.08936325721575 423.02812729540983,43.09596278056064 458.0936466016944,-27.035075832008523" style="fill:rgba(0,0,0,0.6078431372549019)" />
   <polygon points="486.9001673805179,30.00578343214286 572.0988483110052,34.01513312298932 515.9679526391548,-13.094725744456596" style="fill:rgba(0,0,0,0.5568627450980392)" />
   <polygon points="457.92640005113094,-27.067698209182176 487.01138914490946,30.099349319968645 516.096378238688,-13.026668991496008" style="fill:rgba(0,0,0,0.5803921568627451)" />
   <polygon points="571.9748075395756,34.096774686451404 614.0893164336715,15.044973043884262 547.9093738858066,-17.042271827807767" style="fill:rgba(0,0,0,0.5098039215686274)" />
   <polygon points="515.9471300361298,-13.084880898442268 572.092763986138,34.0373475953146 548.0303494361345,-17.095283323442853" style="fill:rgba(0,0,0,0.5372549019607843)" />
   <polygon points="457.9545455312022,-26.910927606598293 515.9998163455806,-12.90000016864488 548.024793346617,-16.90312229377443" style="fill:rgba(0,0,0,0)" />
   <polygon points="547.9000860189122,-16.995853147795984 614.0586239928019,15.081013748635382 627.0898511694772,-37.043894958065586" style="fill:rgba(0,0,0,0.5098039215686274)" />
   <polygon points="383.9511272695082,-55.912756339976596 457.9765830801027,-26.90278041420305 627.0347186475416,-36.90622038860772" style="fill:rgba(0,0,0,0)" />
   <polygon points="457.9704948533802,-26.90445186384372 548.0078115277898,-16.90030556668708 627.0405672753272,-36.90859816100033" style="fill:rgba(0,0,0,0)" />
   <polygon points="613.9022130198822,15.02092143683954 698.062409830057,45.07813458333059 706.0776666691214,-29.062991178014002" style="fill:rgba(0,0,0,0.42745098039215684)" />
   <polygon points="626.9297581065883,-37.07117637536392 613.9045270938773,15.029747675480325 706.0830850299864,-29.055649598310957" style="fill:rgba(0,0,0,0.42745098039215684)" />
   <polygon points="383.98701863697835,-55.90084615885371 626.9974122818359,-36.9000334870334 748.0025877181641,-36.9000334870334" style="fill:rgba(0,0,0,0)" />
   <polygon points="697.9220951823135,45.06269640644581 788.0984332480463,22.01763223409187 748.0200607743872,-37.0979671645552" style="fill:rgba(0,0,0,0.3176470588235294)" />
   <polygon points="705.9412396516545,-29.080914902597208 697.9253042870179,45.06648722029151 748.0249003159968,-37.096850267233826" style="fill:rgba(0,0,0,0.3176470588235294)" />
   <polygon points="626.9714868816869,-36.904151149803084 706.008718887418,-28.900380820108808 748.0285131183131,-36.904151149803084" style="fill:rgba(0,0,0,0)" />
   <polygon points="787.9225895523467,22.063305786418933 844.0536763086324,31.084373300821994 855.0794254929028,-31.06075846506574" style="fill:rgba(0,0,0,0.2)" />
   <polygon points="747.9008371875509,-37.012912653762456 787.9752848800516,22.09689769267602 855.0999847649902,-31.00174549988736" style="fill:rgba(0,0,0,0.25098039215686274)" />
   <polygon points="854.9898954487304,-31.099488180421798 843.9562872326678,31.08993994647631 891.099885974026,-0.004774116972743325" style="fill:rgba(0,0,0,0.13725490196078433)" />
   <polygon points="891.0459186048645,-0.088834012221092 843.9002622301315,31.00723721366664 906.0924046819069,41.03822793169494" style="fill:rgba(0,0,0,0.13725490196078433)" />
   <polygon points="850.9364583677582,107.92278302665835 832.9055233159739,172.0327743218913 900.020670453171,95.90215965880216" style="fill:rgba(0,0,0,0.3333333333333333)" />
   <polygon points="843.9517203426527,30.912426746740636 850.968303710574,108.09484379387511 906.0986016013844,75.01666505938891" style="fill:rgba(0,0,0,0.19019607843137254)" />
   <polygon points="850.9510160050634,108.08718123789009 900.0837257415837,96.05468089425243 906.0999759134027,74.99780529288654" style="fill:rgba(0,0,0,0.26666666666666666)" />
   <polygon points="906.0897257484736,40.95584923487807 843.9287053109701,30.929878196571053 906.0897257484736,75.04415076512193" style="fill:rgba(0,0,0,0.19215686274509805)" />
   <polygon points="832.9287384420777,171.92984452720924 850.9651583183582,253.09373397047165 892.0481147032195,250.08766399109155" style="fill:rgba(0,0,0,0.4980392156862745)" />
   <polygon points="899.9851788196862,95.9011044358219 832.900026567496,171.9976950502466 891.9750113865889,250.09682752294563" style="fill:rgba(0,0,0,0.3333333333333333)" />
   <polygon points="905.9000022472269,40.999329596888686 905.9000022472269,75.00067040311131 918.9005149084296,315.010134917624" style="fill:rgba(0,0,0,0.2)" />
   <polygon points="892.0356744236511,249.90657979074547 850.9511070959637,252.9127676439909 919.0913651028599,315.04064994439614" style="fill:rgba(0,0,0,0.5764705882352941)" />
   <polygon points="905.90478885111,74.96942489367076 899.9030074589194,95.97565976633763 918.9086485341895,315.0406805812922" style="fill:rgba(0,0,0,0.26666666666666666)" />
   <polygon points="899.9063771864567,95.96486072305474 891.9032401192464,250.02524926685192 918.913827721081,315.05073793793514" style="fill:rgba(0,0,0,0.3058823529411765)" />
   <polygon points="850.9884243413057,252.9006722388967 810.9067020688674,283.9640070000364 875.0374577047688,347.0927195791268" style="fill:rgba(0,0,0,0.611764705882353)" />
   <polygon points="919.0935734896339,315.0352704130645 850.9562603395283,252.9100731291447 875.0047238042714,347.0998883660553" style="fill:rgba(0,0,0,0.5803921568627451)" />
   <polygon points="810.9646992389598,283.9064379549711 819.9828971107244,379.0985266013746 875.0941063270633,347.0338230573229" style="fill:rgba(0,0,0,0.6470588235294118)" />
   <polygon points="918.9894938573474,314.90055342657206 874.9086283957182,346.95936467139325 902.9600882349368,419.09168997224094" style="fill:rgba(0,0,0,0.6470588235294118)" />
   <polygon points="820.0479851963217,378.91226505294946 776.9157788430691,389.9460852828513 834.0910291252877,421.0413968398474" style="fill:rgba(0,0,0,0.7725490196078432)" />
   <polygon points="875.0296244005509,346.90448877085913 819.902327006155,378.97855270941676 833.934729979274,421.0757616287736" style="fill:rgba(0,0,0,0.7098039215686275)" />
   <polygon points="903.0786930826192,419.0617041226166 875.0163301845064,346.9013423846123 833.9250130836983,421.06615861533896" style="fill:rgba(0,0,0,0.7019607843137254)" />
   <polygon points="834.0991591969507,421.01294038871424 776.9352476065702,389.9237954886827 776.9352476065702,443.0762045113173" style="fill:rgba(0,0,0,0.7843137254901961)" />
   <polygon points="903.0150575142145,418.9011401433054 833.9792415707101,420.90217828659536 776.9496544869455,442.9135978627852" style="fill:rgba(0,0,0,0.803921568627451)" />
   <polygon points="777.0996352233398,390.0085335965477 684.9165754765893,357.94486064115625 712.9722893125569,434.09608391021095" style="fill:rgba(0,0,0,0.8117647058823529)" />
   <polygon points="684.9697259188423,357.90469270746655 658.9055897172786,410.0329651105939 713.0387956743724,434.0921677581912" style="fill:rgba(0,0,0,0.8274509803921568)" />
   <polygon points="777.0737121060963,443.06757607131857 777.0737121060963,389.93242392868143 712.9105095187609,434.0446257074745" style="fill:rgba(0,0,0,0.8235294117647058)" />
   <polygon points="713.0994069772316,433.9891255860998 658.9414588070181,409.91892639933826 655.932683908673,463.0739496034367" style="fill:rgba(0,0,0,0.8745098039215686)" />
   <polygon points="777.0431848454624,442.9098053819655 712.9833653448514,433.90139326469205 655.9300886021198,462.92849897590645" style="fill:rgba(0,0,0,0.8745098039215686)" />
   <polygon points="659.0987582880823,410.01570988653873 574.934945851436,362.9240529279391 559.9056936306064,419.03326121903655" style="fill:rgba(0,0,0,0.8901960784313725)" />
   <polygon points="656.0838121718532,463.05454832581535 659.0894323806949,409.9552579696119 559.9039654889186,418.972118596137" style="fill:rgba(0,0,0,0.9254901960784314)" />
   <polygon points="575.0797827683986,362.93971144497783 510.90562886250024,372.9669229927744 560.0389654467036,419.09209611263884" style="fill:rgba(0,0,0,0.9176470588235294)" />
   <polygon points="511.0985778916476,373.01680473975733 411.91267510888713,390.0487274398273 474.0290990738482,415.09567258698905" style="fill:rgba(0,0,0,0.8823529411764706)" />
   <polygon points="560.0996950456899,419.0078037084054 510.9859215839023,372.90099596876803 473.90001101071573,414.9985160788717" style="fill:rgba(0,0,0,0.9333333333333333)" />
   <polygon points="656.0598116410985,462.91985907668925 560.0216644344451,418.90237494030646 473.9874908951516,414.9007854733626" style="fill:rgba(0,0,0,0.9490196078431372)" />
   <polygon points="412.098594681479,389.9832940494418 360.9666982734968,359.90570792709934 377.00807753874614,435.0996732329555" style="fill:rgba(0,0,0,0.8313725490196079)" />
   <polygon points="361.0318949869876,359.9052228413326 314.92867904174716,370.92990491519447 377.0677961853321,435.0735097085725" style="fill:rgba(0,0,0,0.7843137254901961)" />
   <polygon points="474.08864886942683,414.9537249748855 411.96824611035356,389.90517547525917 376.9002768108767,434.99256457458654" style="fill:rgba(0,0,0,0.8627450980392157)" />
   <polygon points="656.0532222963541,462.91533957730553 473.99545206423414,414.9001034721311 376.9646624350274,434.9064518492871" style="fill:rgba(0,0,0,0.8745098039215686)" />
   <polygon points="315.09253982779956,370.96210039220745 227.90127457407826,380.9840849041294 295.04857080395556,428.08741211016275" style="fill:rgba(0,0,0,0.7019607843137254)" />
   <polygon points="377.08530607835644,435.05218115555874 314.9505525795002,370.91308076964265 294.90708370890144,428.03696705084917" style="fill:rgba(0,0,0,0.7725490196078432)" />
   <polygon points="656.0195088712103,462.9019214399368 377.0003699120328,434.90000068417703 218.98953136167424,442.90054947153703" style="fill:rgba(0,0,0,0.7176470588235294)" />
   <polygon points="377.02274260057965,434.9026204635517 294.99409196057485,427.90017467720986 218.9675377088631,442.90541564794245" style="fill:rgba(0,0,0,0.7176470588235294)" />
   <polygon points="228.0638210768435,380.9230138314336 179.93302793399002,381.92573868857636 219.0392973625585,443.09195497428607" style="fill:rgba(0,0,0,0.6509803921568628)" />
   <polygon points="295.0963044877433,428.0269340981009 227.94189232877068,380.91861512091117 218.9211503969684,443.06150398443805" style="fill:rgba(0,0,0,0.6980392156862745)" />
   <polygon points="180.0995288884033,382.0096953789613 78.90018586710708,373.99390583272003 151.04229178327864,423.0906168034479" style="fill:rgba(0,0,0,0.5294117647058824)" />
   <polygon points="219.07823414878192,443.0622849738249 179.97629973709678,381.9028490991379 150.90050235404885,423.01001091655047" style="fill:rgba(0,0,0,0.6196078431372549)" />
   <polygon points="151.08966950622275,423.0442648805914 78.92592178862614,373.9328254616715 86.94411597947021,440.082927536135" style="fill:rgba(0,0,0,0.5294117647058824)" />
   <polygon points="219.05382880521137,442.9157239077228 151.00036984430358,422.90000068392635 86.95005552815508,439.9133654241533" style="fill:rgba(0,0,0,0.5647058823529412)" />
   <polygon points="79.07335156057324,373.93203273904686 57.017431820363605,361.9015310625689 24.936094016422302,431.0769157023173" style="fill:rgba(0,0,0,0.4235294117647059)" />
   <polygon points="87.06704736444769,440.07419333474525 79.04737989292275,373.9119366946644 24.91462446012934,431.05206742927965" style="fill:rgba(0,0,0,0.4392156862745098)" />
   <polygon points="87.02077494463113,439.9021817927195 25.007895287306525,430.9003121650433 -35.00456889720116,429.9001044286349" style="fill:rgba(0,0,0,0.43529411764705883)" />
   <polygon points="57.09067760207033,362.04216126756603 38.054381293452494,295.91607935341983 -34.08316261288883,369.0555335917937" style="fill:rgba(0,0,0,0.2823529411764706)" />
   <polygon points="25.024701021284045,431.09690128764635 57.089926327188394,361.9562592217901 -34.0955581364771,368.9705272574567" style="fill:rgba(0,0,0,0.3686274509803922)" />
   <polygon points="-35.071292945729766,430.07012357584415 25.068916546120555,431.07246040070834 -34.06895612086559,368.9275772591297" style="fill:rgba(0,0,0,0.3803921568627451)" />
   <polygon points="-34.07349142776122,369.06781600139806 38.06679592406266,295.92558021413214 -24.054007073341236,290.9158380369222" style="fill:rgba(0,0,0,0.27450980392156865)" />
   <polygon points="38.05467524640876,296.0837294298926 52.08976031229879,244.9559195470075 -22.095689321691356,250.97095600381752" style="fill:rgba(0,0,0,0.2196078431372549)" />
   <polygon points="-24.087124085775045,291.0490855750487 38.07813228923358,296.06241270206556 -22.08179323496832,250.94246855891413" style="fill:rgba(0,0,0,0.2235294117647059)" />
   <polygon points="-33.901595955457765,369.0177944940282 -23.900289583889958,291.007604795799 -21.900028309576328,251.00237930952767" style="fill:rgba(0,0,0,0)" />
   <polygon points="51.07776734265974,160.06286684671304 57.093067558196154,120.96341544572633 -15.090535028240861,152.04246655933116" style="fill:rgba(0,0,0,0.08235294117647059)" />
   <polygon points="52.06865214426659,245.07271095576044 51.06692253358741,159.9256940480295 -15.047231771238984,151.911857162596" style="fill:rgba(0,0,0,0.11372549019607843)" />
   <polygon points="-22.05761347169489,251.0817354750354 52.07002873509644,245.07138610691717 -15.045539208890297,151.91097090108485" style="fill:rgba(0,0,0,0.11372549019607843)" />
   <polygon points="57.03378234633303,121.09412094918899 9.94280417612693,29.917971726024 -10.09590993885439,87.02830695372076" style="fill:rgba(0,0,0,0.011764705882352941)" />
   <polygon points="-15.069714068621938,152.07169343509818 57.09999056241964,120.99862616339972 -10.057929024799606,86.91848786540785" style="fill:rgba(0,0,0,0.054901960784313725)" />
   <polygon points="-33.90085616862552,369.01305759167633 -21.900257243675924,251.00716816300493 -19.900157422850953,-5.00560890258717" style="fill:rgba(0,0,0,0)" />
   <polygon points="-21.90060700909089,251.0110015161736 -14.90004786306963,152.00309359387566 -19.90044725308485,-5.009447252596843" style="fill:rgba(0,0,0,0)" />
   <polygon points="9.980125086487309,30.09800503973197 27.025467950251116,-43.09670255172438 -20.099891731919417,-4.995347915075875" style="fill:rgba(0,0,0,0.004139433551198257)" />
   <polygon points="-9.940844624984624,87.0806265564612 10.096564048273592,29.974011837675285 -19.95954896161373,-5.091453340526591" style="fill:rgba(0,0,0,0)" />
   <polygon points="-14.901171311799033,152.01526074665543 -9.900000005701145,87.000033767383 -19.90234261789692,-5.021518264817999" style="fill:rgba(0,0,0,0)" />
</svg>