<?xml version="1.0" standalone="yes"?>
<!DOCTYPE svg PUBLIC "-//W3C//DTD SVG 1.1//EN" 
   "http://www.w3.org/Graphics/SVG/1.1/DTD/svg11.dtd">
<svg width="853" height="410" version="1.1" 
   xmlns="http://www.w3.org/2000/svg">
   <polygon points="10,30 102,44 84,2" style="fill:rgba(254,254,254,1)" />
   <polygon points="155,8 102,44 162,88" style="fill:rgba(238,238,239,1)" />
   <polygon points="227,45 155,8 162,88" style="fill:rgba(228,229,228,1)" />
   <polygon points="162,88 102,44 121,91" style="fill:rgba(234,235,235,1)" />
   <polygon points="102,44 10,30 57,121" style="fill:rgba(252,252,252,1)" />
   <polygon points="121,91 102,44 57,121" style="fill:rgba(243,243,243,1)" />
   <polygon points="162,88 121,91 120,166" style="fill:rgba(225,226,225,1)" />
   <polygon points="121,91 57,121 120,166" style="fill:rgba(239,239,239,1)" />
   <polygon points="57,121 51,160 120,166" style="fill:rgba(238,238,238,1)" />
   <polygon points="227,45 162,88 250,89" style="fill:rgba(222,221,222,1)" />
   <polygon points="227,45 250,89 302,34" style="fill:rgba(208,207,208,1)" />
   <polygon points="302,34 250,89 319,80" style="fill:rgba(202,202,202,1)" />
   <polygon points="250,89 162,88 246,142" style="fill:rgba(216,216,216,1)" />
   <polygon points="319,80 250,89 246,142" style="fill:rgba(195,195,195,1)" />
   <polygon points="352,100 319,80 307,184" style="fill:rgba(179,178,179,1)" />
   <polygon points="319,80 246,142 307,184" style="fill:rgba(195,195,195,1)" />
   <polygon points="246,142 255,236 307,184" style="fill:rgba(186,186,186,1)" />
   <polygon points="307,184 255,236 301,241" style="fill:rgba(177,177,177,1)" />
   <polygon points="352,100 307,184 347,194" style="fill:rgba(175,175,175,1)" />
   <polygon points="307,184 301,241 347,194" style="fill:rgba(163,163,163,1)" />
   <polygon points="301,241 355,250 347,194" style="fill:rgba(161,161,161,1)" />
   <polygon points="352,100 347,194 413,162" style="fill:rgba(164,164,164,1)" />
   <polygon points="352,100 413,162 415,84" style="fill:rgba(166,166,165,1)" />
   <polygon points="302,34 319,80 384,62" style="fill:rgba(189,189,189,1)" />
   <polygon points="319,80 352,100 384,62" style="fill:rgba(179,179,179,1)" />
   <polygon points="352,100 415,84 384,62" style="fill:rgba(171,170,170,1)" />
   <polygon points="384,62 415,84 423,43" style="fill:rgba(166,166,166,1)" />
   <polygon points="618,100 614,15 572,34" style="fill:rgba(133,133,133,1)" />
   <polygon points="614,15 618,100 698,45" style="fill:rgba(126,126,126,1)" />
   <polygon points="788,22 698,45 775,96" style="fill:rgba(114,114,114,1)" />
   <polygon points="844,31 788,22 775,96" style="fill:rgba(110,110,110,1)" />
   <polygon points="851,108 844,31 775,96" style="fill:rgba(107,107,107,1)" />
   <polygon points="851,108 775,96 833,172" style="fill:rgba(84,84,84,1)" />
   <polygon points="833,172 775,96 762,195" style="fill:rgba(84,84,85,1)" />
   <polygon points="698,45 618,100 684,128" style="fill:rgba(116,116,116,1)" />
   <polygon points="775,96 698,45 684,128" style="fill:rgba(108,107,107,1)" />
   <polygon points="762,195 775,96 684,128" style="fill:rgba(91,90,90,1)" />
   <polygon points="695,188 762,195 684,128" style="fill:rgba(80,81,81,1)" />
   <polygon points="618,100 572,34 577,115" style="fill:rgba(127,126,127,1)" />
   <polygon points="423,43 415,84 506,89" style="fill:rgba(158,158,159,1)" />
   <polygon points="487,30 423,43 506,89" style="fill:rgba(159,160,160,1)" />
   <polygon points="415,84 413,162 506,89" style="fill:rgba(150,150,149,1)" />
   <polygon points="572,34 487,30 506,89" style="fill:rgba(145,145,145,1)" />
   <polygon points="577,115 572,34 506,89" style="fill:rgba(140,140,140,1)" />
   <polygon points="506,89 413,162 487,176" style="fill:rgba(148,149,148,1)" />
   <polygon points="577,115 506,89 563,171" style="fill:rgba(125,125,124,1)" />
   <polygon points="506,89 487,176 563,171" style="fill:rgba(130,129,129,1)" />
   <polygon points="695,188 684,128 630,166" style="fill:rgba(88,88,89,1)" />
   <polygon points="684,128 618,100 630,166" style="fill:rgba(98,98,98,1)" />
   <polygon points="618,100 577,115 630,166" style="fill:rgba(106,106,106,1)" />
   <polygon points="577,115 563,171 630,166" style="fill:rgba(105,105,105,1)" />
   <polygon points="162,88 120,166 194,193" style="fill:rgba(225,226,225,1)" />
   <polygon points="246,142 162,88 194,193" style="fill:rgba(216,216,216,1)" />
   <polygon points="255,236 246,142 194,193" style="fill:rgba(201,200,200,1)" />
   <polygon points="120,166 51,160 108,230" style="fill:rgba(234,235,235,1)" />
   <polygon points="51,160 52,245 108,230" style="fill:rgba(234,235,235,1)" />
   <polygon points="194,193 120,166 164,232" style="fill:rgba(217,218,218,1)" />
   <polygon points="120,166 108,230 164,232" style="fill:rgba(221,220,220,1)" />
   <polygon points="255,236 194,193 164,232" style="fill:rgba(203,203,203,1)" />
   <polygon points="347,194 355,250 416,244" style="fill:rgba(147,147,147,1)" />
   <polygon points="413,162 347,194 416,244" style="fill:rgba(153,152,152,1)" />
   <polygon points="487,176 413,162 416,244" style="fill:rgba(133,133,132,1)" />
   <polygon points="563,171 487,176 520,234" style="fill:rgba(109,110,109,1)" />
   <polygon points="487,176 416,244 520,234" style="fill:rgba(129,129,129,1)" />
   <polygon points="630,166 563,171 586,216" style="fill:rgba(92,91,91,1)" />
   <polygon points="563,171 520,234 586,216" style="fill:rgba(100,101,101,1)" />
   <polygon points="695,188 630,166 632,231" style="fill:rgba(77,77,78,1)" />
   <polygon points="630,166 586,216 632,231" style="fill:rgba(87,86,86,1)" />
   <polygon points="762,195 695,188 688,254" style="fill:rgba(62,62,62,1)" />
   <polygon points="695,188 632,231 688,254" style="fill:rgba(71,71,71,1)" />
   <polygon points="833,172 762,195 792,258" style="fill:rgba(60,60,60,1)" />
   <polygon points="762,195 688,254 792,258" style="fill:rgba(59,60,60,1)" />
   <polygon points="833,172 792,258 851,253" style="fill:rgba(59,59,60,1)" />
   <polygon points="851,253 792,258 811,284" style="fill:rgba(35,35,36,1)" />
   <polygon points="792,258 688,254 786,285" style="fill:rgba(45,45,45,1)" />
   <polygon points="811,284 792,258 786,285" style="fill:rgba(35,34,34,1)" />
   <polygon points="811,284 786,285 820,379" style="fill:rgba(28,27,28,1)" />
   <polygon points="820,379 786,285 777,390" style="fill:rgba(28,27,27,1)" />
   <polygon points="786,285 688,254 692,320" style="fill:rgba(45,45,45,1)" />
   <polygon points="777,390 786,285 692,320" style="fill:rgba(37,36,36,1)" />
   <polygon points="685,358 777,390 692,320" style="fill:rgba(31,31,32,1)" />
   <polygon points="688,254 632,231 649,295" style="fill:rgba(61,61,60,1)" />
   <polygon points="692,320 688,254 649,295" style="fill:rgba(51,52,51,1)" />
   <polygon points="632,231 586,216 574,327" style="fill:rgba(77,77,77,1)" />
   <polygon points="649,295 632,231 574,327" style="fill:rgba(73,74,74,1)" />
   <polygon points="685,358 692,320 652,363" style="fill:rgba(39,39,39,1)" />
   <polygon points="692,320 649,295 652,363" style="fill:rgba(43,43,44,1)" />
   <polygon points="649,295 574,327 652,363" style="fill:rgba(62,62,62,1)" />
   <polygon points="685,358 652,363 659,410" style="fill:rgba(33,33,33,1)" />
   <polygon points="652,363 574,327 575,363" style="fill:rgba(57,58,57,1)" />
   <polygon points="659,410 652,363 575,363" style="fill:rgba(54,54,54,1)" />
   <polygon points="575,363 574,327 511,373" style="fill:rgba(76,77,76,1)" />
   <polygon points="586,216 520,234 526,309" style="fill:rgba(91,91,91,1)" />
   <polygon points="574,327 586,216 526,309" style="fill:rgba(89,90,89,1)" />
   <polygon points="511,373 574,327 526,309" style="fill:rgba(78,78,78,1)" />
   <polygon points="520,234 416,244 423,287" style="fill:rgba(119,118,118,1)" />
   <polygon points="526,309 520,234 423,287" style="fill:rgba(117,117,117,1)" />
   <polygon points="412,390 511,373 423,287" style="fill:rgba(113,113,113,1)" />
   <polygon points="511,373 526,309 423,287" style="fill:rgba(110,109,109,1)" />
   <polygon points="416,244 355,250 355,276" style="fill:rgba(138,137,137,1)" />
   <polygon points="423,287 416,244 355,276" style="fill:rgba(138,137,137,1)" />
   <polygon points="301,241 255,236 323,288" style="fill:rgba(171,171,171,1)" />
   <polygon points="355,250 301,241 323,288" style="fill:rgba(155,156,155,1)" />
   <polygon points="355,276 355,250 323,288" style="fill:rgba(148,147,147,1)" />
   <polygon points="255,236 164,232 224,299" style="fill:rgba(199,199,199,1)" />
   <polygon points="323,288 255,236 224,299" style="fill:rgba(180,181,181,1)" />
   <polygon points="224,299 164,232 147,313" style="fill:rgba(204,204,205,1)" />
   <polygon points="108,230 52,245 100,282" style="fill:rgba(229,230,229,1)" />
   <polygon points="164,232 108,230 100,282" style="fill:rgba(217,217,217,1)" />
   <polygon points="147,313 164,232 100,282" style="fill:rgba(218,217,217,1)" />
   <polygon points="100,282 52,245 38,296" style="fill:rgba(232,232,232,1)" />
   <polygon points="100,282 38,296 57,362" style="fill:rgba(231,230,230,1)" />
   <polygon points="147,313 100,282 79,374" style="fill:rgba(219,220,220,1)" />
   <polygon points="100,282 57,362 79,374" style="fill:rgba(226,225,225,1)" />
   <polygon points="224,299 147,313 180,382" style="fill:rgba(200,199,200,1)" />
   <polygon points="147,313 79,374 180,382" style="fill:rgba(218,219,218,1)" />
   <polygon points="224,299 180,382 228,381" style="fill:rgba(190,189,189,1)" />
   <polygon points="323,288 224,299 315,371" style="fill:rgba(176,176,176,1)" />
   <polygon points="224,299 228,381 315,371" style="fill:rgba(175,175,175,1)" />
   <polygon points="412,390 423,287 361,360" style="fill:rgba(130,130,130,1)" />
   <polygon points="423,287 355,276 361,360" style="fill:rgba(133,133,133,1)" />
   <polygon points="355,276 323,288 361,360" style="fill:rgba(144,144,144,1)" />
   <polygon points="323,288 315,371 361,360" style="fill:rgba(146,146,146,1)" />
   <polygon points="10,30 84,2 27,-43" style="fill:rgba(254,255,254,1)" />
   <polygon points="102,44 155,8 93,-10" style="fill:rgba(241,241,241,1)" />
   <polygon points="84,2 102,44 93,-10" style="fill:rgba(243,243,243,1)" />
   <polygon points="27,-43 84,2 93,-10" style="fill:rgba(252,252,251,1)" />
   <polygon points="27,-43 93,-10 177,-47" style="fill:rgba(0,0,0,1)" />
   <polygon points="93,-10 155,8 177,-47" style="fill:rgba(241,241,241,1)" />
   <polygon points="155,8 227,45 239,-20" style="fill:rgba(229,229,229,1)" />
   <polygon points="177,-47 155,8 239,-20" style="fill:rgba(229,229,229,1)" />
   <polygon points="227,45 302,34 239,-20" style="fill:rgba(213,214,213,1)" />
   <polygon points="302,34 384,62 317,-39" style="fill:rgba(196,196,196,1)" />
   <polygon points="239,-20 302,34 317,-39" style="fill:rgba(210,211,210,1)" />
   <polygon points="177,-47 239,-20 317,-39" style="fill:rgba(0,0,0,1)" />
   <polygon points="384,62 423,43 384,-56" style="fill:rgba(176,177,176,1)" />
   <polygon points="317,-39 384,62 384,-56" style="fill:rgba(192,192,193,1)" />
   <polygon points="177,-47 317,-39 384,-56" style="fill:rgba(0,0,0,1)" />
   <polygon points="423,43 487,30 458,-27" style="fill:rgba(167,167,168,1)" />
   <polygon points="384,-56 423,43 458,-27" style="fill:rgba(176,177,176,1)" />
   <polygon points="487,30 572,34 516,-13" style="fill:rgba(153,153,153,1)" />
   <polygon points="458,-27 487,30 516,-13" style="fill:rgba(160,159,160,1)" />
   <polygon points="572,34 614,15 548,-17" style="fill:rgba(141,141,141,1)" />
   <polygon points="516,-13 572,34 548,-17" style="fill:rgba(148,148,148,1)" />
   <polygon points="458,-27 516,-13 548,-17" style="fill:rgba(0,0,0,1)" />
   <polygon points="548,-17 614,15 627,-37" style="fill:rgba(141,141,141,1)" />
   <polygon points="384,-56 458,-27 627,-37" style="fill:rgba(0,0,0,1)" />
   <polygon points="458,-27 548,-17 627,-37" style="fill:rgba(0,0,0,1)" />
   <polygon points="614,15 698,45 706,-29" style="fill:rgba(131,130,130,1)" />
   <polygon points="627,-37 614,15 706,-29" style="fill:rgba(131,130,130,1)" />
   <polygon points="384,-56 627,-37 748,-37" style="fill:rgba(0,0,0,1)" />
   <polygon points="698,45 788,22 748,-37" style="fill:rgba(121,121,121,1)" />
   <polygon points="706,-29 698,45 748,-37" style="fill:rgba(121,121,121,1)" />
   <polygon points="627,-37 706,-29 748,-37" style="fill:rgba(0,0,0,1)" />
   <polygon points="788,22 844,31 855,-31" style="fill:rgba(117,117,118,1)" />
   <polygon points="748,-37 788,22 855,-31" style="fill:rgba(118,119,118,1)" />
   <polygon points="855,-31 844,31 891,0" style="fill:rgba(118,118,118,1)" />
   <polygon points="891,0 844,31 906,41" style="fill:rgba(118,118,118,1)" />
   <polygon points="851,108 833,172 900,96" style="fill:rgba(84,84,84,1)" />
   <polygon points="844,31 851,108 906,75" style="fill:rgba(107,107,107,1)" />
   <polygon points="851,108 900,96 906,75" style="fill:rgba(92,93,92,1)" />
   <polygon points="906,41 844,31 906,75" style="fill:rgba(107,107,107,1)" />
   <polygon points="833,172 851,253 892,250" style="fill:rgba(60,60,59,1)" />
   <polygon points="900,96 833,172 892,250" style="fill:rgba(84,84,84,1)" />
   <polygon points="906,41 906,75 919,315" style="fill:rgba(104,104,104,1)" />
   <polygon points="892,250 851,253 919,315" style="fill:rgba(38,38,38,1)" />
   <polygon points="906,75 900,96 919,315" style="fill:rgba(92,93,92,1)" />
   <polygon points="900,96 892,250 919,315" style="fill:rgba(85,85,86,1)" />
   <polygon points="851,253 811,284 875,347" style="fill:rgba(36,36,36,1)" />
   <polygon points="919,315 851,253 875,347" style="fill:rgba(38,37,37,1)" />
   <polygon points="811,284 820,379 875,347" style="fill:rgba(27,27,27,1)" />
   <polygon points="919,315 875,347 903,419" style="fill:rgba(23,23,23,1)" />
   <polygon points="820,379 777,390 834,421" style="fill:rgba(7,8,8,1)" />
   <polygon points="875,347 820,379 834,421" style="fill:rgba(13,14,13,1)" />
   <polygon points="903,419 875,347 834,421" style="fill:rgba(14,15,15,1)" />
   <polygon points="834,421 777,390 777,443" style="fill:rgba(6,6,6,1)" />
   <polygon points="903,419 834,421 777,443" style="fill:rgba(4,4,4,1)" />
   <polygon points="777,390 685,358 713,434" style="fill:rgba(25,25,26,1)" />
   <polygon points="685,358 659,410 713,434" style="fill:rgba(31,31,32,1)" />
   <polygon points="777,443 777,390 713,434" style="fill:rgba(17,16,17,1)" />
   <polygon points="713,434 659,410 656,463" style="fill:rgba(29,29,29,1)" />
   <polygon points="777,443 713,434 656,463" style="fill:rgba(29,29,29,1)" />
   <polygon points="659,410 575,363 560,419" style="fill:rgba(58,58,58,1)" />
   <polygon points="656,463 659,410 560,419" style="fill:rgba(57,57,56,1)" />
   <polygon points="575,363 511,373 560,419" style="fill:rgba(73,74,74,1)" />
   <polygon points="511,373 412,390 474,415" style="fill:rgba(106,107,106,1)" />
   <polygon points="560,419 511,373 474,415" style="fill:rgba(85,85,85,1)" />
   <polygon points="656,463 560,419 474,415" style="fill:rgba(84,84,84,1)" />
   <polygon points="412,390 361,360 377,435" style="fill:rgba(124,124,124,1)" />
   <polygon points="361,360 315,371 377,435" style="fill:rgba(141,141,141,1)" />
   <polygon points="474,415 412,390 377,435" style="fill:rgba(118,118,118,1)" />
   <polygon points="656,463 474,415 377,435" style="fill:rgba(118,117,118,1)" />
   <polygon points="315,371 228,381 295,428" style="fill:rgba(171,170,170,1)" />
   <polygon points="377,435 315,371 295,428" style="fill:rgba(147,148,148,1)" />
   <polygon points="656,463 377,435 219,443" style="fill:rgba(173,172,173,1)" />
   <polygon points="377,435 295,428 219,443" style="fill:rgba(173,172,173,1)" />
   <polygon points="228,381 180,382 219,443" style="fill:rgba(186,186,186,1)" />
   <polygon points="295,428 228,381 219,443" style="fill:rgba(173,173,173,1)" />
   <polygon points="180,382 79,374 151,423" style="fill:rgba(216,216,217,1)" />
   <polygon points="219,443 180,382 151,423" style="fill:rgba(195,195,195,1)" />
   <polygon points="151,423 79,374 87,440" style="fill:rgba(216,216,217,1)" />
   <polygon points="219,443 151,423 87,440" style="fill:rgba(214,214,214,1)" />
   <polygon points="79,374 57,362 25,431" style="fill:rgba(231,231,231,1)" />
   <polygon points="87,440 79,374 25,431" style="fill:rgba(230,231,231,1)" />
   <polygon points="87,440 25,431 -35,430" style="fill:rgba(236,236,236,1)" />
   <polygon points="57,362 38,296 -34,369" style="fill:rgba(238,238,238,1)" />
   <polygon points="25,431 57,362 -34,369" style="fill:rgba(237,237,237,1)" />
   <polygon points="-35,430 25,431 -34,369" style="fill:rgba(237,236,237,1)" />
   <polygon points="-34,369 38,296 -24,291" style="fill:rgba(239,239,238,1)" />
   <polygon points="38,296 52,245 -22,251" style="fill:rgba(240,240,240,1)" />
   <polygon points="-24,291 38,296 -22,251" style="fill:rgba(240,241,240,1)" />
   <polygon points="-34,369 -24,291 -22,251" style="fill:rgba(0,0,0,1)" />
   <polygon points="51,160 57,121 -15,152" style="fill:rgba(247,247,248,1)" />
   <polygon points="52,245 51,160 -15,152" style="fill:rgba(246,245,246,1)" />
   <polygon points="-22,251 52,245 -15,152" style="fill:rgba(246,245,246,1)" />
   <polygon points="57,121 10,30 -10,87" style="fill:rgba(253,254,254,1)" />
   <polygon points="-15,152 57,121 -10,87" style="fill:rgba(250,250,249,1)" />
   <polygon points="-34,369 -22,251 -20,-5" style="fill:rgba(0,0,0,1)" />
   <polygon points="-22,251 -15,152 -20,-5" style="fill:rgba(0,0,0,1)" />
   <polygon points="10,30 27,-43 -20,-5" style="fill:rgba(254,254,254,1)" />
   <polygon points="-10,87 10,30 -20,-5" style="fill:rgba(255,255,255,1)" />
   <polygon points="-15,152 -10,87 -20,-5" style="fill:rgba(0,0,0,1)" />
</svg>