<?xml version="1.0" standalone="yes"?>
<!DOCTYPE svg PUBLIC "-//W3C//DTD SVG 1.1//EN" 
   "http://www.w3.org/Graphics/SVG/1.1/DTD/svg11.dtd">
<svg width="853" height="410" version="1.1" 
   xmlns="http://www.w3.org/2000/svg">
   <polygon points="9.852819004621551,29.971056009269454 102.14912842839618,44.01614657375689 84.09115484548374,1.880874880294563" style="fill:rgba(1,1,1,0.00392156862745098)" />
   <polygon points="155.03770752369402,7.8548168651087025 101.8511399936433,43.98154197986015 162.06234851822904,88.13642823122302" style="fill:rgba(1,1,1,0.12549019607843137)" />
   <polygon points="227.14996213637247,44.9966298880426 154.91543574030948,7.8761093789546806 161.9382369177045,88.1366942634691" style="fill:rgba(1,1,1,0.2235294117647059)" />
   <polygon points="162.08799782760343,88.12147585083906 101.85769131546922,43.952584408607315 120.93062171097839,91.13299117644578" style="fill:rgba(1,1,1,0.16862745098039217)" />
   <polygon points="102.13731867621489,43.93963791618416 9.886852414892019,29.901523485113287 57.01480800491566,121.14926728707395" style="fill:rgba(1,1,1,0.0196078431372549)" />
   <polygon points="121.14640394272857,91.03264790274318 102.08258573224245,43.8747818031196 56.931437338985845,121.13341349824759" style="fill:rgba(1,1,1,0.09411764705882353)" />
   <polygon points="162.05945669287937,87.86228688634756 120.92113075949538,90.87240829610737 119.91775695624212,166.12544354010248" style="fill:rgba(1,1,1,0.2549019607843137)" />
   <polygon points="121.07525239744385,90.87024223846353 56.852126407820144,120.97483254609963 120.07176605385597,166.1317180075538" style="fill:rgba(1,1,1,0.1411764705882353)" />
   <polygon points="56.88394735137855,120.90496430803142 50.860748306330024,160.05575810084682 120.12753732438804,166.07895714589534" style="fill:rgba(1,1,1,0.16470588235294117)" />
   <polygon points="227.07103363526676,44.86788556982377 161.8506263447351,88.01369346971393 250.149023907301,89.01708435110672" style="fill:rgba(1,1,1,0.2823529411764706)" />
   <polygon points="226.85259100605523,44.97224052406494 249.9386534380577,89.13688169833057 302.1332293712808,33.93108023049852" style="fill:rgba(1,1,1,0.403921568627451)" />
   <polygon points="302.07622738233755,33.870812592788766 249.87528661554933,89.08334609612248 319.1419195560953,80.04856788648605" style="fill:rgba(1,1,1,0.4588235294117647)" />
   <polygon points="250.13272602872837,88.93011580079876 161.86889631744555,87.92711773589781 246.1207337691246,142.08901324054864" style="fill:rgba(1,1,1,0.3411764705882353)" />
   <polygon points="319.0921651276617,79.88165478783193 249.88056225713146,88.90925516224893 245.86829542405724,142.0717907004823" style="fill:rgba(1,1,1,0.5058823529411764)" />
   <polygon points="352.11950330245725,99.90934151610678 319.02507147303294,79.85211010433449 306.99073262596954,184.14971344555042" style="fill:rgba(1,1,1,0.5764705882352941)" />
   <polygon points="319.0554421439584,79.86062220882329 245.85348529930124,142.03214720017593 307.0222437585353,184.14834154915675" style="fill:rgba(1,1,1,0.5058823529411764)" />
   <polygon points="245.95885393046316,141.85575367955587 254.9869721807106,236.14943318214026 307.1494331821402,183.9869721807106" style="fill:rgba(1,1,1,0.5529411764705883)" />
   <polygon points="307.1057054559298,183.89357464312172 254.89357464312172,236.10570545592984 301.08122882368275,241.12610264946906" style="fill:rgba(1,1,1,0.596078431372549)" />
   <polygon points="352.044324007349,99.8566982820322 306.90525636968795,184.1162912056662 347.0288720476089,194.14719512514642" style="fill:rgba(1,1,1,0.592156862745098)" />
   <polygon points="306.9381805424958,183.86333122275414 300.91107842904194,241.12080130056563 347.1188612988547,193.90850141184387" style="fill:rgba(1,1,1,0.6470588235294118)" />
   <polygon points="300.867586921921,241.07047536274212 355.10239873999626,250.10961066575467 347.0676118039851,193.86610211367656" style="fill:rgba(1,1,1,0.6549019607843137)" />
   <polygon points="351.9596038940425,99.85554185857671 346.94450730814475,194.13935767345453 413.1437822419951,162.0427395237089" style="fill:rgba(1,1,1,0.6392156862745098)" />
   <polygon points="351.8697662491266,99.92557439866926 413.07229828117755,162.13142662796696 415.07893867567105,83.87245124272145" style="fill:rgba(1,1,1,0.6313725490196078)" />
   <polygon points="301.85448687958586,33.96358665371944 318.9131384626138,80.12229093720677 384.13739451536765,62.06018926105955" style="fill:rgba(1,1,1,0.5411764705882353)" />
   <polygon points="318.86335545820464,80.06187300863486 352.0083785882465,100.14976581472084 384.14900707798404,61.98276948315748" style="fill:rgba(1,1,1,0.5803921568627451)" />
   <polygon points="351.8520621694802,100.02478705914544 415.1418376037769,83.95119329805419 383.9992496916626,61.85000187655374" style="fill:rgba(1,1,1,0.615686274509804)" />
   <polygon points="383.85006241147687,62.004326609279765 415.0454108890436,84.14296101271421 423.09582339938333,42.88459689722275" style="fill:rgba(1,1,1,0.6392156862745098)" />
   <polygon points="618.0343253255948,100.14601976586343 614.0204609627712,14.851402055860525 571.8748851531226,33.917257779272944" style="fill:rgba(1,1,1,0.5098039215686274)" />
   <polygon points="613.9065573839647,14.88266084409505 617.9179896156631,100.12559576768717 698.1466342496323,44.968402581833445" style="fill:rgba(1,1,1,0.4627450980392157)" />
   <polygon points="788.1183792718905,21.907878623617126 697.8519374243008,44.97596931800115 775.0798932272387,96.1269530316353" style="fill:rgba(1,1,1,0.3568627450980392)" />
   <polygon points="844.1076755493568,30.89556831864462 787.9304688627669,21.86708867258554 774.8893315962372,96.10125465129356" style="fill:rgba(1,1,1,0.25882352941176473)" />
   <polygon points="851.1021687483793,108.10982507388843 844.0806893293441,30.873551464500345 774.8689636274248,96.07300321268511" style="fill:rgba(1,1,1,0.27450980392156865)" />
   <polygon points="851.1324797462551,107.92965004028281 774.8956406073676,95.89225438677427 833.0763862659921,172.12909352566172" style="fill:rgba(1,1,1,0.4117647058823529)" />
   <polygon points="833.1333880810398,172.0686120968672 774.9690205476462,95.85323394966184 761.9321795487822,195.13379232562673" style="fill:rgba(1,1,1,0.43137254901960786)" />
   <polygon points="698.1005192843805,44.888663242962565 617.8600513478287,100.05398494934194 684.058437395484,128.13814872713507" style="fill:rgba(1,1,1,0.5098039215686274)" />
   <polygon points="775.1495231849656,96.0119506132797 697.9306596393594,44.86698904411201 683.8908662674311,128.10290689197313" style="fill:rgba(1,1,1,0.43137254901960786)" />
   <polygon points="762.0573619768436,195.13859871432518 775.0911999650582,95.88090941945991 683.8543340475558,127.9642029289113" style="fill:rgba(1,1,1,0.5215686274509804)" />
   <polygon points="694.8940934982189,188.1062252930356 762.0816627463729,195.12582208015618 683.8632985470294,127.93825283200218" style="fill:rgba(1,1,1,0.5588235294117647)" />
   <polygon points="618.1172905433582,100.09350362794427 571.952870331929,33.85759636806767 576.9707420940409,115.14711891427987" style="fill:rgba(1,1,1,0.5294117647058824)" />
   <polygon points="422.8800346364325,42.90995383659407 414.85498322287515,84.03834233107573 506.13994305209053,89.0539994645491" style="fill:rgba(1,1,1,0.6588235294117647)" />
   <polygon points="487.07875777080125,29.872339459744154 422.877676692867,42.91318405369955 506.138453715813,89.05771107846482" style="fill:rgba(1,1,1,0.6392156862745098)" />
   <polygon points="414.8898405455895,83.89819187358573 412.8847678025202,162.09602885328889 506.1206503552432,88.91087373125902" style="fill:rgba(1,1,1,0.7019607843137254)" />
   <polygon points="572.1416038832434,33.950519294160436 486.8636686211392,29.937439987708473 505.92579532678604,89.13035975787491" style="fill:rgba(1,1,1,0.592156862745098)" />
   <polygon points="577.0830395528384,115.12491770356681 572.0670457299518,33.86581777280417 505.85592726784887,89.04174982455658" style="fill:rgba(1,1,1,0.5843137254901961)" />
   <polygon points="506.12054163479104,88.91072674374763 412.8846508441193,162.09588833212442 487.0723488926108,176.13139877373092" style="fill:rgba(1,1,1,0.7058823529411765)" />
   <polygon points="577.1399927740903,114.94612957024012 505.9279029504582,88.86846287426218 563.0981722454867,171.11341168465412" style="fill:rgba(1,1,1,0.6431372549019608)" />
   <polygon points="505.9518571403528,88.85793570094852 486.8970140851196,176.10905916438455 563.1163863060523,171.09462678142845" style="fill:rgba(1,1,1,0.6588235294117647)" />
   <polygon points="695.1089064491536,188.10314739615114 684.0652327260644,127.86492708839222 629.8508344490814,166.0157999499729" style="fill:rgba(1,1,1,0.6)" />
   <polygon points="684.1499226052432,127.99518207128708 617.8992769491429,99.88884755051721 629.9448488866157,166.1394932066176" style="fill:rgba(1,1,1,0.5764705882352941)" />
   <polygon points="618.0405941711083,99.8555973917409 576.8758025596577,114.91588700568624 630.0888258622646,166.12087169310038" style="fill:rgba(1,1,1,0.6039215686274509)" />
   <polygon points="576.9300476329853,114.86730988601622 562.8758349166417,171.08416075139053 630.1352814877145,166.0647990669821" style="fill:rgba(1,1,1,0.6352941176470588)" />
   <polygon points="161.97732713438083,87.85172343015631 119.86372899272544,166.0626914075163 194.06387809945159,193.13571878429477" style="fill:rgba(1,1,1,0.2549019607843137)" />
   <polygon points="246.14937296433627,142.0137010045397 161.925521501651,87.86979649281346 194.0107982493406,193.14961082117006" style="fill:rgba(1,1,1,0.3411764705882353)" />
   <polygon points="255.04095449615141,236.1443008289823 246.01282938333156,141.85054965064165 193.85032873148356,193.00992528995414" style="fill:rgba(1,1,1,0.4823529411764706)" />
   <polygon points="120.1224884212908,165.9134171688515 50.89429493299811,159.89357425682607 108.08280259723989,230.125074897123" style="fill:rgba(1,1,1,0.20980392156862746)" />
   <polygon points="50.93700046472086,159.86387116927477 51.940220489671574,245.1375732900853 108.12054188691144,230.0892729158246" style="fill:rgba(1,1,1,0.20784313725490197)" />
   <polygon points="194.14996115887436,193.00341333108025 119.88307730988345,165.90603679158357 164.04176500387803,232.14406833257544" style="fill:rgba(1,1,1,0.3568627450980392)" />
   <polygon points="119.93633258162515,165.86418225507143 107.89145526093688,230.10352796540894 164.1008827574822,232.111007518857" style="fill:rgba(1,1,1,0.32941176470588235)" />
   <polygon points="255.14999961991504,236.00033767639127 193.949269167176,192.85883916052606 163.85054927238633,231.98717502375266" style="fill:rgba(1,1,1,0.49019607843137253)" />
   <polygon points="346.8747958559908,193.91739296444663 354.9029339917061,250.11435991445381 416.11748727653537,244.09325631266734" style="fill:rgba(1,1,1,0.7058823529411765)" />
   <polygon points="413.06601412200064,161.86530725447716 346.85336408706416,193.96841030171908 416.07568003267954,244.12950881303456" style="fill:rgba(1,1,1,0.6862745098039216)" />
   <polygon points="487.12863543997935,175.9228448084616 412.90843978028505,161.88118617014106 415.91736663135373,244.1251867660185" style="fill:rgba(1,1,1,0.7568627450980392)" />
   <polygon points="563.1301510717898,170.92542990873025 486.8612011578645,175.9431239820148 519.9779820415425,234.14837523211563" style="fill:rgba(1,1,1,0.7490196078431373)" />
   <polygon points="487.05641022747693,175.86101120104124 415.8587067865904,244.05036097541142 520.1483005591565,234.02251542035697" style="fill:rgba(1,1,1,0.7686274509803922)" />
   <polygon points="630.1349930346619,165.9346021361757 562.8567954196959,170.95536315221796 585.9522960934902,216.14221229659807" style="fill:rgba(1,1,1,0.6901960784313725)" />
   <polygon points="563.0573979823171,170.86141619277157 519.8918591706683,234.103949800536 586.1459419978502,216.03465448403185" style="fill:rgba(1,1,1,0.7294117647058823)" />
   <polygon points="695.1456365348488,187.96408343394432 629.9061149080591,165.88301457564623 631.9134848042679,231.122536202436" style="fill:rgba(1,1,1,0.6431372549019608)" />
   <polygon points="630.0550358656485,165.86046128317804 585.8685910446819,216.07233039791274 632.0635106302378,231.13589113233314" style="fill:rgba(1,1,1,0.6784313725490196)" />
   <polygon points="762.1171382408377,194.90630564300105 694.9047579368765,187.88411665602 687.8825689498955,254.0933271046982" style="fill:rgba(1,1,1,0.6274509803921569)" />
   <polygon points="695.0952307116545,187.8841073274198 631.8573744226973,231.04645368337466 688.0688022351037,254.13329010632728" style="fill:rgba(1,1,1,0.6666666666666666)" />
   <polygon points="833.0817027551855,171.87420389594627 761.8600551333507,194.94600523823075 791.9537090580696,258.1426784801405" style="fill:rgba(1,1,1,0.5529411764705883)" />
   <polygon points="762.0604570405294,194.8627231037267 687.8527058552959,254.02836256222366 792.1446804940024,258.0395923560201" style="fill:rgba(1,1,1,0.6313725490196078)" />
   <polygon points="833.0458652464581,171.8571841074413 791.9179224643808,258.12555189423773 851.1020352483457,253.1099491159356" style="fill:rgba(1,1,1,0.5294117647058824)" />
   <polygon points="851.1490471549928,252.9831196685885 791.8502377743332,258.00844249745796 810.9464645240371,284.1401212075791" style="fill:rgba(1,1,1,0.6235294117647059)" />
   <polygon points="792.1498180781014,257.9926146446252 687.8511917810356,253.981129017815 786.132589637886,285.0701426255942" style="fill:rgba(1,1,1,0.7019607843137254)" />
   <polygon points="811.1165349852964,284.0944436191702 791.9454177672403,257.8602832155145 785.8913807510121,285.1034497885416" style="fill:rgba(1,1,1,0.6352941176470588)" />
   <polygon points="811.0316544135593,283.85337804358755 785.9567356998697,284.8563747921351 820.0586251504875,379.13806915560804" style="fill:rgba(1,1,1,0.6627450980392157)" />
   <polygon points="820.0946695983534,379.1163514810718 785.9983330512754,284.85000926267946 776.9728322005783,390.14751918747936" style="fill:rgba(1,1,1,0.6705882352941176)" />
   <polygon points="786.1499917907211,285.0015693043975 687.8763924145081,253.9150225629424 691.8875597359862,320.09928336733066" style="fill:rgba(1,1,1,0.7019607843137254)" />
   <polygon points="777.0638813780025,390.1357172411468 786.0860456858119,284.8771336500373 691.8545518042472,319.96332818040713" style="fill:rgba(1,1,1,0.7294117647058823)" />
   <polygon points="684.8522138292961,358.02567582031185 777.0999525590262,390.1118458132614 691.8710635152538,319.9233489536842" style="fill:rgba(1,1,1,0.7725490196078432)" />
   <polygon points="688.148058803857,253.9759460897057 631.9115889689667,230.87882455037578 648.9833744545584,295.1490757902504" style="fill:rgba(1,1,1,0.7137254901960784)" />
   <polygon points="692.0435116679794,320.14355046063895 688.0258568151448,253.85224538886868 648.8537220000079,295.0332076304229" style="fill:rgba(1,1,1,0.7254901960784313)" />
   <polygon points="632.102355781946,230.89034921841488 585.9819578363638,215.8510890187685 573.9505496766467,327.14161449615153" style="fill:rgba(1,1,1,0.7411764705882353)" />
   <polygon points="649.1401502569805,295.05345938148076 632.0951480990245,230.88403949270543 573.9416113248219,327.13816932586843" style="fill:rgba(1,1,1,0.7529411764705882)" />
   <polygon points="685.0986223489643,358.1130204949766 692.1324213530695,319.929540186977 651.9392841867542,363.137162640766" style="fill:rgba(1,1,1,0.796078431372549)" />
   <polygon points="692.1453067304967,319.96277159589306 648.9604630681899,294.8553043503659 651.9733591376532,363.1476152581999" style="fill:rgba(1,1,1,0.7725490196078432)" />
   <polygon points="649.0955982985046,294.88441035806335 573.8504018570138,326.98902750643276 652.1054061561641,363.1067217983483" style="fill:rgba(1,1,1,0.8196078431372549)" />
   <polygon points="685.0667434561111,357.86566716311216 651.8964588209378,362.89146786541113 658.9325798041564,410.13399446702164" style="fill:rgba(1,1,1,0.8352941176470589)" />
   <polygon points="652.1343959916284,363.06661619498465 573.8621132033943,326.94094721579967 574.8656040083716,363.06661619498465" style="fill:rgba(1,1,1,0.8509803921568627)" />
   <polygon points="659.140263873684,410.05316056563987 652.1186848161942,362.90827260820805 574.8813151838058,362.90827260820805" style="fill:rgba(1,1,1,0.8823529411764706)" />
   <polygon points="575.1352028773147,363.0649629276268 574.1313881228475,326.9276317668131 510.89105859142353,373.1031104722973" style="fill:rgba(1,1,1,0.8862745098039215)" />
   <polygon points="586.0565484608339,215.8610673847604 519.8807463060061,233.90901342698615 525.8967283200814,309.10878860292684" style="fill:rgba(1,1,1,0.7764705882352941)" />
   <polygon points="574.0159456538876,327.14915004566575 586.0474533452903,215.85770390019132 525.8899148882771,309.1018885085618" style="fill:rgba(1,1,1,0.7725490196078432)" />
   <polygon points="510.8911953060831,373.10325472667944 574.1314838937818,326.92780591661375 525.9484068745828,308.85915203441414" style="fill:rgba(1,1,1,0.8705882352941177)" />
   <polygon points="520.1360587622205,233.93684928169034 415.8544009536424,243.96393176328436 422.87335869075827,287.08038643413875" style="fill:rgba(1,1,1,0.803921568627451)" />
   <polygon points="526.1211449819147,309.088452774727 520.1055417429194,233.89341228728628 422.8532893791627,287.03124089841106" style="fill:rgba(1,1,1,0.8117647058823529)" />
   <polygon points="411.8996094700312,390.11145286668625 511.1318201258998,373.07157830961785 422.92541065401656,286.8698599620956" style="fill:rgba(1,1,1,0.8352941176470589)" />
   <polygon points="511.1051824924872,373.1069422427022 526.1417474043985,308.9509319518804 422.8906683426073,286.89730341441043" style="fill:rgba(1,1,1,0.8431372549019608)" />
   <polygon points="416.12537305584755,243.9176495484685 354.8609847640885,249.94365495421528 354.8609847640885,276.0563450457847" style="fill:rgba(1,1,1,0.7490196078431373)" />
   <polygon points="423.132901676579,287.0695495820439 416.1039800682043,243.89188827345646 354.85194890951044,276.02410134031226" style="fill:rgba(1,1,1,0.7490196078431373)" />
   <polygon points="301.0832582372303,240.87522794410086 254.94549377471506,235.8602535460014 323.14914558886807,288.01598728623605" style="fill:rgba(1,1,1,0.6313725490196078)" />
   <polygon points="355.1446468153558,249.9602847786432 300.8760525437521,240.91551906670927 322.98547983959065,288.14929556236433" style="fill:rgba(1,1,1,0.6901960784313725)" />
   <polygon points="355.1307552018226,276.07350562697053 355.1307552018226,249.92649437302947 322.9498182738951,288.14135697494333" style="fill:rgba(1,1,1,0.7215686274509804)" />
   <polygon points="255.14145045155956,235.95008237031274 163.86347499726077,231.9378636690249 224.04675551657866,299.14252691559653" style="fill:rgba(1,1,1,0.5215686274509804)" />
   <polygon points="323.14945958216686,288.012721371723 254.9485633271581,235.85909482377514 223.85697826972765,299.04521929532734" style="fill:rgba(1,1,1,0.596078431372549)" />
   <polygon points="224.13482255863727,299.0657485945287 163.94946699896377,231.85876821955992 146.8969495903896,313.1089982251192" style="fill:rgba(1,1,1,0.5058823529411764)" />
   <polygon points="108.10812776641345,229.8960366115864 51.85438309414924,244.9640039345143 100.07187852751855,282.1316566644031" style="fill:rgba(1,1,1,0.30196078431372547)" />
   <polygon points="164.10662086720086,231.8944917506669 107.90117748145781,229.88715448689035 99.87182842635167,282.0779233450803" style="fill:rgba(1,1,1,0.4)" />
   <polygon points="147.01760575171494,313.1489632085669 164.07600991987582,231.8706845249768 99.8561354044466,282.0424614901559" style="fill:rgba(1,1,1,0.403921568627451)" />
   <polygon points="100.1479204227536,282.02489073185734 51.93827457804738,244.86328872656298 37.877127873341394,296.08603743656334" style="fill:rgba(1,1,1,0.2901960784313726)" />
   <polygon points="100.07858375113878,281.872232265196 37.874139031739084,295.9183972018346 56.93679144574867,362.136031903131" style="fill:rgba(1,1,1,0.3411764705882353)" />
   <polygon points="147.1397115721478,312.9454044268462 99.9951834252775,281.8500773512509 78.93060701922909,374.1329835110821" style="fill:rgba(1,1,1,0.42745098039215684)" />
   <polygon points="100.03248040884668,281.8535588068843 56.89578166226514,362.1078820563383 78.965720555865,374.1460305437564" style="fill:rgba(1,1,1,0.3803921568627451)" />
   <polygon points="224.10265171287216,298.89062621043223 146.8654184228238,312.9337595358956 179.96708983284452,382.14634521139345" style="fill:rgba(1,1,1,0.5529411764705883)" />
   <polygon points="147.0463954664872,312.85735547437974 78.85317266737164,374.0306876912334 180.1401653542933,382.053419785247" style="fill:rgba(1,1,1,0.4745098039215686)" />
   <polygon points="224.06653052978749,298.865561580617 179.9260722378316,382.1305169949883 228.0792994654198,381.1273247610802" style="fill:rgba(1,1,1,0.592156862745098)" />
   <polygon points="323.116264721271,287.9052238712134 223.86576648756295,298.93305700829205 315.0960224397592,371.11523754189795" style="fill:rgba(1,1,1,0.6352941176470588)" />
   <polygon points="223.88873100682912,298.8994057101087 227.89905006646563,381.11094643265744 315.12348961356,371.0851487835661" style="fill:rgba(1,1,1,0.6431372549019608)" />
   <polygon points="412.00988972637526,390.14967362263343 423.0412752916227,286.85579060258965 360.8643748329555,360.0640766265042" style="fill:rgba(1,1,1,0.7843137254901961)" />
   <polygon points="423.1207592306178,286.91102130468147 354.9134527529451,275.8774864332932 360.931744500975,360.1335709057125" style="fill:rgba(1,1,1,0.7725490196078432)" />
   <polygon points="355.0083273103869,275.8502313253657 322.8952479663873,287.89263607936556 361.02952968738686,360.14706460336475" style="fill:rgba(1,1,1,0.7372549019607844)" />
   <polygon points="322.97687103043137,287.85179389092656 314.9489899424485,371.1410601787486 361.10930619834994,360.1027236827722" style="fill:rgba(1,1,1,0.7372549019607844)" />
   <polygon points="9.8956253275692,30.107730811539515 84.1495467166238,2.0116524481134452 26.953958619649313,-43.142759207392736" style="fill:rgba(1,1,1,0.00392156862745098)" />
   <polygon points="101.92463221582348,44.12969077495459 155.1483389658187,7.977739020240855 92.88664427714505,-10.098236857116014" style="fill:rgba(1,1,1,0.10588235294117647)" />
   <polygon points="83.86206134107746,1.941068460272529 101.94754445364917,44.1405290562732 92.90480289736331,-10.115920281441946" style="fill:rgba(1,1,1,0.09411764705882353)" />
   <polygon points="26.86753981859176,-43.070386790957514 84.09920657938106,2.1125080201919353 93.13578554161096,-9.93626392944792" style="fill:rgba(1,1,1,0.0196078431372549)" />
   <polygon points="26.88712073723022,-42.90121603350464 92.98870038446557,-9.850426209886962 177.11798357185603,-46.90737237576133" style="fill:rgba(1,1,1,0)" />
   <polygon points="92.86929807962707,-9.926399673840205 155.07096804983783,8.132149672350018 177.1425283618481,-47.04675110767565" style="fill:rgba(1,1,1,0.10588235294117647)" />
   <polygon points="154.85006576725578,8.00444137944805 227.08367700720586,45.12449159997796 239.12261221386422,-20.086407436088095" style="fill:rgba(1,1,1,0.21176470588235294)" />
   <polygon points="176.93370062387106,-47.13455256491392 154.8591952345867,8.051710908297022 239.14367035730885,-20.043114132610363" style="fill:rgba(1,1,1,0.21176470588235294)" />
   <polygon points="226.8825847859151,45.09334702727671 302.13927531036023,34.05569908369142 238.92365526982633,-20.129118093909064" style="fill:rgba(1,1,1,0.3607843137254902)" />
   <polygon points="301.8651538183692,34.065700131655795 384.0665012405865,62.13445290997391 316.90198566389677,-39.11354818324499" style="fill:rgba(1,1,1,0.5137254901960784)" />
   <polygon points="238.85531622047165,-20.039580347919085 302.0612428042244,34.136928152440376 317.1102729432131,-39.10168519063816" style="fill:rgba(1,1,1,0.38823529411764707)" />
   <polygon points="176.90259695541044,-46.88592701062615 238.98283273900563,-19.850985620996 317.08377453127054,-38.87557400629129" style="fill:rgba(1,1,1,0)" />
   <polygon points="384.0116982897766,62.14954313764364 423.11054883838847,43.10138517806348 384.0116982897766,-56.14954313764364" style="fill:rgba(1,1,1,0.611764705882353)" />
   <polygon points="316.88888592896814,-39.100765387007286 384.0496307130036,62.14155137698643 384.0496307130036,-56.14155137698643" style="fill:rgba(1,1,1,0.5294117647058824)" />
   <polygon points="176.96113108214496,-46.85512347593635 317.02211247789427,-38.85163882475064 384.0512964315743,-55.85904370852023" style="fill:rgba(1,1,1,0)" />
   <polygon points="422.8995355527406,43.111386241685686 487.1359602791448,30.063362469134823 458.0288303249929,-27.147203302818937" style="fill:rgba(1,1,1,0.6078431372549019)" />
   <polygon points="383.9326801026105,-56.13404488582362 423.04219094311475,43.14394417084095 458.1404699025416,-27.05261374801278" style="fill:rgba(1,1,1,0.6078431372549019)" />
   <polygon points="486.85025107077695,30.00867514821429 572.1482724665078,34.02269968448398 515.9519289587322,-13.142088616684894" style="fill:rgba(1,1,1,0.5568627450980392)" />
   <polygon points="457.8896000766964,-27.101547313773256 487.01708371736413,30.149023979952958 516.1445673580318,-13.040003487244011" style="fill:rgba(1,1,1,0.5803921568627451)" />
   <polygon points="571.9622113093635,34.1451620296771 614.1339746505072,15.06745956582639 547.86406082871,-17.06340774171165" style="fill:rgba(1,1,1,0.5098039215686274)" />
   <polygon points="515.9206950541948,-13.127321347663408 572.139145979207,34.0560213929719 548.0455241542018,-17.14292498516428" style="fill:rgba(1,1,1,0.5372549019607843)" />
   <polygon points="457.9318182968033,-26.866391409897403 515.999724518371,-12.850000252967277 548.0371900199254,-16.854683440661603" style="fill:rgba(1,1,1,0)" />
   <polygon points="547.8501290283684,-16.99377972169398 614.087935989203,15.121520622953067 627.1347767542157,-37.06584243709838" style="fill:rgba(1,1,1,0.5098039215686274)" />
   <polygon points="383.92669090426233,-55.86913450996494 457.9648746201541,-26.85417062130466 627.0520779713124,-36.85933058291164" style="fill:rgba(1,1,1,0)" />
   <polygon points="457.9557422800703,-26.856677795765506 548.0117172916848,-16.85045835003055 627.0608509129909,-36.86289724150046" style="fill:rgba(1,1,1,0)" />
   <polygon points="613.8533195298232,15.031382155259312 698.0936147450857,45.117201874995885 706.1165000036821,-29.094486767020996" style="fill:rgba(1,1,1,0.42745098039215684)" />
   <polygon points="626.8946371598826,-37.10676456304588 613.8567906408159,15.044621513220488 706.1246275449795,-29.08347439746644" style="fill:rgba(1,1,1,0.42745098039215684)" />
   <polygon points="383.98052795546744,-55.85126923828011 626.9961184227539,-36.850050230550096 748.0038815772461,-36.850050230550096" style="fill:rgba(1,1,1,0)" />
   <polygon points="697.8831427734701,45.094044609668714 788.1476498720693,22.0264483511378 748.0300911615808,-37.1469507468328" style="fill:rgba(1,1,1,0.3176470588235294)" />
   <polygon points="705.9118594774817,-29.1213723538958 697.8879564305269,45.09973083043727 748.0373504739952,-37.14527540085073" style="fill:rgba(1,1,1,0.3176470588235294)" />
   <polygon points="626.9572303225304,-36.85622672470464 706.0130783311271,-28.85057123016321 748.0427696774696,-36.85622672470464" style="fill:rgba(1,1,1,0)" />
   <polygon points="787.8838843285201,22.094958679628395 844.0805144629486,31.126559951232977 855.1191382393542,-31.091137697598604" style="fill:rgba(1,1,1,0.2)" />
   <polygon points="747.8512557813264,-37.01936898064369 787.9629273200774,22.145346539014025 855.1499771474853,-31.00261824983104" style="fill:rgba(1,1,1,0.25098039215686274)" />
   <polygon points="854.9848431730956,-31.149232270632684 843.9344308490017,31.134909919714456 891.149828961039,-0.007161175459114322" style="fill:rgba(1,1,1,0.13725490196078433)" />
   <polygon points="891.0688779072967,-0.13325101833163444 843.8503933451973,31.010855820499962 906.1386070228605,41.057341897542415" style="fill:rgba(1,1,1,0.13725490196078433)" />
   <polygon points="850.9046875516373,107.88417453998753 832.8582849739608,172.04916148283695 900.0310056797564,95.85323948820326" style="fill:rgba(1,1,1,0.3333333333333333)" />
   <polygon points="843.9275805139791,30.868640120110953 850.9524555658611,108.14226569081268 906.1479024020766,75.02499758908337" style="fill:rgba(1,1,1,0.19215686274509805)" />
   <polygon points="850.926524007595,108.13077185683514 900.1255886123756,96.08202134137865 906.1499638701039,74.99670793932981" style="fill:rgba(1,1,1,0.26666666666666666)" />
   <polygon points="906.1345886227105,40.9337738523171 843.8930579664551,30.894817294856576 906.1345886227105,75.0662261476829" style="fill:rgba(1,1,1,0.19215686274509805)" />
   <polygon points="832.8931076631167,171.89476679081386 850.9477374775374,253.14060095570744 892.0721720548293,250.13149598663733" style="fill:rgba(1,1,1,0.4980392156862745)" />
   <polygon points="899.9777682295293,95.85165665373283 832.850039851244,171.9965425753699 891.9625170798832,250.14524128441846" style="fill:rgba(1,1,1,0.3333333333333333)" />
   <polygon points="905.8500033708401,40.99899439533303 905.8500033708401,75.00100560466697 918.850772362644,315.015202376436" style="fill:rgba(1,1,1,0.2)" />
   <polygon points="892.0535116354766,249.8598696861182 850.9266606439456,252.8691514659863 919.1370476542897,315.0609749165942" style="fill:rgba(1,1,1,0.5764705882352941)" />
   <polygon points="905.857183276665,74.95413734050616 899.8545111883792,95.96348964950647 918.8629728012843,315.06102087193824" style="fill:rgba(1,1,1,0.26666666666666666)" />
   <polygon points="899.859565779685,95.9472910845821 891.8548601788697,250.03787390027787 918.8707415816215,315.07610690690274" style="fill:rgba(1,1,1,0.3058823529411765)" />
   <polygon points="850.9826365119586,252.85100835834504 810.8600531033011,283.9460105000546 875.0561865571532,347.13907936869026" style="fill:rgba(1,1,1,0.611764705882353)" />
   <polygon points="919.1403602344508,315.05290561959674 850.9343905092925,252.86510969371707 875.0070857064072,347.149832549083" style="fill:rgba(1,1,1,0.5803921568627451)" />
   <polygon points="810.9470488584398,283.8596569324567 819.9743456660866,379.14778990206185 875.1411594905949,347.05073458598434" style="fill:rgba(1,1,1,0.6470588235294118)" />
   <polygon points="918.9842407860211,314.8508301398581 874.8629425935774,346.93904700708987 902.9401323524052,419.13753495836136" style="fill:rgba(1,1,1,0.6470588235294118)" />
   <polygon points="820.0719777944827,378.8683975794242 776.8736682646037,389.91912792427695 834.1365436879316,421.06209525977107" style="fill:rgba(1,1,1,0.7725490196078432)" />
   <polygon points="875.0444366008264,346.8567331562887 819.8534905092325,378.9678290641251 833.902094968911,421.11364244316036" style="fill:rgba(1,1,1,0.7098039215686275)" />
   <polygon points="903.1180396239288,419.09255618392496 875.0244952767596,346.85201357691847 833.8875196255476,421.09923792300845" style="fill:rgba(1,1,1,0.7019607843137254)" />
   <polygon points="834.1487387954262,421.01941058307136 776.9028714098553,389.885693233024 776.9028714098553,443.114306766976" style="fill:rgba(1,1,1,0.7843137254901961)" />
   <polygon points="903.0225862713219,418.8517102149581 833.9688623560652,420.8532674298931 776.9244817304184,442.87039679417785" style="fill:rgba(1,1,1,0.803921568627451)" />
   <polygon points="777.1494528350096,390.01280039482157 684.8748632148839,357.91729096173435 712.9584339688353,434.1441258653164" style="fill:rgba(1,1,1,0.8117647058823529)" />
   <polygon points="684.9545888782635,357.8570390611998 658.858384575918,410.0494476658909 713.0581935115587,434.13825163728677" style="fill:rgba(1,1,1,0.8274509803921568)" />
   <polygon points="777.1105681591445,443.1013641069778 777.1105681591445,389.8986358930222 712.8657642781413,434.06693856121177" style="fill:rgba(1,1,1,0.8235294117647058)" />
   <polygon points="713.1491104658475,433.9836883791497 658.9121882105272,409.8783895990074 655.8990258630093,463.11092440515506" style="fill:rgba(1,1,1,0.8745098039215686)" />
   <polygon points="777.0647772681936,442.86470807294825 712.9750480172771,433.8520898970381 655.8951329031796,462.8927484638596" style="fill:rgba(1,1,1,0.8745098039215686)" />
   <polygon points="659.1481374321233,410.02356482980815 574.9024187771541,362.88607939190865 559.8585404459096,419.04989182855485" style="fill:rgba(1,1,1,0.8901960784313725)" />
   <polygon points="656.1257182577798,463.081822488723 659.1341485710423,409.9328869544179 559.8559482333781,418.9581778942055" style="fill:rgba(1,1,1,0.9254901960784314)" />
   <polygon points="575.1196741525978,362.9095671674667 510.8584432937504,372.95038448916165 560.0584481700555,419.13814416895826" style="fill:rgba(1,1,1,0.9176470588235294)" />
   <polygon points="511.14786683747144,373.02520710963597 411.86901266333064,390.07309115974095 474.0436486107724,415.1435088804836" style="fill:rgba(1,1,1,0.8823529411764706)" />
   <polygon points="560.1495425685349,419.0117055626081 510.9788823758535,372.85149395315204 473.85001651607365,414.9977741183076" style="fill:rgba(1,1,1,0.9333333333333333)" />
   <polygon points="656.0897174616478,462.8797886150338 560.0324966516678,418.8535624104597 473.9812363427274,414.8511782100438" style="fill:rgba(1,1,1,0.9490196078431372)" />
   <polygon points="412.1478920222185,389.9749410741627 360.9500474102452,359.858561890649 377.0121163081192,435.1495098494333" style="fill:rgba(1,1,1,0.8313725490196079)" />
   <polygon points="361.0478424804814,359.85783426199896 314.89301856262074,370.8948573727917 377.10169427799815,435.11026456285873" style="fill:rgba(1,1,1,0.7843137254901961)" />
   <polygon points="474.13297330414025,414.9305874623283 411.95236916553034,389.85776321288876 376.85041521631507,434.98884686187984" style="fill:rgba(1,1,1,0.8627450980392157)" />
   <polygon points="656.079833444531,462.8730093659583 473.9931780963512,414.8501552081966 376.94699365254104,434.8596777739306" style="fill:rgba(1,1,1,0.8745098039215686)" />
   <polygon points="315.13880974169933,370.94315058831114 227.85191186111737,380.9761273561941 295.07285620593336,428.1311181652442" style="fill:rgba(1,1,1,0.7019607843137254)" />
   <polygon points="377.12795911753466,435.0782717333381 314.9258288692503,370.86962115446397 294.86062556335213,428.05545057627376" style="fill:rgba(1,1,1,0.7725490196078432)" />
   <polygon points="656.0292633068154,462.85288215990477 377.0005548680492,434.8500010262651 218.98429704251132,442.8508242073051" style="fill:rgba(1,1,1,0.7176470588235294)" />
   <polygon points="377.03411390086944,434.8539306953277 294.9911379408623,427.85026201581485 218.95130656329468,442.85812347191376" style="fill:rgba(1,1,1,0.7176470588235294)" />
   <polygon points="228.09573161526527,380.8845207471504 179.89954190098504,381.88860803286457 219.05894604383772,443.13793246142905" style="fill:rgba(1,1,1,0.6509803921568628)" />
   <polygon points="295.14445673161487,428.04040114715133 227.912838493156,380.8779226813667 218.88172559545256,443.09225597665704" style="fill:rgba(1,1,1,0.6980392156862745)" />
   <polygon points="180.14929333260494,382.0145430684419 78.85027880066063,373.99085874908 151.06343767491796,423.1359252051718" style="fill:rgba(1,1,1,0.5294117647058824)" />
   <polygon points="219.11735122317288,443.09342746073736 179.96444960564517,381.85427364870685 150.85075353107328,423.01501637482573" style="fill:rgba(1,1,1,0.6196078431372549)" />
   <polygon points="151.1345042593341,423.06639732088706 78.88888268293923,373.8992381925072 86.91617396920532,440.1243913042025" style="fill:rgba(1,1,1,0.5294117647058824)" />
   <polygon points="219.08074320781705,442.87358586158416 151.00055476645537,422.8500010258896 86.92508329223263,439.87004813622997" style="fill:rgba(1,1,1,0.5647058823529412)" />
   <polygon points="79.11002734085987,373.8980491085703 57.026147730545404,361.85229659385334 24.904141024633454,431.115373553476" style="fill:rgba(1,1,1,0.4235294117647059)" />
   <polygon points="87.10057104667153,440.11129000211787 79.07106983938411,373.8679050419966 24.871936690194012,431.0781011439195" style="fill:rgba(1,1,1,0.4392156862745098)" />
   <polygon points="87.0311624169467,439.85327268907923 25.011842930959787,430.850468247565 -35.006853345801744,429.8501566429523" style="fill:rgba(1,1,1,0.43529411764705883)" />
   <polygon points="57.1360164031055,362.06324190134904 38.08157194017873,295.87411903012975 -34.12474391933323,369.0833003876905" style="fill:rgba(1,1,1,0.2823529411764706)" />
   <polygon points="25.037051531926068,431.1453519314696 57.13488949078259,361.93438883268516 -34.14333720471565,368.95579088618507" style="fill:rgba(1,1,1,0.3686274509803922)" />
   <polygon points="-35.10693941859464,430.1051853637662 25.10337481918083,431.1086906010625 -34.10343418129838,368.8913658886945" style="fill:rgba(1,1,1,0.3803921568627451)" />
   <polygon points="-34.110237141641825,369.10172400209706 38.10019388609398,295.88837032119824 -24.081010610011848,290.87375705538324" style="fill:rgba(1,1,1,0.27450980392156865)" />
   <polygon points="38.08201286961314,296.1255941448389 52.13464046844818,244.93387932051127 -22.143533982537033,250.95643400572627" style="fill:rgba(1,1,1,0.2196078431372549)" />
   <polygon points="-24.130686128662568,291.07362836257306 38.11719843385036,296.0936190530983 -22.12268985245247,250.9137028383712" style="fill:rgba(1,1,1,0.2235294117647059)" />
   <polygon points="-33.85239393318659,369.0266917410423 -23.85043437583488,291.0114071936985 -21.850042464364492,251.0035689642915" style="fill:rgba(1,1,1,0)" />
   <polygon points="51.11665101398962,160.09430027006957 57.13960133729424,120.94512316858949 -15.135802542361294,152.06369983899674" style="fill:rgba(1,1,1,0.08235294117647059)" />
   <polygon points="52.1029782163999,245.1090664336407 51.10038380038111,159.88854107204423 -15.070847656858476,151.867785743894" style="fill:rgba(1,1,1,0.11372549019607843)" />
   <polygon points="-22.08642020754233,251.1226032125531 52.10504310264466,245.10707916037578 -15.068308813335445,151.86645635162728" style="fill:rgba(1,1,1,0.11372549019607843)" />
   <polygon points="57.05067351949953,121.14118142378348 9.914206264190401,29.876957589036003 -10.143864908281572,87.04246043058113" style="fill:rgba(1,1,1,0.011764705882352941)" />
   <polygon points="-15.104571102932901,152.10754015264726 57.14998584362946,120.99793924509957 -10.086893537199405,86.8777317981118" style="fill:rgba(1,1,1,0.054901960784313725)" />
   <polygon points="-33.851284252938285,369.01958638751444 -21.850385865513772,251.0107522445074 -19.85023613427643,-5.008413353880755" style="fill:rgba(1,1,1,0)" />
   <polygon points="-21.85091051363611,251.0165022742604 -14.850071794604446,152.00464039081348 -19.850670879626932,-5.0141708788952855" style="fill:rgba(1,1,1,0)" />
   <polygon points="9.970187629730962,30.14700755959794 27.038201925376672,-43.145053827586565 -20.149837597879117,-4.993021872613813" style="fill:rgba(1,1,1,0.004139433551198257)" />
   <polygon points="-9.911266937476935,87.1209398346918 10.144846072410388,29.961017756512923 -19.939323442420598,-5.137180010789891" style="fill:rgba(1,1,1,0)" />
   <polygon points="-14.851756967698634,152.02289111998317 -9.85000000855183,87.0000506510745 -19.853513926845494,-5.032277397226963" style="fill:rgba(1,1,1,0)" />
</svg>