<?xml version="1.0" standalone="yes"?>
<!DOCTYPE svg PUBLIC "-//W3C//DTD SVG 1.1//EN" 
   "http://www.w3.org/Graphics/SVG/1.1/DTD/svg11.dtd">
<svg width="4265" height="2050" version="1.1" 
   xmlns="http://www.w3.org/2000/svg">
   <polygon points="50,150 510,220 420,10" style="fill:rgba(1,1,1,0.00392156862745098)" />
   <polygon points="775,40 510,220 810,440" style="fill:rgba(1,1,1,0.10588235294117647)" />
   <polygon points="1135,225 775,40 810,440" style="fill:rgba(1,1,1,0.32941176470588235)" />
   <polygon points="810,440 510,220 605,455" style="fill:rgba(1,1,1,0.2196078431372549)" />
   <polygon points="510,220 50,150 285,605" style="fill:rgba(1,1,1,0.023529411764705882)" />
   <polygon points="605,455 510,220 285,605" style="fill:rgba(1,1,1,0.0196078431372549)" />
   <polygon points="810,440 605,455 600,830" style="fill:rgba(1,1,1,0.16862745098039217)" />
   <polygon points="605,455 285,605 600,830" style="fill:rgba(1,1,1,0.0196078431372549)" />
   <polygon points="285,605 255,800 600,830" style="fill:rgba(1,1,1,0.054901960784313725)" />
   <polygon points="1135,225 810,440 1250,445" style="fill:rgba(1,1,1,0.2235294117647059)" />
   <polygon points="1135,225 1250,445 1510,170" style="fill:rgba(1,1,1,0.21176470588235294)" />
   <polygon points="1510,170 1250,445 1595,400" style="fill:rgba(1,1,1,0.3607843137254902)" />
   <polygon points="1250,445 810,440 1230,710" style="fill:rgba(1,1,1,0.43529411764705883)" />
   <polygon points="1595,400 1250,445 1230,710" style="fill:rgba(1,1,1,0.403921568627451)" />
   <polygon points="1760,500 1595,400 1535,920" style="fill:rgba(1,1,1,0.4588235294117647)" />
   <polygon points="1595,400 1230,710 1535,920" style="fill:rgba(1,1,1,0.403921568627451)" />
   <polygon points="1230,710 1275,1180 1535,920" style="fill:rgba(1,1,1,0.7490196078431373)" />
   <polygon points="1535,920 1275,1180 1505,1205" style="fill:rgba(1,1,1,0.5529411764705883)" />
   <polygon points="1760,500 1535,920 1735,970" style="fill:rgba(1,1,1,0.5058823529411764)" />
   <polygon points="1535,920 1505,1205 1735,970" style="fill:rgba(1,1,1,0.5529411764705883)" />
   <polygon points="1505,1205 1775,1250 1735,970" style="fill:rgba(1,1,1,0.596078431372549)" />
   <polygon points="1760,500 1735,970 2065,810" style="fill:rgba(1,1,1,0.5764705882352941)" />
   <polygon points="1760,500 2065,810 2075,420" style="fill:rgba(1,1,1,0.5803921568627451)" />
   <polygon points="1510,170 1595,400 1920,310" style="fill:rgba(1,1,1,0.7372549019607844)" />
   <polygon points="1595,400 1760,500 1920,310" style="fill:rgba(1,1,1,0.5411764705882353)" />
   <polygon points="1760,500 2075,420 1920,310" style="fill:rgba(1,1,1,0.5411764705882353)" />
   <polygon points="1920,310 2075,420 2115,215" style="fill:rgba(1,1,1,0.6235294117647059)" />
   <polygon points="3090,500 3070,75 2860,170" style="fill:rgba(1,1,1,0.5098039215686274)" />
   <polygon points="3070,75 3090,500 3490,225" style="fill:rgba(1,1,1,0.6313725490196078)" />
   <polygon points="3940,110 3490,225 3875,480" style="fill:rgba(1,1,1,0.42745098039215684)" />
   <polygon points="4220,155 3940,110 3875,480" style="fill:rgba(1,1,1,0.3176470588235294)" />
   <polygon points="4255,540 4220,155 3875,480" style="fill:rgba(1,1,1,0.3568627450980392)" />
   <polygon points="4255,540 3875,480 4165,860" style="fill:rgba(1,1,1,0.6078431372549019)" />
   <polygon points="4165,860 3875,480 3810,975" style="fill:rgba(1,1,1,0.43137254901960786)" />
   <polygon points="3490,225 3090,500 3420,640" style="fill:rgba(1,1,1,0.4627450980392157)" />
   <polygon points="3875,480 3490,225 3420,640" style="fill:rgba(1,1,1,0.4627450980392157)" />
   <polygon points="3810,975 3875,480 3420,640" style="fill:rgba(1,1,1,0.5098039215686274)" />
   <polygon points="3475,940 3810,975 3420,640" style="fill:rgba(1,1,1,0.6745098039215687)" />
   <polygon points="3090,500 2860,170 2885,575" style="fill:rgba(1,1,1,0.6980392156862745)" />
   <polygon points="2115,215 2075,420 2530,445" style="fill:rgba(1,1,1,0.611764705882353)" />
   <polygon points="2435,150 2115,215 2530,445" style="fill:rgba(1,1,1,0.6078431372549019)" />
   <polygon points="2075,420 2065,810 2530,445" style="fill:rgba(1,1,1,0.615686274509804)" />
   <polygon points="2860,170 2435,150 2530,445" style="fill:rgba(1,1,1,0.7725490196078432)" />
   <polygon points="2885,575 2860,170 2530,445" style="fill:rgba(1,1,1,0.592156862745098)" />
   <polygon points="2530,445 2065,810 2435,880" style="fill:rgba(1,1,1,0.6313725490196078)" />
   <polygon points="2885,575 2530,445 2815,855" style="fill:rgba(1,1,1,0.7686274509803922)" />
   <polygon points="2530,445 2435,880 2815,855" style="fill:rgba(1,1,1,0.7019607843137254)" />
   <polygon points="3475,940 3420,640 3150,830" style="fill:rgba(1,1,1,0.5764705882352941)" />
   <polygon points="3420,640 3090,500 3150,830" style="fill:rgba(1,1,1,0.7725490196078432)" />
   <polygon points="3090,500 2885,575 3150,830" style="fill:rgba(1,1,1,0.5294117647058824)" />
   <polygon points="2885,575 2815,855 3150,830" style="fill:rgba(1,1,1,0.6431372549019608)" />
   <polygon points="810,440 600,830 970,965" style="fill:rgba(1,1,1,0.16862745098039217)" />
   <polygon points="1230,710 810,440 970,965" style="fill:rgba(1,1,1,0.43529411764705883)" />
   <polygon points="1275,1180 1230,710 970,965" style="fill:rgba(1,1,1,0.3411764705882353)" />
   <polygon points="600,830 255,800 540,1150" style="fill:rgba(1,1,1,0.30196078431372547)" />
   <polygon points="255,800 260,1225 540,1150" style="fill:rgba(1,1,1,0.30196078431372547)" />
   <polygon points="970,965 600,830 820,1160" style="fill:rgba(1,1,1,0.5098039215686274)" />
   <polygon points="600,830 540,1150 820,1160" style="fill:rgba(1,1,1,0.20784313725490197)" />
   <polygon points="1275,1180 970,965 820,1160" style="fill:rgba(1,1,1,0.3568627450980392)" />
   <polygon points="1735,970 1775,1250 2080,1220" style="fill:rgba(1,1,1,0.7764705882352941)" />
   <polygon points="2065,810 1735,970 2080,1220" style="fill:rgba(1,1,1,0.592156862745098)" />
   <polygon points="2435,880 2065,810 2080,1220" style="fill:rgba(1,1,1,0.8823529411764706)" />
   <polygon points="2815,855 2435,880 2600,1170" style="fill:rgba(1,1,1,0.7058823529411765)" />
   <polygon points="2435,880 2080,1220 2600,1170" style="fill:rgba(1,1,1,0.7568627450980392)" />
   <polygon points="3150,830 2815,855 2930,1080" style="fill:rgba(1,1,1,0.6431372549019608)" />
   <polygon points="2815,855 2600,1170 2930,1080" style="fill:rgba(1,1,1,0.6588235294117647)" />
   <polygon points="3475,940 3150,830 3160,1155" style="fill:rgba(1,1,1,0.803921568627451)" />
   <polygon points="3150,830 2930,1080 3160,1155" style="fill:rgba(1,1,1,0.6352941176470588)" />
   <polygon points="3810,975 3475,940 3440,1270" style="fill:rgba(1,1,1,0.6431372549019608)" />
   <polygon points="3475,940 3160,1155 3440,1270" style="fill:rgba(1,1,1,0.6431372549019608)" />
   <polygon points="4165,860 3810,975 3960,1290" style="fill:rgba(1,1,1,0.5215686274509804)" />
   <polygon points="3810,975 3440,1270 3960,1290" style="fill:rgba(1,1,1,0.6666666666666666)" />
   <polygon points="4165,860 3960,1290 4255,1265" style="fill:rgba(1,1,1,0.43137254901960786)" />
   <polygon points="4255,1265 3960,1290 4055,1420" style="fill:rgba(1,1,1,0.5529411764705883)" />
   <polygon points="3960,1290 3440,1270 3930,1425" style="fill:rgba(1,1,1,0.807843137254902)" />
   <polygon points="4055,1420 3960,1290 3930,1425" style="fill:rgba(1,1,1,0.7019607843137254)" />
   <polygon points="4055,1420 3930,1425 4100,1895" style="fill:rgba(1,1,1,0.7568627450980392)" />
   <polygon points="4100,1895 3930,1425 3885,1950" style="fill:rgba(1,1,1,0.7019607843137254)" />
   <polygon points="3930,1425 3440,1270 3460,1600" style="fill:rgba(1,1,1,0.807843137254902)" />
   <polygon points="3885,1950 3930,1425 3460,1600" style="fill:rgba(1,1,1,0.7019607843137254)" />
   <polygon points="3425,1790 3885,1950 3460,1600" style="fill:rgba(1,1,1,0.7725490196078432)" />
   <polygon points="3440,1270 3160,1155 3245,1475" style="fill:rgba(1,1,1,0.8980392156862745)" />
   <polygon points="3460,1600 3440,1270 3245,1475" style="fill:rgba(1,1,1,0.7137254901960784)" />
   <polygon points="3160,1155 2930,1080 2870,1635" style="fill:rgba(1,1,1,0.7294117647058823)" />
   <polygon points="3245,1475 3160,1155 2870,1635" style="fill:rgba(1,1,1,0.7764705882352941)" />
   <polygon points="3425,1790 3460,1600 3260,1815" style="fill:rgba(1,1,1,0.7725490196078432)" />
   <polygon points="3460,1600 3245,1475 3260,1815" style="fill:rgba(1,1,1,0.9254901960784314)" />
   <polygon points="3245,1475 2870,1635 3260,1815" style="fill:rgba(1,1,1,0.7725490196078432)" />
   <polygon points="3425,1790 3260,1815 3295,2050" style="fill:rgba(1,1,1,0.7725490196078432)" />
   <polygon points="3260,1815 2870,1635 2875,1815" style="fill:rgba(1,1,1,0.8784313725490196)" />
   <polygon points="3295,2050 3260,1815 2875,1815" style="fill:rgba(1,1,1,0.8901960784313725)" />
   <polygon points="2875,1815 2870,1635 2555,1865" style="fill:rgba(1,1,1,0.8431372549019608)" />
   <polygon points="2930,1080 2600,1170 2630,1545" style="fill:rgba(1,1,1,0.7490196078431373)" />
   <polygon points="2870,1635 2930,1080 2630,1545" style="fill:rgba(1,1,1,0.7490196078431373)" />
   <polygon points="2555,1865 2870,1635 2630,1545" style="fill:rgba(1,1,1,0.8431372549019608)" />
   <polygon points="2600,1170 2080,1220 2115,1435" style="fill:rgba(1,1,1,0.7568627450980392)" />
   <polygon points="2630,1545 2600,1170 2115,1435" style="fill:rgba(1,1,1,0.7568627450980392)" />
   <polygon points="2060,1950 2555,1865 2115,1435" style="fill:rgba(1,1,1,0.7725490196078432)" />
   <polygon points="2555,1865 2630,1545 2115,1435" style="fill:rgba(1,1,1,0.8352941176470589)" />
   <polygon points="2080,1220 1775,1250 1775,1380" style="fill:rgba(1,1,1,0.7058823529411765)" />
   <polygon points="2115,1435 2080,1220 1775,1380" style="fill:rgba(1,1,1,0.7058823529411765)" />
   <polygon points="1505,1205 1275,1180 1615,1440" style="fill:rgba(1,1,1,0.7254901960784313)" />
   <polygon points="1775,1250 1505,1205 1615,1440" style="fill:rgba(1,1,1,0.8705882352941177)" />
   <polygon points="1775,1380 1775,1250 1615,1440" style="fill:rgba(1,1,1,0.6901960784313725)" />
   <polygon points="1275,1180 820,1160 1120,1495" style="fill:rgba(1,1,1,0.6509803921568628)" />
   <polygon points="1615,1440 1275,1180 1120,1495" style="fill:rgba(1,1,1,0.5215686274509804)" />
   <polygon points="1120,1495 820,1160 735,1565" style="fill:rgba(1,1,1,0.4)" />
   <polygon points="540,1150 260,1225 500,1410" style="fill:rgba(1,1,1,0.20784313725490197)" />
   <polygon points="820,1160 540,1150 500,1410" style="fill:rgba(1,1,1,0.20784313725490197)" />
   <polygon points="735,1565 820,1160 500,1410" style="fill:rgba(1,1,1,0.3607843137254902)" />
   <polygon points="500,1410 260,1225 190,1480" style="fill:rgba(1,1,1,0.11372549019607843)" />
   <polygon points="500,1410 190,1480 285,1810" style="fill:rgba(1,1,1,0.2196078431372549)" />
   <polygon points="735,1565 500,1410 395,1870" style="fill:rgba(1,1,1,0.2901960784313726)" />
   <polygon points="500,1410 285,1810 395,1870" style="fill:rgba(1,1,1,0.2901960784313726)" />
   <polygon points="1120,1495 735,1565 900,1910" style="fill:rgba(1,1,1,0.403921568627451)" />
   <polygon points="735,1565 395,1870 900,1910" style="fill:rgba(1,1,1,0.3411764705882353)" />
   <polygon points="1120,1495 900,1910 1140,1905" style="fill:rgba(1,1,1,0.5058823529411764)" />
   <polygon points="1615,1440 1120,1495 1575,1855" style="fill:rgba(1,1,1,0.5215686274509804)" />
   <polygon points="1120,1495 1140,1905 1575,1855" style="fill:rgba(1,1,1,0.7058823529411765)" />
   <polygon points="2060,1950 2115,1435 1805,1800" style="fill:rgba(1,1,1,0.7725490196078432)" />
   <polygon points="2115,1435 1775,1380 1805,1800" style="fill:rgba(1,1,1,0.8431372549019608)" />
   <polygon points="1775,1380 1615,1440 1805,1800" style="fill:rgba(1,1,1,0.6901960784313725)" />
   <polygon points="1615,1440 1575,1855 1805,1800" style="fill:rgba(1,1,1,0.596078431372549)" />
   <polygon points="50,150 420,10 135,-215" style="fill:rgba(1,1,1,0.00392156862745098)" />
   <polygon points="510,220 775,40 465,-50" style="fill:rgba(1,1,1,0.09411764705882353)" />
   <polygon points="420,10 510,220 465,-50" style="fill:rgba(1,1,1,0.0196078431372549)" />
   <polygon points="135,-215 420,10 465,-50" style="fill:rgba(1,1,1,0.00392156862745098)" />
   <polygon points="135,-215 465,-50 885,-235" style="fill:rgba(1,1,1,0)" />
   <polygon points="465,-50 775,40 885,-235" style="fill:rgba(1,1,1,0.09411764705882353)" />
   <polygon points="775,40 1135,225 1195,-100" style="fill:rgba(1,1,1,0.10588235294117647)" />
   <polygon points="885,-235 775,40 1195,-100" style="fill:rgba(1,1,1,0.10588235294117647)" />
   <polygon points="1135,225 1510,170 1195,-100" style="fill:rgba(1,1,1,0.21176470588235294)" />
   <polygon points="1510,170 1920,310 1585,-195" style="fill:rgba(1,1,1,0.38823529411764707)" />
   <polygon points="1195,-100 1510,170 1585,-195" style="fill:rgba(1,1,1,0.3607843137254902)" />
   <polygon points="885,-235 1195,-100 1585,-195" style="fill:rgba(1,1,1,0)" />
   <polygon points="1920,310 2115,215 1920,-280" style="fill:rgba(1,1,1,0.6235294117647059)" />
   <polygon points="1585,-195 1920,310 1920,-280" style="fill:rgba(1,1,1,0.5137254901960784)" />
   <polygon points="885,-235 1585,-195 1920,-280" style="fill:rgba(1,1,1,0)" />
   <polygon points="2115,215 2435,150 2290,-135" style="fill:rgba(1,1,1,0.6078431372549019)" />
   <polygon points="1920,-280 2115,215 2290,-135" style="fill:rgba(1,1,1,0.6235294117647059)" />
   <polygon points="2435,150 2860,170 2580,-65" style="fill:rgba(1,1,1,0.5803921568627451)" />
   <polygon points="2290,-135 2435,150 2580,-65" style="fill:rgba(1,1,1,0.6078431372549019)" />
   <polygon points="2860,170 3070,75 2740,-85" style="fill:rgba(1,1,1,0.5372549019607843)" />
   <polygon points="2580,-65 2860,170 2740,-85" style="fill:rgba(1,1,1,0.5568627450980392)" />
   <polygon points="2290,-135 2580,-65 2740,-85" style="fill:rgba(1,1,1,0)" />
   <polygon points="2740,-85 3070,75 3135,-185" style="fill:rgba(1,1,1,0.5372549019607843)" />
   <polygon points="1920,-280 2290,-135 3135,-185" style="fill:rgba(1,1,1,0)" />
   <polygon points="2290,-135 2740,-85 3135,-185" style="fill:rgba(1,1,1,0)" />
   <polygon points="3070,75 3490,225 3530,-145" style="fill:rgba(1,1,1,0.5098039215686274)" />
   <polygon points="3135,-185 3070,75 3530,-145" style="fill:rgba(1,1,1,0.5098039215686274)" />
   <polygon points="1920,-280 3135,-185 3740,-185" style="fill:rgba(1,1,1,0)" />
   <polygon points="3490,225 3940,110 3740,-185" style="fill:rgba(1,1,1,0.42745098039215684)" />
   <polygon points="3530,-145 3490,225 3740,-185" style="fill:rgba(1,1,1,0.42745098039215684)" />
   <polygon points="3135,-185 3530,-145 3740,-185" style="fill:rgba(1,1,1,0)" />
   <polygon points="3940,110 4220,155 4275,-155" style="fill:rgba(1,1,1,0.25098039215686274)" />
   <polygon points="3740,-185 3940,110 4275,-155" style="fill:rgba(1,1,1,0.3176470588235294)" />
   <polygon points="4275,-155 4220,155 4455,0" style="fill:rgba(1,1,1,0.2)" />
   <polygon points="4455,0 4220,155 4530,205" style="fill:rgba(1,1,1,0.2)" />
   <polygon points="4255,540 4165,860 4500,480" style="fill:rgba(1,1,1,0.27450980392156865)" />
   <polygon points="4220,155 4255,540 4530,375" style="fill:rgba(1,1,1,0.32941176470588235)" />
   <polygon points="4255,540 4500,480 4530,375" style="fill:rgba(1,1,1,0.19215686274509805)" />
   <polygon points="4530,205 4220,155 4530,375" style="fill:rgba(1,1,1,0.32941176470588235)" />
   <polygon points="4165,860 4255,1265 4460,1250" style="fill:rgba(1,1,1,0.5764705882352941)" />
   <polygon points="4500,480 4165,860 4460,1250" style="fill:rgba(1,1,1,0.27450980392156865)" />
   <polygon points="4530,205 4530,375 4595,1575" style="fill:rgba(1,1,1,0.19215686274509805)" />
   <polygon points="4460,1250 4255,1265 4595,1575" style="fill:rgba(1,1,1,0.4980392156862745)" />
   <polygon points="4530,375 4500,480 4595,1575" style="fill:rgba(1,1,1,0.19215686274509805)" />
   <polygon points="4500,480 4460,1250 4595,1575" style="fill:rgba(1,1,1,0.19215686274509805)" />
   <polygon points="4255,1265 4055,1420 4375,1735" style="fill:rgba(1,1,1,0.5294117647058824)" />
   <polygon points="4595,1575 4255,1265 4375,1735" style="fill:rgba(1,1,1,0.6941176470588235)" />
   <polygon points="4055,1420 4100,1895 4375,1735" style="fill:rgba(1,1,1,0.7843137254901961)" />
   <polygon points="4595,1575 4375,1735 4515,2095" style="fill:rgba(1,1,1,0.611764705882353)" />
   <polygon points="4100,1895 3885,1950 4170,2105" style="fill:rgba(1,1,1,0.7294117647058823)" />
   <polygon points="4375,1735 4100,1895 4170,2105" style="fill:rgba(1,1,1,0.6470588235294118)" />
   <polygon points="4515,2095 4375,1735 4170,2105" style="fill:rgba(1,1,1,0.6470588235294118)" />
   <polygon points="4170,2105 3885,1950 3885,2215" style="fill:rgba(1,1,1,0.8901960784313725)" />
   <polygon points="4515,2095 4170,2105 3885,2215" style="fill:rgba(1,1,1,0.8509803921568627)" />
   <polygon points="3885,1950 3425,1790 3565,2170" style="fill:rgba(1,1,1,0.8784313725490196)" />
   <polygon points="3425,1790 3295,2050 3565,2170" style="fill:rgba(1,1,1,0.796078431372549)" />
   <polygon points="3885,2215 3885,1950 3565,2170" style="fill:rgba(1,1,1,0.8117647058823529)" />
   <polygon points="3565,2170 3295,2050 3280,2315" style="fill:rgba(1,1,1,0.8901960784313725)" />
   <polygon points="3885,2215 3565,2170 3280,2315" style="fill:rgba(1,1,1,0.8901960784313725)" />
   <polygon points="3295,2050 2875,1815 2800,2095" style="fill:rgba(1,1,1,0.8862745098039215)" />
   <polygon points="3280,2315 3295,2050 2800,2095" style="fill:rgba(1,1,1,0.9176470588235294)" />
   <polygon points="2875,1815 2555,1865 2800,2095" style="fill:rgba(1,1,1,0.8431372549019608)" />
   <polygon points="2555,1865 2060,1950 2370,2075" style="fill:rgba(1,1,1,0.7843137254901961)" />
   <polygon points="2800,2095 2555,1865 2370,2075" style="fill:rgba(1,1,1,0.8352941176470589)" />
   <polygon points="3280,2315 2800,2095 2370,2075" style="fill:rgba(1,1,1,0.8823529411764706)" />
   <polygon points="2060,1950 1805,1800 1885,2175" style="fill:rgba(1,1,1,0.9372549019607843)" />
   <polygon points="1805,1800 1575,1855 1885,2175" style="fill:rgba(1,1,1,0.6352941176470588)" />
   <polygon points="2370,2075 2060,1950 1885,2175" style="fill:rgba(1,1,1,0.8313725490196079)" />
   <polygon points="3280,2315 2370,2075 1885,2175" style="fill:rgba(1,1,1,0.8313725490196079)" />
   <polygon points="1575,1855 1140,1905 1475,2140" style="fill:rgba(1,1,1,0.6431372549019608)" />
   <polygon points="1885,2175 1575,1855 1475,2140" style="fill:rgba(1,1,1,0.6431372549019608)" />
   <polygon points="3280,2315 1885,2175 1095,2215" style="fill:rgba(1,1,1,0.6509803921568628)" />
   <polygon points="1885,2175 1475,2140 1095,2215" style="fill:rgba(1,1,1,0.6509803921568628)" />
   <polygon points="1140,1905 900,1910 1095,2215" style="fill:rgba(1,1,1,0.5529411764705883)" />
   <polygon points="1475,2140 1140,1905 1095,2215" style="fill:rgba(1,1,1,0.6980392156862745)" />
   <polygon points="900,1910 395,1870 755,2115" style="fill:rgba(1,1,1,0.6823529411764706)" />
   <polygon points="1095,2215 900,1910 755,2115" style="fill:rgba(1,1,1,0.5294117647058824)" />
   <polygon points="755,2115 395,1870 435,2200" style="fill:rgba(1,1,1,0.6823529411764706)" />
   <polygon points="1095,2215 755,2115 435,2200" style="fill:rgba(1,1,1,0.5294117647058824)" />
   <polygon points="395,1870 285,1810 125,2155" style="fill:rgba(1,1,1,0.2823529411764706)" />
   <polygon points="435,2200 395,1870 125,2155" style="fill:rgba(1,1,1,0.3686274509803922)" />
   <polygon points="435,2200 125,2155 -175,2150" style="fill:rgba(1,1,1,0.3803921568627451)" />
   <polygon points="285,1810 190,1480 -170,1845" style="fill:rgba(1,1,1,0.27450980392156865)" />
   <polygon points="125,2155 285,1810 -170,1845" style="fill:rgba(1,1,1,0.2823529411764706)" />
   <polygon points="-175,2150 125,2155 -170,1845" style="fill:rgba(1,1,1,0.3686274509803922)" />
   <polygon points="-170,1845 190,1480 -120,1455" style="fill:rgba(1,1,1,0.2235294117647059)" />
   <polygon points="190,1480 260,1225 -110,1255" style="fill:rgba(1,1,1,0.11372549019607843)" />
   <polygon points="-120,1455 190,1480 -110,1255" style="fill:rgba(1,1,1,0.2196078431372549)" />
   <polygon points="-170,1845 -120,1455 -110,1255" style="fill:rgba(1,1,1,0)" />
   <polygon points="255,800 285,605 -75,760" style="fill:rgba(1,1,1,0.054901960784313725)" />
   <polygon points="260,1225 255,800 -75,760" style="fill:rgba(1,1,1,0.08235294117647059)" />
   <polygon points="-110,1255 260,1225 -75,760" style="fill:rgba(1,1,1,0.08235294117647059)" />
   <polygon points="285,605 50,150 -50,435" style="fill:rgba(1,1,1,0)" />
   <polygon points="-75,760 285,605 -50,435" style="fill:rgba(1,1,1,0.011764705882352941)" />
   <polygon points="-170,1845 -110,1255 -100,-25" style="fill:rgba(1,1,1,0)" />
   <polygon points="-110,1255 -75,760 -100,-25" style="fill:rgba(1,1,1,0)" />
   <polygon points="50,150 135,-215 -100,-25" style="fill:rgba(1,1,1,0.00392156862745098)" />
   <polygon points="-50,435 50,150 -100,-25" style="fill:rgba(1,1,1,0.00392156862745098)" />
   <polygon points="-75,760 -50,435 -100,-25" style="fill:rgba(1,1,1,0)" />
</svg>