<svg id="Ebene_1" data-name="Ebene 1" xmlns="http://www.w3.org/2000/svg" viewBox="0 0 200 12"><defs><style>.cls-1{fill:#fff;}</style></defs><title>title-ooh-that-thing-has-numbers-on-it</title><path class="cls-1" d="M0,7.863V1.652H1.242V7.863H0ZM1.242,1.652V0.41H4.969V1.652H1.242Zm0,7.453V7.863H4.969V9.106H1.242ZM4.969,7.863V1.652H6.211V7.863H4.969Zm2.484,0V4.137H8.7V7.863H7.453ZM8.7,4.137V2.894h3.727V4.137H8.7Zm0,4.969V7.863h3.727V9.106H8.7Zm3.727-1.242V4.137h1.242V7.863H12.422Zm2.484,0V4.137h1.242V7.863H14.907Zm1.242-3.727V2.894h3.727V4.137H16.149Zm0,4.969V7.863h3.727V9.106H16.149Zm3.727-1.242V4.137h1.242V7.863H19.876ZM22.36,9.106V0.41H23.6V2.894h3.727V4.137H23.6V9.106H22.36Zm4.969,0V4.137h1.242V9.106H27.329Zm2.484,1.242V7.863h1.242v2.484H29.814Zm6.211-1.242V4.137H34.782V2.894h1.242V0.41h1.242V2.894h1.242V4.137H37.267V9.106H36.025Zm3.727,0V0.41h1.242V2.894H44.72V4.137H40.994V9.106H39.751Zm4.969,0V4.137h1.242V9.106H44.72ZM47.2,4.137V2.894h4.969V4.137H47.2Zm0,3.727V6.621h1.242V7.863H47.2Zm1.242,1.242V7.863h3.727V6.621H48.447V5.379h3.727V4.137h1.242V9.106H48.447Zm7.453,0V4.137H54.658V2.894H55.9V0.41h1.242V2.894h1.242V4.137H57.143V9.106H55.9Zm7.453,0V4.137H62.112V2.894h1.242V0.41H64.6V2.894h1.242V4.137H64.6V9.106H63.354Zm3.727,0V0.41h1.242V2.894h3.727V4.137H68.323V9.106H67.08Zm4.969,0V4.137h1.242V9.106H72.049Zm2.484-6.211V1.652h1.242V2.894H74.534Zm0,6.211V4.137h1.242V9.106H74.534Zm2.484,0V2.894h4.969V4.137H78.261V9.106H77.018Zm4.969,0V4.137h1.242V9.106H81.987Zm2.484-2.484V4.137h1.242V6.621H84.472Zm0,4.969V10.348h4.969V11.59H84.472Zm4.969-1.242V7.863H85.714V6.621h3.727V4.137H85.714V2.894h4.969v7.453H89.441ZM94.41,9.106V0.41h1.242V2.894h3.727V4.137H95.652V9.106H94.41Zm4.969,0V4.137h1.242V9.106H99.378Zm2.484-4.969V2.894h4.969V4.137h-4.969Zm0,3.727V6.621h1.242V7.863h-1.242Zm1.242,1.242V7.863h3.727V6.621h-3.727V5.379h3.727V4.137h1.242V9.106h-4.969Zm6.211-3.727V4.137h1.242V5.379h-1.242Zm0,3.727V7.863h4.969V9.106h-4.969Zm1.242-4.969V2.894h4.969V4.137h-4.969Zm0,2.484V5.379h3.727V6.621h-3.727Zm3.727,1.242V6.621h1.242V7.863h-1.242Zm4.969,1.242V2.894h4.969V4.137H120.5V9.106h-1.242Zm4.969,0V4.137h1.242V9.106h-1.242Zm2.484-1.242V2.894h1.242V7.863h-1.242Zm1.242,1.242V7.863h3.727V2.894h1.242V9.106H127.95Zm6.211,0V2.894h2.484V4.137H135.4V9.106h-1.242Zm2.484,0V4.137h1.242V9.106h-1.242Zm1.242-4.969V2.894h1.242V4.137h-1.242Zm1.242,4.969V4.137h1.242V9.106H139.13Zm2.484,0V0.41h1.242V2.894h3.727V4.137h-3.727V7.863h3.727V9.106h-4.969Zm4.969-1.242V4.137h1.242V7.863h-1.242Zm2.484,0V4.137h1.242V5.379h3.727V4.137h1.242V6.621H150.31V7.863h-1.242Zm1.242-3.727V2.894h3.727V4.137H150.31Zm0,4.969V7.863h4.969V9.106H150.31Zm6.211,0V2.894h4.969V4.137h-3.727V9.106h-1.242Zm4.969-3.727V4.137h1.242V5.379H161.49Zm2.484,0V4.137h1.242V5.379h-1.242Zm0,3.727V7.863h4.969V9.106h-4.969Zm1.242-4.969V2.894h4.969V4.137h-4.969Zm0,2.484V5.379h3.727V6.621h-3.727Zm3.727,1.242V6.621h1.242V7.863h-1.242Zm4.969,0V4.137h1.242V7.863h-1.242Zm1.242-3.727V2.894h3.728V4.137h-3.728Zm0,4.969V7.863h3.728V9.106h-3.728Zm3.728-1.242V4.137h1.242V7.863h-1.242Zm2.484,1.242V2.894h4.969V4.137h-3.727V9.106h-1.242Zm4.969,0V4.137h1.242V9.106h-1.242ZM191.3,2.894V1.652h1.242V2.894H191.3Zm0,6.211V4.137h1.242V9.106H191.3Zm3.727,0V4.137h-1.242V2.894h1.242V0.41h1.242V2.894h1.242V4.137h-1.242V9.106h-1.242Zm3.727,0V7.863H200V9.106h-1.242Z"/></svg>