<svg id="Ebene_1" data-name="Ebene 1" xmlns="http://www.w3.org/2000/svg" viewBox="0 0 200 18"><defs><style>.cls-1{fill:#fff;}</style></defs><title>title-good-news-everyone</title><path class="cls-1" d="M0,11.97v-9.9H1.98v9.9H0Zm1.98-9.9V0.089H7.921v1.98H1.98Zm0,11.881V11.97H7.921v1.98H1.98Zm5.941-1.98V8.01H3.96V6.03H9.9V11.97H7.921Zm3.96,0V6.03h1.98V11.97h-1.98Zm1.98-5.941V4.05H19.8V6.03H13.861Zm0,7.921V11.97H19.8v1.98H13.861ZM19.8,11.97V6.03h1.98V11.97H19.8Zm3.96,0V6.03h1.98V11.97h-1.98Zm1.98-5.941V4.05h5.941V6.03H25.743Zm0,7.921V11.97h5.941v1.98H25.743Zm5.941-1.98V6.03h1.98V11.97h-1.98Zm3.96,0V6.03h1.98V11.97h-1.98Zm1.98,1.98V11.97h5.941V6.03H37.624V4.05h5.941V0.089h1.98V13.95H37.624Zm13.861,0V4.05h7.921V6.03H53.465V13.95h-1.98Zm7.921,0V6.03h1.98V13.95h-1.98Zm3.96-1.98V6.03h1.98V8.01h5.941V6.03h1.98V9.99H65.347v1.98h-1.98Zm1.98-5.941V4.05h5.941V6.03H65.347Zm0,7.921V11.97h7.921v1.98H65.347Zm9.9-1.98V4.05h1.98V11.97h-1.98Zm1.98,1.98V11.97h1.98v1.98h-1.98Zm1.98-1.98V6.03h1.98V11.97h-1.98Zm1.98,1.98V11.97h1.98v1.98h-1.98Zm1.98-1.98V4.05h1.98V11.97h-1.98Zm3.96-3.96V6.03h1.98V8.01h-1.98Zm0,5.941V11.97H95.05v1.98H87.129Zm1.98-7.921V4.05H97.03V6.03H89.109Zm0,3.96V8.01H95.05V9.99H89.109Zm5.941,1.98V9.99h1.98v1.98H95.05Zm3.96,3.96V11.97h1.98v3.96H99.01Zm7.921-3.96V6.03h1.98V8.01h5.941V6.03h1.98V9.99h-7.921v1.98h-1.98Zm1.98-5.941V4.05h5.941V6.03h-5.941Zm0,7.921V11.97h7.921v1.98h-7.921Zm9.9-3.96V4.05h1.98V9.99h-1.98Zm1.98,1.98V9.99h1.98v1.98h-1.98Zm1.98,1.98V11.97h1.98v1.98h-1.98Zm1.98-1.98V9.99h1.98v1.98h-1.98Zm1.98-1.98V4.05h1.98V9.99h-1.98Zm3.96,1.98V6.03h1.98V8.01h5.941V6.03h1.98V9.99h-7.921v1.98h-1.98Zm1.98-5.941V4.05h5.941V6.03h-5.941Zm0,7.921V11.97h7.921v1.98h-7.921Zm9.9,0V4.05H150.5V6.03h-5.941V13.95h-1.98ZM150.5,8.01V6.03h1.98V8.01H150.5Zm3.96,1.98V4.05h1.98V9.99h-1.98Zm0,7.921v-1.98h7.921v1.98h-7.921Zm7.921-1.98V11.97h-5.941V9.99h5.941V4.05h1.98V15.931h-1.98Zm3.96-3.96V6.03h1.98V11.97h-1.98Zm1.98-5.941V4.05h5.941V6.03h-5.941Zm0,7.921V11.97h5.941v1.98h-5.941Zm5.941-1.98V6.03h1.98V11.97h-1.98Zm3.96,1.98V4.05h7.921V6.03H180.2V13.95h-1.98Zm7.921,0V6.03h1.98V13.95h-1.98Zm3.96-1.98V6.03h1.98V8.01h5.941V6.03H200V9.99h-7.921v1.98H190.1Zm1.98-5.941V4.05h5.941V6.03h-5.941Zm0,7.921V11.97H200v1.98h-7.921Z"/></svg>