<svg id="Ebene_1" data-name="Ebene 1" xmlns="http://www.w3.org/2000/svg" viewBox="0 0 299.999 18"><defs><style>.cls-1{fill:#fff;}</style></defs><title>title-are-you-sure-this-thing-is-safe</title><path class="cls-1" d="M0,14V4H2V6H8V4h2V14H8V8H2v6H0ZM2,4V2H4V4H2ZM4,2V0H6V2H4ZM6,4V2H8V4H6Zm6,10V4h8V6H14v8H12Zm8-6V6h2V8H20Zm4,4V6h2V8h6V6h2v4H26v2H24Zm2-6V4h6V6H26Zm0,8V12h8v2H26Zm14-4V4h2v6H40Zm0,8V16h8v2H40Zm8-2V12H42V10h6V4h2V16H48Zm4-4V6h2v6H52Zm2-6V4h6V6H54Zm0,8V12h6v2H54Zm6-2V6h2v6H60Zm4,0V4h2v8H64Zm2,2V12h6V4h2V14H66ZM80,8V6h2V8H80Zm0,6V12h8v2H80Zm2-8V4h8V6H82Zm0,4V8h6v2H82Zm6,2V10h2v2H88Zm4,0V4h2v8H92Zm2,2V12h6V4h2V14H94Zm10,0V4h8V6h-6v8h-2Zm8-6V6h2V8h-2Zm4,4V6h2V8h6V6h2v4h-8v2h-2Zm2-6V4h6V6h-6Zm0,8V12h8v2h-8Zm16,0V6h-2V4h2V0h2V4h2V6h-2v8h-2Zm6,0V0h2V4h6V6h-6v8h-2Zm8,0V6h2v8h-2Zm4-10V2h2V4h-2Zm0,10V6h2v8h-2Zm4-6V6h2V8h-2Zm0,6V12h8v2h-8Zm2-8V4h8V6h-8Zm0,4V8h6v2h-6Zm6,2V10h2v2h-2Zm10,2V6h-2V4h2V0h2V4h2V6h-2v8h-2Zm6,0V0h2V4h6V6h-6v8h-2Zm8,0V6h2v8h-2Zm4-10V2h2V4h-2Zm0,10V6h2v8h-2Zm4,0V4h8V6h-6v8h-2Zm8,0V6h2v8h-2Zm4-4V6h2v4h-2Zm0,8V16h8v2h-8Zm8-2V12h-6V10h6V6h-6V4h8V16h-2Zm8-12V2h2V4h-2Zm0,10V6h2v8h-2Zm4-6V6h2V8h-2Zm0,6V12h8v2h-8Zm2-8V4h8V6h-8Zm0,4V8h6v2h-6Zm6,2V10h2v2h-2Zm8-4V6h2V8h-2Zm0,6V12h8v2h-8Zm2-8V4h8V6h-8Zm0,4V8h6v2h-6Zm6,2V10h2v2h-2Zm4-6V4h8V6h-8Zm0,6V10h2v2h-2Zm2,2V12h6V10h-6V8h6V6h2v8h-8Zm12,0V8h-2V6h2V2h2V6h2V8h-2v6h-2Zm2-12V0h2V2h-2Zm2,2V2h2V4h-2Zm4,8V6h2V8h6V6h2v4h-8v2h-2Zm2-6V4h6V6h-6Zm0,8V12h8v2h-8ZM290,4V2h2V4h-2Zm2-2V0h6V2h-6Zm2,8V8h2v2h-2Zm0,4V12h2v2h-2Zm2-6V6h2V8h-2Zm2-2V2h2V6h-2Z"/></svg>