<svg id="Ebene_1" data-name="Ebene 1" xmlns="http://www.w3.org/2000/svg" viewBox="0 0 315 18"><defs><style>.cls-1{fill:#fff;}</style></defs><title>title-mkpixel-ooh-that-thing-has-numbers-on-it</title><path class="cls-1" d="M7.242,14.467h-5.3a0.155,0.155,0,0,1-.177-0.175V12.719H0.177A0.156,0.156,0,0,1,0,12.542V1.944A0.156,0.156,0,0,1,.177,1.767h1.59V0.177A0.157,0.157,0,0,1,1.944,0h5.3a0.157,0.157,0,0,1,.177.177v1.59h1.59a0.156,0.156,0,0,1,.177.177v10.6a0.156,0.156,0,0,1-.177.177H7.419v1.574A0.155,0.155,0,0,1,7.242,14.467ZM7.066,12.54a0.155,0.155,0,0,1,.176-0.175h1.59V2.12H7.242a0.156,0.156,0,0,1-.176-0.177V0.354H2.12v1.59a0.156,0.156,0,0,1-.176.177H0.354V12.366h1.59a0.155,0.155,0,0,1,.176.175v1.574H7.066V12.54Zm-1.7-1.624a3.494,3.494,0,0,1-1.422-.291A3.729,3.729,0,0,1,2.005,8.683a3.611,3.611,0,0,1,0-2.844A3.727,3.727,0,0,1,3.948,3.895,3.494,3.494,0,0,1,5.37,3.6a0.087,0.087,0,0,1,.088.106A0.078,0.078,0,0,1,5.37,3.8a3.339,3.339,0,0,0-1.351.274A3.483,3.483,0,0,0,2.181,5.918a3.45,3.45,0,0,0,0,2.694A3.415,3.415,0,0,0,2.924,9.7a3.6,3.6,0,0,0,1.095.733A3.339,3.339,0,0,0,5.37,10.7a0.087,0.087,0,0,1,.088.106,0.078,0.078,0,0,1-.088.088v0.017ZM18.9,14.467H13.6a0.155,0.155,0,0,1-.177-0.175V12.719h-1.59a0.156,0.156,0,0,1-.177-0.177V5.476A0.156,0.156,0,0,1,11.835,5.3h1.59V3.726A0.156,0.156,0,0,1,13.6,3.551h5.3a0.156,0.156,0,0,1,.177.175V5.3h1.59a0.156,0.156,0,0,1,.177.177v7.065a0.156,0.156,0,0,1-.177.177h-1.59v1.574A0.155,0.155,0,0,1,18.9,14.467ZM12.8,6.66a3.457,3.457,0,0,1,.539-1.007H12.012v6.713h1.413v-6.5a3.276,3.276,0,0,0-.6,1.943,0.093,0.093,0,0,1-.106.106,0.086,0.086,0,0,1-.106-0.088A3.609,3.609,0,0,1,12.8,6.66Zm2.1-2.208a3.476,3.476,0,0,1,1.369-.265,3.522,3.522,0,0,1,2.455.954V3.9H13.778V5.176A3.809,3.809,0,0,1,14.9,4.452Zm-1.122,7.914h4.947V5.653H13.778v6.713Zm4.257,1.173a0.088,0.088,0,0,1-.141,0,0.086,0.086,0,0,1,0-.139l0.689-.681h-4.8v1.4h4.947V12.858ZM17.567,4.611a3.533,3.533,0,0,0-2.6,0A3.339,3.339,0,0,0,13.9,5.3h4.734A3.339,3.339,0,0,0,17.567,4.611Zm1.652,7.755h1.271V5.653H19.2A3.457,3.457,0,0,1,19.74,6.66a3.554,3.554,0,0,1,.185,1.148,0.094,0.094,0,0,1-.106.106,0.078,0.078,0,0,1-.088-0.088,3.3,3.3,0,0,0-.176-1.078,3.682,3.682,0,0,0-.477-0.936v6.412l0.848-.848a0.1,0.1,0,0,1,.141.142Zm10.6,2.1h-5.3a0.155,0.155,0,0,1-.177-0.175V12.719h-1.59a0.156,0.156,0,0,1-.177-0.177V5.476A0.156,0.156,0,0,1,22.752,5.3h1.59V3.726a0.156,0.156,0,0,1,.177-0.175h5.3a0.156,0.156,0,0,1,.177.175V5.3h1.59a0.156,0.156,0,0,1,.177.177v7.065a0.156,0.156,0,0,1-.177.177h-1.59v1.574A0.155,0.155,0,0,1,29.817,14.467Zm-6.1-7.807a3.457,3.457,0,0,1,.539-1.007H22.929v6.713h1.413v-6.5a3.276,3.276,0,0,0-.6,1.943,0.093,0.093,0,0,1-.106.106,0.086,0.086,0,0,1-.106-0.088A3.609,3.609,0,0,1,23.714,6.66Zm2.1-2.208a3.476,3.476,0,0,1,1.369-.265,3.522,3.522,0,0,1,2.455.954V3.9H24.695V5.176A3.809,3.809,0,0,1,25.817,4.452Zm-1.122,7.914h4.947V5.653H24.695v6.713Zm4.257,1.173a0.088,0.088,0,0,1-.141,0,0.086,0.086,0,0,1,0-.139l0.689-.681h-4.8v1.4h4.947V12.858ZM28.484,4.611a3.533,3.533,0,0,0-2.6,0,3.339,3.339,0,0,0-1.069.689h4.734A3.339,3.339,0,0,0,28.484,4.611Zm1.652,7.755h1.271V5.653H30.118a3.457,3.457,0,0,1,.539,1.007,3.554,3.554,0,0,1,.185,1.148,0.094,0.094,0,0,1-.106.106,0.078,0.078,0,0,1-.088-0.088,3.3,3.3,0,0,0-.176-1.078,3.682,3.682,0,0,0-.477-0.936v6.412l0.848-.848a0.1,0.1,0,0,1,.141.142Zm6.217-6.713v8.638a0.156,0.156,0,0,1-.176.176H34.41a0.156,0.156,0,0,1-.177-0.176V0.177A0.156,0.156,0,0,1,34.41,0h1.767a0.157,0.157,0,0,1,.176.178V3.551h5.123a0.156,0.156,0,0,1,.177.175V5.3h1.59a0.156,0.156,0,0,1,.177.177v8.815a0.156,0.156,0,0,1-.177.176H41.476a0.156,0.156,0,0,1-.176-0.176V5.653H36.353ZM36.441,5.3h4.77l-0.795-.785a0.086,0.086,0,0,1,0-.139,0.089,0.089,0,0,1,.141,0L41.3,5.108V3.9H36.177A0.157,0.157,0,0,1,36,3.727V0.354H34.587V14.114H36V5.74l-0.742.74a0.1,0.1,0,1,1-.142-0.141L36,5.458A0.217,0.217,0,0,1,36.159,5.3l0.989-.989a0.1,0.1,0,0,1,.142.142Zm5.211,0.441v8.374h1.413V5.653H41.846L42.8,6.6a0.1,0.1,0,1,1-.142.141ZM47.834,18H46.068a0.155,0.155,0,0,1-.177-0.175V16.074a0.156,0.156,0,0,1,.177-0.175h1.59V12.542a0.156,0.156,0,0,1,.177-0.176H49.6a0.156,0.156,0,0,1,.177.176v3.533a0.156,0.156,0,0,1-.177.176h-1.59v1.574A0.155,0.155,0,0,1,47.834,18Zm-0.389-1.749h-1.2v1.4h1.413V16.322l-0.707.7a0.089,0.089,0,0,1-.142,0,0.087,0.087,0,0,1,0-.139Zm1.236-1.236a0.1,0.1,0,0,1,.142.142l-0.742.742h1.342v-3.18H48.011v2.968Zm8.9-2.3a0.156,0.156,0,0,1-.177-0.177V5.653h-1.59a0.156,0.156,0,0,1-.177-0.175V3.726a0.156,0.156,0,0,1,.177-0.175h1.59V1.945a0.157,0.157,0,0,1,.177-0.178h1.766a0.157,0.157,0,0,1,.177.178V3.551h1.59a0.156,0.156,0,0,1,.177.175V5.478a0.156,0.156,0,0,1-.177.175h-1.59v6.713h1.59a0.156,0.156,0,0,1,.177.175v1.752a0.156,0.156,0,0,1-.177.175H59.351a0.155,0.155,0,0,1-.177-0.175V12.719H57.585ZM56.719,4.875a0.1,0.1,0,0,1-.141-0.141l0.83-.83H56V5.3h1.59a0.156,0.156,0,0,1,.176.177v6.889H59L58.2,11.571a0.1,0.1,0,0,1,.141-0.142l0.83,0.83V5.476A0.156,0.156,0,0,1,59.351,5.3h1.59V3.9h-1.59a0.157,0.157,0,0,1-.177-0.178V2.12H57.761v1.43L58.609,2.7a0.1,0.1,0,0,1,.142.141Zm2.809,8.018v1.221h1.413v-1.4H59.634l0.583,0.576a0.086,0.086,0,0,1,0,.139,0.088,0.088,0,0,1-.141,0Zm6.005-7.24v8.638a0.156,0.156,0,0,1-.176.176H63.59a0.156,0.156,0,0,1-.177-0.176V0.177A0.156,0.156,0,0,1,63.59,0h1.767a0.157,0.157,0,0,1,.176.178V3.551h5.123a0.156,0.156,0,0,1,.177.175V5.3h1.59a0.156,0.156,0,0,1,.177.177v8.815a0.156,0.156,0,0,1-.177.176H70.656a0.156,0.156,0,0,1-.176-0.176V5.653H65.533ZM65.622,5.3h4.77L69.6,4.515a0.086,0.086,0,0,1,0-.139,0.089,0.089,0,0,1,.141,0L70.48,5.108V3.9H65.357a0.157,0.157,0,0,1-.177-0.178V0.354H63.767V14.114H65.18V5.74l-0.742.74A0.1,0.1,0,1,1,64.3,6.339l0.883-.881A0.217,0.217,0,0,1,65.339,5.3l0.989-.989a0.1,0.1,0,0,1,.142.142Zm5.211,0.441v8.374h1.413V5.653H71.027L71.981,6.6a0.1,0.1,0,0,1-.142.141Zm5.423,6.978H75.249a0.156,0.156,0,0,1-.177-0.177V9.009a0.157,0.157,0,0,1,.177-0.177h1.042q0.123-.176.256-0.344a2.423,2.423,0,0,1,.292-0.309V7.243a0.156,0.156,0,0,1,.177-0.177h5.123V5.653H77.016a0.156,0.156,0,0,1-.177-0.175V3.726a0.156,0.156,0,0,1,.177-0.175h5.3a0.156,0.156,0,0,1,.177.175V5.3h1.59a0.156,0.156,0,0,1,.177.177v8.815a0.156,0.156,0,0,1-.177.176H77.016a0.155,0.155,0,0,1-.177-0.175V13.436A2.924,2.924,0,0,1,76.256,12.719Zm-0.451-1.1a3.372,3.372,0,0,1-.1-0.8A3.585,3.585,0,0,1,76.1,9.186H75.426v3.18h0.635A4.355,4.355,0,0,1,75.805,11.615Zm0.2-1.66a3.429,3.429,0,0,0-.106.857,3.338,3.338,0,0,0,.1.812,3.6,3.6,0,0,0,.274.742h0.566V9.186h-0.53A3.232,3.232,0,0,0,76.009,9.954Zm0.653,2.994,0.177,0.212V12.719H76.485C76.544,12.8,76.6,12.877,76.662,12.949ZM76.538,8.832h0.3V8.461A2.165,2.165,0,0,0,76.538,8.832Zm4.77-4.2a0.086,0.086,0,0,1,0-.139,0.088,0.088,0,0,1,.141,0l0.689,0.681V3.9H77.192V5.3h4.787Zm0.141,9.036a0.1,0.1,0,0,1-.141-0.141l0.812-.813H77.192v0.768a3.3,3.3,0,0,0,1.219.628H83.9V5.653H82.615L83.48,6.518a0.1,0.1,0,0,1-.141.142l-0.848-.848V7.243a0.156,0.156,0,0,1-.177.176h-3.6a3.242,3.242,0,0,0-1.519.707V8.832h5.123a0.157,0.157,0,0,1,.177.177v3.339l0.848-.848a0.1,0.1,0,1,1,.141.142Zm-3.86-6.05a3.374,3.374,0,0,1,.433-0.2h-0.83V7.878A4.231,4.231,0,0,1,77.589,7.622Zm-0.4,4.743h4.947V9.186H77.192v3.18Zm0,1.36v0.389h0.654A3.33,3.33,0,0,1,77.192,13.726Zm11.482-1.007a0.156,0.156,0,0,1-.177-0.177V5.653h-1.59a0.156,0.156,0,0,1-.177-0.175V3.726a0.156,0.156,0,0,1,.177-0.175H88.5V1.945a0.157,0.157,0,0,1,.177-0.178H90.44a0.157,0.157,0,0,1,.177.178V3.551h1.59a0.156,0.156,0,0,1,.177.175V5.478a0.156,0.156,0,0,1-.177.175h-1.59v6.713h1.59a0.156,0.156,0,0,1,.177.175v1.752a0.156,0.156,0,0,1-.177.175H90.44a0.155,0.155,0,0,1-.177-0.175V12.719H88.674ZM87.808,4.875a0.1,0.1,0,0,1-.141-0.141L88.5,3.9H87.084V5.3h1.59a0.156,0.156,0,0,1,.176.177v6.889h1.237l-0.795-.795a0.1,0.1,0,0,1,.141-0.142l0.83,0.83V5.476A0.156,0.156,0,0,1,90.44,5.3h1.59V3.9H90.44a0.157,0.157,0,0,1-.177-0.178V2.12H88.85v1.43L89.7,2.7a0.1,0.1,0,1,1,.142.141Zm2.809,8.018v1.221H92.03v-1.4H90.722l0.583,0.576a0.086,0.086,0,0,1,0,.139,0.088,0.088,0,0,1-.141,0Zm9.75-.175a0.156,0.156,0,0,1-.177-0.177V5.653H98.6a0.156,0.156,0,0,1-.177-0.175V3.726A0.156,0.156,0,0,1,98.6,3.551h1.59V1.945a0.157,0.157,0,0,1,.177-0.178h1.766a0.157,0.157,0,0,1,.177.178V3.551h1.59a0.156,0.156,0,0,1,.177.175V5.478a0.156,0.156,0,0,1-.177.175h-1.59v6.713h1.59a0.156,0.156,0,0,1,.177.175v1.752a0.156,0.156,0,0,1-.177.175h-1.767a0.155,0.155,0,0,1-.177-0.175V12.719h-1.589ZM99.5,4.875a0.1,0.1,0,0,1-.141-0.141l0.83-.83H98.777V5.3h1.59a0.156,0.156,0,0,1,.176.177v6.889h1.237l-0.795-.795a0.1,0.1,0,0,1,.141-0.142l0.83,0.83V5.476a0.156,0.156,0,0,1,.177-0.177h1.59V3.9h-1.59a0.157,0.157,0,0,1-.177-0.178V2.12h-1.413v1.43l0.848-.847a0.1,0.1,0,1,1,.142.141Zm2.809,8.018v1.221h1.413v-1.4h-1.307L103,13.294a0.086,0.086,0,0,1,0,.139,0.088,0.088,0,0,1-.141,0Zm6.005-7.24v8.638a0.156,0.156,0,0,1-.176.176h-1.767a0.156,0.156,0,0,1-.177-0.176V0.177A0.156,0.156,0,0,1,106.372,0h1.767a0.157,0.157,0,0,1,.176.178V3.551h5.123a0.156,0.156,0,0,1,.177.175V5.3h1.59a0.156,0.156,0,0,1,.177.177v8.815a0.156,0.156,0,0,1-.177.176h-1.767a0.156,0.156,0,0,1-.176-0.176V5.653h-4.947ZM108.4,5.3h4.77l-0.795-.785a0.086,0.086,0,0,1,0-.139,0.089,0.089,0,0,1,.141,0l0.742,0.732V3.9h-5.123a0.157,0.157,0,0,1-.177-0.178V0.354h-1.413V14.114h1.413V5.74l-0.742.74a0.1,0.1,0,1,1-.142-0.141l0.883-.881a0.217,0.217,0,0,1,.159-0.159l0.989-.989a0.1,0.1,0,0,1,.142.142Zm5.211,0.441v8.374h1.413V5.653h-1.219L114.763,6.6a0.1,0.1,0,0,1-.142.141Zm5.405-2.19H119.8a0.156,0.156,0,0,1,.176.176V14.291a0.156,0.156,0,0,1-.176.176H118.03a0.156,0.156,0,0,1-.177-0.176V3.727a0.156,0.156,0,0,1,.177-0.176h0.812V2.12H118.03a0.156,0.156,0,0,1-.177-0.177V0.177A0.157,0.157,0,0,1,118.03,0H119.8a0.156,0.156,0,0,1,.176.177V1.944a0.156,0.156,0,0,1-.176.177h-0.76Zm0-1.784h0.6V0.354h-1.413V1.767h0.618V1.06a0.078,0.078,0,0,1,.088-0.088,0.087,0.087,0,0,1,.106.088V1.767ZM119.037,5a0.087,0.087,0,0,1-.106.088A0.078,0.078,0,0,1,118.843,5V3.9h-0.635v10.21h1.413V3.9h-0.583V5Zm4.822,0.654v8.638a0.156,0.156,0,0,1-.176.176h-1.767a0.156,0.156,0,0,1-.177-0.176V3.727a0.156,0.156,0,0,1,.177-0.176h7.065a0.156,0.156,0,0,1,.177.175V5.3h1.59a0.156,0.156,0,0,1,.177.177v8.815a0.156,0.156,0,0,1-.177.176h-1.767a0.156,0.156,0,0,1-.176-0.176V5.653H123.86Zm-0.989.889a3.4,3.4,0,0,1,.636-1.066,0.167,0.167,0,0,1,.141-0.177,4.059,4.059,0,0,1,1.184-.811,3.66,3.66,0,0,1,2.844-.035,3.94,3.94,0,0,1,1.131.725V3.9h-6.713v10.21h1.413V5.776a3.363,3.363,0,0,0-.653,2.027,0.094,0.094,0,0,1-.106.106,0.086,0.086,0,0,1-.106-0.088A3.591,3.591,0,0,1,122.871,6.542ZM127.6,4.611a3.531,3.531,0,0,0-2.6,0,3.331,3.331,0,0,0-1.069.689h4.734A3.339,3.339,0,0,0,127.6,4.611Zm2.173,2.047a3.541,3.541,0,0,1,.185,1.146,0.093,0.093,0,0,1-.106.106,0.078,0.078,0,0,1-.088-0.088,3.381,3.381,0,0,0-.6-1.939v8.233h1.413V5.653h-1.343A3.445,3.445,0,0,1,129.768,6.658ZM140.64,18h-5.3a0.155,0.155,0,0,1-.177-0.175V16.074a0.156,0.156,0,0,1,.177-0.175h5.123V14.467h-5.123a0.155,0.155,0,0,1-.177-0.175V12.719h-1.59a0.156,0.156,0,0,1-.177-0.177V5.476a0.156,0.156,0,0,1,.177-0.177h1.59V3.726a0.156,0.156,0,0,1,.177-0.175h7.065a0.156,0.156,0,0,1,.177.177V16.075a0.156,0.156,0,0,1-.177.176h-1.59v1.574A0.155,0.155,0,0,1,140.64,18ZM134.475,6.483a0.1,0.1,0,0,1-.141-0.142l0.689-.689h-1.271v6.713h1.413V5.794ZM135.659,5.3h4.981a0.156,0.156,0,0,1,.177.177v6.818l0.848-.847a0.1,0.1,0,0,1,.141.141l-0.989.99a0.211,0.211,0,0,1-.141.141l-0.9.9a0.1,0.1,0,1,1-.141-0.142l0.759-.76h-4.875v1.4h5.123a0.157,0.157,0,0,1,.177.178v1.5l0.848-.857a0.087,0.087,0,0,1,.141,0,0.089,0.089,0,0,1,0,.142l-0.812.821h1.236V3.9h-6.713V5.16l0.848-.837a0.09,0.09,0,0,1,.142,0,0.087,0.087,0,0,1,0,.139Zm1,5.75a3.66,3.66,0,0,1-.018-4.072,3.626,3.626,0,0,1,1.581-1.325h-2.7v6.713h2.774A3.567,3.567,0,0,1,136.657,11.05Zm3.117,6.057a0.089,0.089,0,0,1-.141,0,0.087,0.087,0,0,1,0-.14l0.724-.715h-4.84v1.4h4.947V16.426Zm-2-10.994a3.662,3.662,0,0,0-.813.75,3.439,3.439,0,0,0,.045,4.31,3.552,3.552,0,0,0,.865.76,3.323,3.323,0,0,0,1.077.433h1.519V5.653H138.8A3.2,3.2,0,0,0,137.77,6.112ZM151.1,5.653v8.638a0.156,0.156,0,0,1-.176.176h-1.767a0.156,0.156,0,0,1-.177-0.176V0.177A0.156,0.156,0,0,1,149.154,0h1.767a0.157,0.157,0,0,1,.176.178V3.551h5.123a0.156,0.156,0,0,1,.177.175V5.3h1.59a0.156,0.156,0,0,1,.177.177v8.815a0.156,0.156,0,0,1-.177.176H156.22a0.156,0.156,0,0,1-.176-0.176V5.653H151.1Zm0.088-.354h4.77l-0.795-.785a0.086,0.086,0,0,1,0-.139,0.089,0.089,0,0,1,.141,0l0.742,0.732V3.9h-5.123a0.157,0.157,0,0,1-.177-0.178V0.354h-1.413V14.114h1.413V5.74L150,6.48a0.1,0.1,0,1,1-.142-0.141l0.883-.881A0.217,0.217,0,0,1,150.9,5.3l0.989-.989a0.1,0.1,0,0,1,.142.142ZM156.4,5.741v8.374h1.413V5.653h-1.219L157.545,6.6a0.088,0.088,0,0,1,0,.141,0.089,0.089,0,0,1-.142,0Zm5.422,6.978h-1.006a0.156,0.156,0,0,1-.177-0.177V9.009a0.157,0.157,0,0,1,.177-0.177h1.042c0.082-.117.168-0.232,0.256-0.344a2.474,2.474,0,0,1,.292-0.309V7.243a0.156,0.156,0,0,1,.177-0.177H167.7V5.653h-5.122a0.156,0.156,0,0,1-.177-0.175V3.726a0.156,0.156,0,0,1,.177-0.175h5.3a0.156,0.156,0,0,1,.177.175V5.3h1.59a0.156,0.156,0,0,1,.177.177v8.815a0.156,0.156,0,0,1-.177.176h-7.065a0.155,0.155,0,0,1-.177-0.175V13.436A2.943,2.943,0,0,1,161.819,12.719Zm-0.45-1.1a3.373,3.373,0,0,1-.1-0.8,3.6,3.6,0,0,1,.39-1.625h-0.671v3.18h0.635A4.417,4.417,0,0,1,161.369,11.615Zm0.2-1.66a3.462,3.462,0,0,0-.1.857,3.338,3.338,0,0,0,.1.812,3.605,3.605,0,0,0,.275.742H162.4V9.186h-0.53A3.325,3.325,0,0,0,161.572,9.954Zm0.654,2.994,0.177,0.212V12.719h-0.354C162.108,12.8,162.167,12.877,162.226,12.949ZM162.1,8.832h0.3V8.461A2.165,2.165,0,0,0,162.1,8.832Zm4.77-4.2a0.086,0.086,0,0,1,0-.139,0.088,0.088,0,0,1,.141,0L167.7,5.178V3.9h-4.945V5.3h4.787Zm0.141,9.036a0.1,0.1,0,0,1-.141-0.141l0.812-.813h-4.928v0.768a3.281,3.281,0,0,0,1.219.628h5.493V5.653h-1.289l0.865,0.865a0.1,0.1,0,1,1-.141.142l-0.848-.848V7.243a0.156,0.156,0,0,1-.177.176h-3.6a3.24,3.24,0,0,0-1.518.707V8.832h5.122a0.157,0.157,0,0,1,.177.177v3.339L168.9,11.5a0.1,0.1,0,1,1,.141.142Zm-3.86-6.05a3.421,3.421,0,0,1,.433-0.2h-0.829V7.878A4.221,4.221,0,0,1,163.153,7.622Zm-0.4,4.743H167.7V9.186h-4.945v3.18Zm0,1.36v0.389h0.653A3.3,3.3,0,0,1,162.756,13.726Zm10.465-3.285a1.314,1.314,0,0,1-.009-0.159,0.094,0.094,0,0,1,.106-0.106,0.087,0.087,0,0,1,.106.088V10.6h0.812a0.156,0.156,0,0,1,.177.177v1.59h4.945V9.186h-5.122a0.156,0.156,0,0,1-.177-0.177V7.419h-0.495a3.594,3.594,0,0,0-.07.742,0.094,0.094,0,0,1-.106.106,0.087,0.087,0,0,1-.106-0.088,3.593,3.593,0,0,1,.089-0.76h-0.9a0.156,0.156,0,0,1-.177-0.175V5.485a0.156,0.156,0,0,1,.177-0.175h1.59V3.727a0.156,0.156,0,0,1,.177-0.176h5.3a0.156,0.156,0,0,1,.177.176V5.31h1.59a0.156,0.156,0,0,1,.177.175V7.244a0.156,0.156,0,0,1-.177.175h-0.795a3.517,3.517,0,0,1,.088.742,0.093,0.093,0,0,1-.1.106,0.079,0.079,0,0,1-.089-0.088,3.586,3.586,0,0,0-.088-0.76h-0.6V8.832h1.59a0.157,0.157,0,0,1,.177.177v3.533a0.156,0.156,0,0,1-.177.177h-1.59v1.574a0.155,0.155,0,0,1-.177.175h-5.3a0.155,0.155,0,0,1-.177-0.175V12.719h-1.59a0.156,0.156,0,0,1-.177-0.177V10.776a0.156,0.156,0,0,1,.177-0.177h0.759A1.323,1.323,0,0,0,173.221,10.44Zm0.84-4.5V5.653h-1.413V7.066h0.812A3.712,3.712,0,0,1,174.061,5.936Zm-0.778,5.017h-0.635v1.413h1.236A3.627,3.627,0,0,1,173.283,10.953Zm0.778,1.325V10.953h-0.584A3.455,3.455,0,0,0,174.061,12.277ZM173.839,6.66a2.934,2.934,0,0,0-.167.406h0.388V6.271A4.351,4.351,0,0,0,173.839,6.66Zm1.89-1.917a3.7,3.7,0,0,1,2.421,0,3.485,3.485,0,0,1,1.032.574h0.177V3.9h-4.945V5.317H174.7A3.493,3.493,0,0,1,175.73,4.743Zm3.577,0.91h-4.734l-0.158.159V7.066h4.945V5.706Zm-4.892,1.766V8.832h4.945V7.419h-4.945Zm3.824,6.218a3.478,3.478,0,0,1-1.369.265,3.519,3.519,0,0,1-2.455-.954v1.166h4.945v-1.2A3.8,3.8,0,0,1,178.238,13.637Zm-2.72-.185a3.471,3.471,0,0,0,2.7,0,3.508,3.508,0,0,0,1.085-.733h-4.875A3.5,3.5,0,0,0,175.519,13.452Zm2.447-8.585a3.572,3.572,0,0,0-2.05,0,3.225,3.225,0,0,0-.9.433h3.851A3.2,3.2,0,0,0,177.965,4.867Zm2.455,2.2h0.706V5.653h-1.413V5.794A3.947,3.947,0,0,1,180.42,7.066ZM180,6.562a3.25,3.25,0,0,0-.283-0.45V7.066h0.495A3.574,3.574,0,0,0,180,6.562Zm0.352,4.823a3.915,3.915,0,0,1-.495.98h1.272V9.186h-1.413v3.038a3.281,3.281,0,0,0,.6-1.943,0.094,0.094,0,0,1,.106-0.106,0.086,0.086,0,0,1,.1.088A3.47,3.47,0,0,1,180.349,11.385Zm9.646-5.732v8.638a0.156,0.156,0,0,1-.177.176h-1.767a0.156,0.156,0,0,1-.177-0.176V3.727a0.156,0.156,0,0,1,.177-0.176h7.065a0.156,0.156,0,0,1,.177.175V5.3h1.59a0.156,0.156,0,0,1,.177.177v8.815a0.156,0.156,0,0,1-.177.176h-1.767a0.156,0.156,0,0,1-.177-0.176V5.653h-4.945Zm-0.989.889a3.369,3.369,0,0,1,.635-1.066,0.168,0.168,0,0,1,.141-0.177,4.062,4.062,0,0,1,1.185-.811,3.658,3.658,0,0,1,2.843-.035,3.926,3.926,0,0,1,1.13.725V3.9h-6.712v10.21h1.413V5.776a3.364,3.364,0,0,0-.654,2.027,0.093,0.093,0,0,1-.1.106,0.086,0.086,0,0,1-.106-0.088A3.576,3.576,0,0,1,189.005,6.542Zm4.725-1.931a3.535,3.535,0,0,0-2.6,0,3.343,3.343,0,0,0-1.068.689H194.8A3.343,3.343,0,0,0,193.731,4.611ZM195.9,6.658a3.541,3.541,0,0,1,.185,1.146,0.094,0.094,0,0,1-.106.106,0.078,0.078,0,0,1-.088-0.088,3.4,3.4,0,0,0-.6-1.939v8.233h1.413V5.653h-1.343A3.445,3.445,0,0,1,195.9,6.658Zm3.805,6.061a0.156,0.156,0,0,1-.177-0.176V3.728a0.156,0.156,0,0,1,.177-0.177h1.767a0.156,0.156,0,0,1,.177.177v8.638H206.6V3.728a0.156,0.156,0,0,1,.177-0.177h1.767a0.156,0.156,0,0,1,.177.176V14.291a0.156,0.156,0,0,1-.177.176h-7.065a0.155,0.155,0,0,1-.177-0.175V12.719h-1.59Zm0.9-1.366a3.492,3.492,0,0,1-.194-1.172,0.078,0.078,0,0,1,.088-0.088,0.087,0.087,0,0,1,.106.088,3.253,3.253,0,0,0,.185,1.1,3.8,3.8,0,0,0,.5.961V3.9h-1.413v8.461h1.272A3.581,3.581,0,0,1,200.609,11.352Zm6.906,0.036a3.865,3.865,0,0,1-.565,1.031v0.124a0.156,0.156,0,0,1-.177.176h-0.088a3.975,3.975,0,0,1-1.174.8,3.488,3.488,0,0,1-1.44.3,3.556,3.556,0,0,1-1.324-.244,3.686,3.686,0,0,1-1.1-.663v1.2h6.712V3.9H206.95v8.18a3.3,3.3,0,0,0,.565-1.9,0.108,0.108,0,0,1,.213,0A3.434,3.434,0,0,1,207.515,11.388Zm-4.717,2a3.4,3.4,0,0,0,2.544,0,3.533,3.533,0,0,0,1.059-.671h-4.663A3.533,3.533,0,0,0,202.8,13.39Zm13.125-6.424a3.925,3.925,0,0,1,.566-1.031V5.653h-3.18v8.638a0.156,0.156,0,0,1-.177.176h-1.767a0.156,0.156,0,0,1-.177-0.176V3.727a0.156,0.156,0,0,1,.177-0.176h5.3a0.156,0.156,0,0,1,.177.177v0.83c0.154,0.059.295,0.118,0.424,0.177a2.3,2.3,0,0,1,.39.229,1.5,1.5,0,0,1,.29-0.141l0.309-.106V3.728a0.156,0.156,0,0,1,.177-0.177h3.533a0.156,0.156,0,0,1,.177.175V5.3h1.59a0.156,0.156,0,0,1,.175.177v8.815a0.156,0.156,0,0,1-.175.176h-1.767a0.156,0.156,0,0,1-.177-0.176V5.706l-0.053-.052h-3.127V5.847a3.732,3.732,0,0,1,.522,1,3.464,3.464,0,0,1,.185,1.137,0.094,0.094,0,0,1-.106.106A0.078,0.078,0,0,1,219.12,8a3.357,3.357,0,0,0-.132-0.961,3.232,3.232,0,0,0-.38-0.837v8.092a0.156,0.156,0,0,1-.177.176h-1.767a0.155,0.155,0,0,1-.175-0.176V6.27a3.21,3.21,0,0,0-.566,1.887,0.093,0.093,0,0,1-.1.106,0.087,0.087,0,0,1-.106-0.088A3.465,3.465,0,0,1,215.923,6.966Zm-3.664-.318a3.583,3.583,0,0,1,.7-1.1V5.476a0.156,0.156,0,0,1,.177-0.177h0.07a3.357,3.357,0,0,1,1.1-.7,3.7,3.7,0,0,1,1.351-.244,4.3,4.3,0,0,1,.831.087V3.9h-4.947v10.21h1.413V5.846a3.246,3.246,0,0,0-.742,2.133,0.094,0.094,0,0,1-.106.106A0.087,0.087,0,0,1,212,8,3.519,3.519,0,0,1,212.259,6.649Zm3.4-2.109a3.33,3.33,0,0,0-1.166.2,3.57,3.57,0,0,0-.989.556h2.986V4.646A3.293,3.293,0,0,0,215.659,4.54Zm1.82,0.512c-0.106-.059-0.21-0.115-0.309-0.167a1.859,1.859,0,0,0-.328-0.133V5.3h0.283A3.2,3.2,0,0,1,217.478,5.052Zm-0.637.76v8.3h1.413V5.724l-0.053-.07H217Zm0.6-.512h0.371a0.449,0.449,0,0,0-.079-0.062,0.354,0.354,0,0,1-.079-0.062A1.492,1.492,0,0,0,217.443,5.3Zm0.6-.326a1.526,1.526,0,0,0-.194.1c0.046,0.035.091,0.07,0.132,0.106s0.085,0.077.132,0.124h0.141V4.893Q218.149,4.929,218.043,4.973Zm0.944-.423c0.124-.012.25-0.018,0.38-0.018a3.643,3.643,0,0,1,1.21.2,3.5,3.5,0,0,1,1.034.566h0.177V3.9h-3.18V4.6Q218.8,4.567,218.988,4.55Zm1.4,0.317a3.512,3.512,0,0,0-1.025-.15,3.572,3.572,0,0,0-.759.088V5.3h2.685A3.225,3.225,0,0,0,220.392,4.867Zm2.393,2.011a3.458,3.458,0,0,1,.239,1.278,0.093,0.093,0,0,1-.106.106,0.077,0.077,0,0,1-.088-0.088,3.254,3.254,0,0,0-.185-1.1,3.846,3.846,0,0,0-.5-0.96v8h1.413V5.653h-1.413V5.794A3.779,3.779,0,0,1,222.786,6.878Zm11.191,7.589h-7.065a0.156,0.156,0,0,1-.177-0.176V0.177A0.156,0.156,0,0,1,226.912,0h1.767a0.157,0.157,0,0,1,.177.178V3.551h5.122a0.156,0.156,0,0,1,.177.175V5.3h1.59a0.156,0.156,0,0,1,.177.177v7.065a0.156,0.156,0,0,1-.177.177h-1.59v1.574A0.155,0.155,0,0,1,233.977,14.467Zm-0.865-.929a0.088,0.088,0,0,1-.141,0,0.086,0.086,0,0,1,0-.139l0.689-.681h-4.981a0.156,0.156,0,0,1-.177-0.177V5.476a0.156,0.156,0,0,1,.177-0.177h4.964l-0.671-.663a0.086,0.086,0,0,1,0-.139,0.088,0.088,0,0,1,.141,0L233.8,5.178V3.9h-5.122a0.157,0.157,0,0,1-.177-0.178V0.354h-1.413V14.114H233.8V12.858ZM230.2,11.05a3.669,3.669,0,0,1,0-4.08A3.525,3.525,0,0,1,231.8,5.653h-2.95v6.713h2.95A3.525,3.525,0,0,1,230.2,11.05ZM231.372,6.1a3.413,3.413,0,0,0-.84.751,3.5,3.5,0,0,0-.556,1,3.429,3.429,0,0,0,0,2.323,3.524,3.524,0,0,0,.556.989,3.4,3.4,0,0,0,.84.751,3.537,3.537,0,0,0,1.051.451H233.8V5.653h-1.377A3.554,3.554,0,0,0,231.372,6.1Zm2.922,6.263h1.272V5.653h-1.289l0.865,0.865A0.1,0.1,0,0,1,235,6.66l-0.848-.848v6.412L235,11.376a0.1,0.1,0,0,1,.141.142Zm7.2-2.067a3.531,3.531,0,0,0,.574.945,3.411,3.411,0,0,0,.831.707,3.357,3.357,0,0,0,1.042.415h1.518v-1.59a0.156,0.156,0,0,1,.177-0.177H247.4a0.156,0.156,0,0,1,.177.177v1.766a0.156,0.156,0,0,1-.177.177h-1.59v1.574a0.155,0.155,0,0,1-.177.175h-5.3a0.155,0.155,0,0,1-.177-0.175V12.719h-1.59a0.156,0.156,0,0,1-.177-0.177V5.476A0.156,0.156,0,0,1,238.57,5.3h1.59V3.71a0.156,0.156,0,0,1,.177-0.176h5.3a0.156,0.156,0,0,1,.177.176V5.3h1.59a0.156,0.156,0,0,1,.177.177V9.009a0.156,0.156,0,0,1-.177.177h-6.166A3.406,3.406,0,0,0,241.494,10.3Zm-2.023-3.815a0.1,0.1,0,0,1-.142-0.142l0.69-.689h-1.272v6.713h1.413V9.009a0.157,0.157,0,0,1,.177-0.177h0.706a3.209,3.209,0,0,1,.354-1.413h-1.059a0.156,0.156,0,0,1-.177-0.176V5.794ZM240.654,5.3H245.3l-0.671-.671a0.1,0.1,0,0,1,.141-0.141l0.689,0.689V3.886h-4.945V5.159l0.848-.848a0.088,0.088,0,0,1,.141,0,0.09,0.09,0,0,1,0,.142Zm1.634,0.945a3.683,3.683,0,0,1,.927-0.592h-2.7V7.066h1.077A3.551,3.551,0,0,1,242.289,6.245Zm-0.575,4.867a3.49,3.49,0,0,1-.671-1.926h-0.529v3.18h2.773A3.727,3.727,0,0,1,241.714,11.111Zm3.056,2.427a0.088,0.088,0,0,1-.141,0,0.086,0.086,0,0,1,0-.139l0.689-.681h-4.8v1.4h4.945V12.858Zm1.042-7.727V7.243a0.156,0.156,0,0,1-.177.176h-4.027a3.662,3.662,0,0,0-.257.671,3.445,3.445,0,0,0-.115.742h5.989V5.653h-1.289L246.8,6.518a0.1,0.1,0,1,1-.141.142Zm-3.135.371a3.689,3.689,0,0,0-.857.883h3.638V5.653H243.8A3.21,3.21,0,0,0,242.677,6.183Zm3.276,6.183h1.272V10.953h-1.413v1.271l0.848-.848a0.1,0.1,0,1,1,.141.142Zm7.809-4.947h-1.59v6.872a0.156,0.156,0,0,1-.177.176h-1.767a0.156,0.156,0,0,1-.177-0.176V3.727a0.156,0.156,0,0,1,.177-0.176h1.767a0.156,0.156,0,0,1,.177.175V5.3h1.413V3.726a0.156,0.156,0,0,1,.177-0.175h3.532a0.156,0.156,0,0,1,.177.175V5.478a0.156,0.156,0,0,1-.177.175h-3.357v1.59A0.155,0.155,0,0,1,253.762,7.419Zm-0.937-.9a0.1,0.1,0,0,1-.141-0.142l0.725-.724h-1.413a0.156,0.156,0,0,1-.177-0.175V3.9h-1.413v10.21h1.413V7.242a0.156,0.156,0,0,1,.177-0.176h1.59V5.759ZM254.043,5.3h3.073V3.9h-3.18V5.126l0.814-.8a0.089,0.089,0,0,1,.141,0,0.086,0.086,0,0,1,0,.139Zm5.271,5.141a1.314,1.314,0,0,1-.009-0.159,0.094,0.094,0,0,1,.106-0.106,0.087,0.087,0,0,1,.106.088V10.6h0.812a0.156,0.156,0,0,1,.177.177v1.59h4.945V9.186h-5.122a0.156,0.156,0,0,1-.177-0.177V7.419H259.66a3.594,3.594,0,0,0-.07.742,0.094,0.094,0,0,1-.106.106,0.087,0.087,0,0,1-.106-0.088,3.593,3.593,0,0,1,.089-0.76h-0.9a0.156,0.156,0,0,1-.177-0.175V5.485a0.156,0.156,0,0,1,.177-0.175h1.59V3.727a0.156,0.156,0,0,1,.177-0.176h5.3a0.156,0.156,0,0,1,.177.176V5.31h1.59a0.156,0.156,0,0,1,.177.175V7.244a0.156,0.156,0,0,1-.177.175H266.6a3.517,3.517,0,0,1,.088.742,0.093,0.093,0,0,1-.1.106,0.079,0.079,0,0,1-.089-0.088,3.586,3.586,0,0,0-.088-0.76h-0.6V8.832h1.59a0.157,0.157,0,0,1,.177.177v3.533a0.156,0.156,0,0,1-.177.177h-1.59v1.574a0.155,0.155,0,0,1-.177.175h-5.3a0.155,0.155,0,0,1-.177-0.175V12.719h-1.59a0.156,0.156,0,0,1-.177-0.177V10.776a0.156,0.156,0,0,1,.177-0.177h0.759A1.323,1.323,0,0,0,259.315,10.44Zm0.84-4.5V5.653h-1.413V7.066h0.812A3.712,3.712,0,0,1,260.154,5.936Zm-0.778,5.017h-0.635v1.413h1.236A3.627,3.627,0,0,1,259.377,10.953Zm0.778,1.325V10.953h-0.584A3.455,3.455,0,0,0,260.154,12.277ZM259.933,6.66a2.934,2.934,0,0,0-.167.406h0.388V6.271A4.351,4.351,0,0,0,259.933,6.66Zm1.89-1.917a3.7,3.7,0,0,1,2.421,0,3.485,3.485,0,0,1,1.032.574h0.177V3.9h-4.945V5.317h0.282A3.493,3.493,0,0,1,261.823,4.743Zm3.577,0.91h-4.734l-0.158.159V7.066h4.945V5.706Zm-4.892,1.766V8.832h4.945V7.419h-4.945Zm3.824,6.218a3.478,3.478,0,0,1-1.369.265,3.519,3.519,0,0,1-2.455-.954v1.166h4.945v-1.2A3.8,3.8,0,0,1,264.332,13.637Zm-2.72-.185a3.471,3.471,0,0,0,2.7,0,3.508,3.508,0,0,0,1.085-.733h-4.875A3.5,3.5,0,0,0,261.612,13.452Zm2.447-8.585a3.572,3.572,0,0,0-2.05,0,3.225,3.225,0,0,0-.9.433h3.851A3.2,3.2,0,0,0,264.059,4.867Zm2.455,2.2h0.706V5.653h-1.413V5.794A3.947,3.947,0,0,1,266.514,7.066Zm-0.424-.5a3.25,3.25,0,0,0-.283-0.45V7.066H266.3A3.574,3.574,0,0,0,266.09,6.562Zm0.352,4.823a3.915,3.915,0,0,1-.495.98h1.272V9.186h-1.413v3.038a3.281,3.281,0,0,0,.6-1.943,0.094,0.094,0,0,1,.106-0.106,0.086,0.086,0,0,1,.1.088A3.47,3.47,0,0,1,266.442,11.385Zm14.768,3.082h-5.3a0.155,0.155,0,0,1-.177-0.175V12.719h-1.59a0.156,0.156,0,0,1-.177-0.177V5.476a0.156,0.156,0,0,1,.177-0.177h1.59V3.726a0.156,0.156,0,0,1,.177-0.175h5.3a0.156,0.156,0,0,1,.177.175V5.3h1.59a0.156,0.156,0,0,1,.177.177v7.065a0.156,0.156,0,0,1-.177.177h-1.59v1.574A0.155,0.155,0,0,1,281.21,14.467Zm-6.1-7.807a3.487,3.487,0,0,1,.538-1.007h-1.324v6.713h1.413v-6.5a3.271,3.271,0,0,0-.6,1.943,0.093,0.093,0,0,1-.106.106,0.086,0.086,0,0,1-.1-0.088A3.609,3.609,0,0,1,275.108,6.66Zm2.1-2.208a3.478,3.478,0,0,1,1.369-.265,3.519,3.519,0,0,1,2.455.954V3.9h-4.945V5.176A3.8,3.8,0,0,1,277.209,4.452Zm-1.121,7.914h4.945V5.653h-4.945v6.713Zm4.257,1.173a0.088,0.088,0,0,1-.141,0,0.086,0.086,0,0,1,0-.139l0.689-.681h-4.8v1.4h4.945V12.858Zm-0.469-8.928a3.531,3.531,0,0,0-2.6,0,3.328,3.328,0,0,0-1.068.689h4.734A3.334,3.334,0,0,0,279.876,4.611Zm1.652,7.755H282.8V5.653H281.51a3.457,3.457,0,0,1,.539,1.007,3.554,3.554,0,0,1,.185,1.148,0.094,0.094,0,0,1-.106.106,0.077,0.077,0,0,1-.088-0.088,3.283,3.283,0,0,0-.177-1.078,3.705,3.705,0,0,0-.477-0.936v6.412l0.848-.848a0.1,0.1,0,1,1,.141.142Zm6.219-6.713v8.638a0.156,0.156,0,0,1-.177.176H285.8a0.156,0.156,0,0,1-.177-0.176V3.727a0.156,0.156,0,0,1,.177-0.176h7.065a0.156,0.156,0,0,1,.177.175V5.3h1.59a0.156,0.156,0,0,1,.177.177v8.815a0.156,0.156,0,0,1-.177.176h-1.767a0.156,0.156,0,0,1-.177-0.176V5.653h-4.945Zm-0.989.889a3.369,3.369,0,0,1,.635-1.066,0.168,0.168,0,0,1,.141-0.177,4.062,4.062,0,0,1,1.185-.811,3.658,3.658,0,0,1,2.843-.035,3.926,3.926,0,0,1,1.13.725V3.9H285.98v10.21h1.413V5.776a3.364,3.364,0,0,0-.654,2.027,0.093,0.093,0,0,1-.1.106,0.086,0.086,0,0,1-.106-0.088A3.576,3.576,0,0,1,286.757,6.542Zm4.725-1.931a3.535,3.535,0,0,0-2.6,0,3.343,3.343,0,0,0-1.068.689h4.734A3.343,3.343,0,0,0,291.482,4.611Zm2.172,2.047A3.541,3.541,0,0,1,293.84,7.8a0.094,0.094,0,0,1-.106.106,0.078,0.078,0,0,1-.088-0.088,3.4,3.4,0,0,0-.6-1.939v8.233h1.413V5.653h-1.343A3.445,3.445,0,0,1,293.655,6.658Zm8.717-3.107h0.778a0.156,0.156,0,0,1,.177.176V14.291a0.156,0.156,0,0,1-.177.176h-1.767a0.156,0.156,0,0,1-.177-0.176V3.727a0.156,0.156,0,0,1,.177-0.176h0.812V2.12h-0.812a0.156,0.156,0,0,1-.177-0.177V0.177A0.157,0.157,0,0,1,301.383,0h1.767a0.157,0.157,0,0,1,.177.177V1.944a0.156,0.156,0,0,1-.177.177h-0.76Zm0-1.784h0.6V0.354h-1.413V1.767h0.618V1.06a0.078,0.078,0,0,1,.088-0.088,0.087,0.087,0,0,1,.106.088V1.767ZM302.389,5a0.086,0.086,0,0,1-.1.088A0.078,0.078,0,0,1,302.195,5V3.9h-0.635v10.21h1.413V3.9h-0.584V5Zm4.646,7.72a0.156,0.156,0,0,1-.177-0.177V5.653h-1.59a0.156,0.156,0,0,1-.177-0.175V3.726a0.156,0.156,0,0,1,.177-0.175h1.59V1.945a0.157,0.157,0,0,1,.177-0.178H308.8a0.157,0.157,0,0,1,.175.178V3.551h1.59a0.156,0.156,0,0,1,.177.175V5.478a0.156,0.156,0,0,1-.177.175h-1.59v6.713h1.59a0.155,0.155,0,0,1,.177.175v1.752a0.156,0.156,0,0,1-.177.175H308.8a0.155,0.155,0,0,1-.177-0.175V12.719h-1.59ZM306.17,4.875a0.1,0.1,0,0,1-.142-0.141l0.831-.83h-1.413V5.3h1.59a0.156,0.156,0,0,1,.177.177v6.889h1.236l-0.795-.795a0.1,0.1,0,0,1,.141-0.142l0.831,0.83V5.476A0.156,0.156,0,0,1,308.8,5.3h1.59V3.9H308.8a0.157,0.157,0,0,1-.177-0.178V2.12h-1.413v1.43L308.06,2.7a0.088,0.088,0,0,1,.141,0,0.089,0.089,0,0,1,0,.141Zm2.807,8.018v1.221h1.415v-1.4h-1.308l0.584,0.576a0.088,0.088,0,0,1,0,.139,0.09,0.09,0,0,1-.142,0Zm4.064-.528h1.767a0.155,0.155,0,0,1,.177.175v1.752a0.156,0.156,0,0,1-.177.175h-1.767a0.156,0.156,0,0,1-.177-0.175V12.54A0.155,0.155,0,0,1,313.041,12.366Zm0.177,1.749h1.413v-1.4h-1.413v1.4Z"/></svg>