<?xml version="1.0" standalone="yes"?>
<!DOCTYPE svg PUBLIC "-//W3C//DTD SVG 1.1//EN" 
   "http://www.w3.org/Graphics/SVG/1.1/DTD/svg11.dtd">
<svg width="4266" height="2049" version="1.1" 
   xmlns="http://www.w3.org/2000/svg">
   <polygon points="0,2049 3360,2049 1731,1955" style="fill:rgba(143,126,174,1)" />
   <polygon points="505,1974 0,2049 1731,1955" style="fill:rgba(143,126,174,1)" />
   <polygon points="4266,1723 4266,1227 3606,1427" style="fill:rgba(45,93,178,1)" />
   <polygon points="3360,2049 3914,2049 3583,1909" style="fill:rgba(37,26,144,1)" />
   <polygon points="558,594 735,331 527,377" style="fill:rgba(197,245,203,1)" />
   <polygon points="2333,1668 2199,1725 2513,1795" style="fill:rgba(47,94,177,1)" />
   <polygon points="3914,2049 4266,1723 3597,1634" style="fill:rgba(39,42,155,1)" />
   <polygon points="4266,1723 3606,1427 3597,1634" style="fill:rgba(42,73,170,1)" />
   <polygon points="3583,1909 3914,2049 3597,1634" style="fill:rgba(39,42,155,1)" />
   <polygon points="4266,502 3863,570 4071,734" style="fill:rgba(64,114,178,1)" />
   <polygon points="3863,570 3849,711 4071,734" style="fill:rgba(75,129,182,1)" />
   <polygon points="4266,502 4266,0 3861,566" style="fill:rgba(143,140,188,1)" />
   <polygon points="3863,570 4266,502 3861,566" style="fill:rgba(64,114,178,1)" />
   <polygon points="3849,711 3863,570 3861,566" style="fill:rgba(75,129,182,1)" />
   <polygon points="4266,1723 3914,2049 4233,1916" style="fill:rgba(37,21,145,1)" />
   <polygon points="3914,2049 4266,2049 4233,1916" style="fill:rgba(37,21,145,1)" />
   <polygon points="4266,2049 4266,1723 4233,1916" style="fill:rgba(37,27,144,1)" />
   <polygon points="3861,566 4266,0 3624,427" style="fill:rgba(143,140,188,1)" />
   <polygon points="3315,636 3849,711 3624,427" style="fill:rgba(111,156,185,1)" />
   <polygon points="3849,711 3861,566 3624,427" style="fill:rgba(111,145,179,1)" />
   <polygon points="4266,0 1438,0 1748,159" style="fill:rgba(176,225,220,1)" />
   <polygon points="1731,1955 2199,1725 1532,1565" style="fill:rgba(71,134,187,1)" />
   <polygon points="558,594 714,722 857,670" style="fill:rgba(167,235,208,1)" />
   <polygon points="3360,2049 3583,1909 3154,1715" style="fill:rgba(42,72,169,1)" />
   <polygon points="3583,1909 3597,1634 3154,1715" style="fill:rgba(42,72,169,1)" />
   <polygon points="3597,1634 3606,1427 3154,1715" style="fill:rgba(45,97,181,1)" />
   <polygon points="3154,1715 3606,1427 3069,875" style="fill:rgba(57,148,199,1)" />
   <polygon points="0,149 0,1699 94,1062" style="fill:rgba(247,255,221,1)" />
   <polygon points="558,594 0,149 94,1062" style="fill:rgba(247,255,221,1)" />
   <polygon points="0,149 558,594 118,133" style="fill:rgba(247,255,221,1)" />
   <polygon points="558,594 527,377 118,133" style="fill:rgba(228,248,215,1)" />
   <polygon points="0,104 0,149 118,133" style="fill:rgba(247,255,221,1)" />
   <polygon points="527,377 288,69 118,133" style="fill:rgba(243,250,222,1)" />
   <polygon points="0,0 0,104 118,133" style="fill:rgba(254,255,225,1)" />
   <polygon points="288,69 0,0 118,133" style="fill:rgba(254,255,225,1)" />
   <polygon points="1532,1565 1305,864 1173,1018" style="fill:rgba(99,202,207,1)" />
   <polygon points="857,670 714,722 1173,1018" style="fill:rgba(134,223,206,1)" />
   <polygon points="505,1974 1731,1955 1306,1924" style="fill:rgba(109,113,165,1)" />
   <polygon points="94,1062 0,1699 116,1252" style="fill:rgba(158,215,214,1)" />
   <polygon points="714,722 558,594 584,899" style="fill:rgba(167,235,208,1)" />
   <polygon points="558,594 94,1062 584,899" style="fill:rgba(198,246,213,1)" />
   <polygon points="1173,1018 714,722 584,899" style="fill:rgba(167,235,208,1)" />
   <polygon points="561,1025 1173,1018 584,899" style="fill:rgba(138,219,211,1)" />
   <polygon points="94,1062 116,1252 270,1132" style="fill:rgba(158,215,214,1)" />
   <polygon points="561,1025 584,899 270,1132" style="fill:rgba(140,210,210,1)" />
   <polygon points="584,899 94,1062 270,1132" style="fill:rgba(156,225,215,1)" />
   <polygon points="735,331 558,594 922,506" style="fill:rgba(192,241,202,1)" />
   <polygon points="558,594 857,670 922,506" style="fill:rgba(167,235,208,1)" />
   <polygon points="1731,1955 1532,1565 1480,1804" style="fill:rgba(71,134,187,1)" />
   <polygon points="1306,1924 1731,1955 1480,1804" style="fill:rgba(78,120,177,1)" />
   <polygon points="2333,1668 2513,1795 2721,1554" style="fill:rgba(46,103,183,1)" />
   <polygon points="857,670 1173,1018 1115,665" style="fill:rgba(134,223,206,1)" />
   <polygon points="1173,1018 1305,864 1115,665" style="fill:rgba(128,220,206,1)" />
   <polygon points="922,506 857,670 1115,665" style="fill:rgba(128,220,206,1)" />
   <polygon points="1074,0 0,0 598,54" style="fill:rgba(254,255,225,1)" />
   <polygon points="0,0 288,69 598,54" style="fill:rgba(254,255,225,1)" />
   <polygon points="735,331 1074,0 598,54" style="fill:rgba(217,242,213,1)" />
   <polygon points="527,377 735,331 598,54" style="fill:rgba(217,242,213,1)" />
   <polygon points="288,69 527,377 598,54" style="fill:rgba(228,248,215,1)" />
   <polygon points="3624,427 4266,0 2942,389" style="fill:rgba(148,173,207,1)" />
   <polygon points="4266,0 1748,159 2942,389" style="fill:rgba(153,216,216,1)" />
   <polygon points="3315,636 3624,427 2942,389" style="fill:rgba(117,174,192,1)" />
   <polygon points="3069,875 3315,636 2942,389" style="fill:rgba(117,174,192,1)" />
   <polygon points="3154,1715 3069,875 2669,1343" style="fill:rgba(57,159,206,1)" />
   <polygon points="2721,1554 3154,1715 2669,1343" style="fill:rgba(48,130,197,1)" />
   <polygon points="2333,1668 2721,1554 2669,1343" style="fill:rgba(48,128,196,1)" />
   <polygon points="2136,1263 2333,1668 2669,1343" style="fill:rgba(51,145,202,1)" />
   <polygon points="1532,1565 1173,1018 1232,1829" style="fill:rgba(99,202,207,1)" />
   <polygon points="505,1974 1306,1924 1232,1829" style="fill:rgba(111,130,174,1)" />
   <polygon points="1748,159 1305,864 1949,806" style="fill:rgba(177,228,213,1)" />
   <polygon points="1305,864 1532,1565 1949,806" style="fill:rgba(89,199,210,1)" />
   <polygon points="1306,1924 1480,1804 1352,1793" style="fill:rgba(78,120,177,1)" />
   <polygon points="1232,1829 1306,1924 1352,1793" style="fill:rgba(78,120,177,1)" />
   <polygon points="1480,1804 1532,1565 1352,1793" style="fill:rgba(71,134,187,1)" />
   <polygon points="1532,1565 1232,1829 1352,1793" style="fill:rgba(71,134,187,1)" />
   <polygon points="2942,389 1748,159 2520,501" style="fill:rgba(153,216,216,1)" />
   <polygon points="1748,159 1949,806 2520,501" style="fill:rgba(153,216,216,1)" />
   <polygon points="3069,875 2942,389 2520,501" style="fill:rgba(131,189,204,1)" />
   <polygon points="2136,1263 2669,1343 2520,501" style="fill:rgba(98,191,205,1)" />
   <polygon points="1949,806 2136,1263 2520,501" style="fill:rgba(104,203,207,1)" />
   <polygon points="2669,1343 3069,875 2520,501" style="fill:rgba(75,176,206,1)" />
   <polygon points="1232,1829 1173,1018 659,1519" style="fill:rgba(124,205,206,1)" />
   <polygon points="505,1974 1232,1829 659,1519" style="fill:rgba(121,151,185,1)" />
   <polygon points="116,1252 0,1699 603,1447" style="fill:rgba(158,215,214,1)" />
   <polygon points="270,1132 116,1252 603,1447" style="fill:rgba(158,215,214,1)" />
   <polygon points="0,1699 0,2049 357,1905" style="fill:rgba(144,149,185,1)" />
   <polygon points="0,2049 505,1974 357,1905" style="fill:rgba(143,126,174,1)" />
   <polygon points="603,1447 0,1699 357,1905" style="fill:rgba(152,184,204,1)" />
   <polygon points="505,1974 659,1519 357,1905" style="fill:rgba(133,161,190,1)" />
   <polygon points="659,1519 603,1447 357,1905" style="fill:rgba(133,161,190,1)" />
   <polygon points="1748,159 1438,0 1331,33" style="fill:rgba(176,225,220,1)" />
   <polygon points="1438,0 1074,0 1331,33" style="fill:rgba(194,233,212,1)" />
   <polygon points="3606,1427 4266,1227 3593,1031" style="fill:rgba(50,109,184,1)" />
   <polygon points="3849,711 3315,636 3593,1031" style="fill:rgba(83,152,191,1)" />
   <polygon points="4071,734 3849,711 3593,1031" style="fill:rgba(75,129,182,1)" />
   <polygon points="3315,636 3069,875 3593,1031" style="fill:rgba(87,160,195,1)" />
   <polygon points="3069,875 3606,1427 3593,1031" style="fill:rgba(57,148,199,1)" />
   <polygon points="561,1025 270,1132 628,1214" style="fill:rgba(140,210,210,1)" />
   <polygon points="270,1132 603,1447 628,1214" style="fill:rgba(140,210,210,1)" />
   <polygon points="1173,1018 561,1025 628,1214" style="fill:rgba(124,205,206,1)" />
   <polygon points="659,1519 1173,1018 628,1214" style="fill:rgba(124,205,206,1)" />
   <polygon points="603,1447 659,1519 628,1214" style="fill:rgba(120,190,203,1)" />
   <polygon points="1074,0 735,331 1098,475" style="fill:rgba(215,239,217,1)" />
   <polygon points="735,331 922,506 1098,475" style="fill:rgba(199,240,206,1)" />
   <polygon points="1305,864 1748,159 1098,475" style="fill:rgba(194,233,212,1)" />
   <polygon points="1115,665 1305,864 1098,475" style="fill:rgba(147,226,202,1)" />
   <polygon points="1748,159 1331,33 1098,475" style="fill:rgba(194,233,212,1)" />
   <polygon points="1331,33 1074,0 1098,475" style="fill:rgba(194,233,212,1)" />
   <polygon points="922,506 1115,665 1098,475" style="fill:rgba(147,226,202,1)" />
   <polygon points="1731,1955 3360,2049 2531,1827" style="fill:rgba(51,90,171,1)" />
   <polygon points="2199,1725 1731,1955 2531,1827" style="fill:rgba(57,118,183,1)" />
   <polygon points="2513,1795 2199,1725 2531,1827" style="fill:rgba(47,94,177,1)" />
   <polygon points="3360,2049 3154,1715 2531,1827" style="fill:rgba(46,103,183,1)" />
   <polygon points="3154,1715 2721,1554 2531,1827" style="fill:rgba(46,103,183,1)" />
   <polygon points="2721,1554 2513,1795 2531,1827" style="fill:rgba(46,103,183,1)" />
   <polygon points="4266,1227 4266,502 4182,801" style="fill:rgba(114,128,168,1)" />
   <polygon points="4266,502 4071,734 4182,801" style="fill:rgba(83,118,172,1)" />
   <polygon points="4071,734 3593,1031 4182,801" style="fill:rgba(75,129,182,1)" />
   <polygon points="3593,1031 4266,1227 4182,801" style="fill:rgba(56,126,188,1)" />
   <polygon points="2199,1725 2333,1668 2096,1349" style="fill:rgba(54,147,200,1)" />
   <polygon points="2333,1668 2136,1263 2096,1349" style="fill:rgba(51,145,202,1)" />
   <polygon points="1532,1565 2199,1725 2096,1349" style="fill:rgba(74,157,197,1)" />
   <polygon points="2136,1263 1949,806 2096,1349" style="fill:rgba(79,199,213,1)" />
   <polygon points="1949,806 1532,1565 2096,1349" style="fill:rgba(107,212,209,1)" />
</svg>