<?xml version="1.0" standalone="yes"?>
<!DOCTYPE svg PUBLIC "-//W3C//DTD SVG 1.1//EN" 
   "http://www.w3.org/Graphics/SVG/1.1/DTD/svg11.dtd">
<svg width="853" height="410" viewBox="0 0 853 410" version="1.1" 
   xmlns="http://www.w3.org/2000/svg">
   <polygon points="10,30 102,44 84,2" style="fill:rgba(1,1,1,0.00392156862745098)" />
   <polygon points="155,8 102,44 162,88" style="fill:rgba(1,1,1,0.12941176470588237)" />
   <polygon points="227,45 155,8 162,88" style="fill:rgba(1,1,1,0.2235294117647059)" />
   <polygon points="162,88 102,44 121,91" style="fill:rgba(1,1,1,0.17254901960784313)" />
   <polygon points="102,44 10,30 57,121" style="fill:rgba(1,1,1,0.023529411764705882)" />
   <polygon points="121,91 102,44 57,121" style="fill:rgba(1,1,1,0.09411764705882353)" />
   <polygon points="162,88 121,91 120,166" style="fill:rgba(1,1,1,0.25882352941176473)" />
   <polygon points="121,91 57,121 120,166" style="fill:rgba(1,1,1,0.1411764705882353)" />
   <polygon points="57,121 51,160 120,166" style="fill:rgba(1,1,1,0.16862745098039217)" />
   <polygon points="227,45 162,88 250,89" style="fill:rgba(1,1,1,0.28627450980392155)" />
   <polygon points="227,45 250,89 302,34" style="fill:rgba(1,1,1,0.4117647058823529)" />
   <polygon points="302,34 250,89 319,80" style="fill:rgba(1,1,1,0.4588235294117647)" />
   <polygon points="250,89 162,88 246,142" style="fill:rgba(1,1,1,0.3411764705882353)" />
   <polygon points="319,80 250,89 246,142" style="fill:rgba(1,1,1,0.5058823529411764)" />
   <polygon points="352,100 319,80 307,184" style="fill:rgba(1,1,1,0.5803921568627451)" />
   <polygon points="319,80 246,142 307,184" style="fill:rgba(1,1,1,0.5058823529411764)" />
   <polygon points="246,142 255,236 307,184" style="fill:rgba(1,1,1,0.5568627450980392)" />
   <polygon points="307,184 255,236 301,241" style="fill:rgba(1,1,1,0.596078431372549)" />
   <polygon points="352,100 307,184 347,194" style="fill:rgba(1,1,1,0.596078431372549)" />
   <polygon points="307,184 301,241 347,194" style="fill:rgba(1,1,1,0.6509803921568628)" />
   <polygon points="301,241 355,250 347,194" style="fill:rgba(1,1,1,0.6549019607843137)" />
   <polygon points="352,100 347,194 413,162" style="fill:rgba(1,1,1,0.6392156862745098)" />
   <polygon points="352,100 413,162 415,84" style="fill:rgba(1,1,1,0.6352941176470588)" />
   <polygon points="302,34 319,80 384,62" style="fill:rgba(1,1,1,0.5411764705882353)" />
   <polygon points="319,80 352,100 384,62" style="fill:rgba(1,1,1,0.5803921568627451)" />
   <polygon points="352,100 415,84 384,62" style="fill:rgba(1,1,1,0.6196078431372549)" />
   <polygon points="384,62 415,84 423,43" style="fill:rgba(1,1,1,0.6392156862745098)" />
   <polygon points="618,100 614,15 572,34" style="fill:rgba(1,1,1,0.5098039215686274)" />
   <polygon points="614,15 618,100 698,45" style="fill:rgba(1,1,1,0.4588235294117647)" />
   <polygon points="788,22 698,45 775,96" style="fill:rgba(1,1,1,0.3607843137254902)" />
   <polygon points="844,31 788,22 775,96" style="fill:rgba(1,1,1,0.25882352941176473)" />
   <polygon points="851,108 844,31 775,96" style="fill:rgba(1,1,1,0.27450980392156865)" />
   <polygon points="851,108 775,96 833,172" style="fill:rgba(1,1,1,0.4117647058823529)" />
   <polygon points="833,172 775,96 762,195" style="fill:rgba(1,1,1,0.43137254901960786)" />
   <polygon points="698,45 618,100 684,128" style="fill:rgba(1,1,1,0.5098039215686274)" />
   <polygon points="775,96 698,45 684,128" style="fill:rgba(1,1,1,0.42745098039215684)" />
   <polygon points="762,195 775,96 684,128" style="fill:rgba(1,1,1,0.5215686274509804)" />
   <polygon points="695,188 762,195 684,128" style="fill:rgba(1,1,1,0.5607843137254902)" />
   <polygon points="618,100 572,34 577,115" style="fill:rgba(1,1,1,0.5333333333333333)" />
   <polygon points="423,43 415,84 506,89" style="fill:rgba(1,1,1,0.6588235294117647)" />
   <polygon points="487,30 423,43 506,89" style="fill:rgba(1,1,1,0.6392156862745098)" />
   <polygon points="415,84 413,162 506,89" style="fill:rgba(1,1,1,0.7019607843137254)" />
   <polygon points="572,34 487,30 506,89" style="fill:rgba(1,1,1,0.592156862745098)" />
   <polygon points="577,115 572,34 506,89" style="fill:rgba(1,1,1,0.5843137254901961)" />
   <polygon points="506,89 413,162 487,176" style="fill:rgba(1,1,1,0.7058823529411765)" />
   <polygon points="577,115 506,89 563,171" style="fill:rgba(1,1,1,0.6470588235294118)" />
   <polygon points="506,89 487,176 563,171" style="fill:rgba(1,1,1,0.6627450980392157)" />
   <polygon points="695,188 684,128 630,166" style="fill:rgba(1,1,1,0.6)" />
   <polygon points="684,128 618,100 630,166" style="fill:rgba(1,1,1,0.5725490196078431)" />
   <polygon points="618,100 577,115 630,166" style="fill:rgba(1,1,1,0.6078431372549019)" />
   <polygon points="577,115 563,171 630,166" style="fill:rgba(1,1,1,0.6352941176470588)" />
   <polygon points="162,88 120,166 194,193" style="fill:rgba(1,1,1,0.25882352941176473)" />
   <polygon points="246,142 162,88 194,193" style="fill:rgba(1,1,1,0.3411764705882353)" />
   <polygon points="255,236 246,142 194,193" style="fill:rgba(1,1,1,0.48627450980392156)" />
   <polygon points="120,166 51,160 108,230" style="fill:rgba(1,1,1,0.21176470588235294)" />
   <polygon points="51,160 52,245 108,230" style="fill:rgba(1,1,1,0.21176470588235294)" />
   <polygon points="194,193 120,166 164,232" style="fill:rgba(1,1,1,0.3607843137254902)" />
   <polygon points="120,166 108,230 164,232" style="fill:rgba(1,1,1,0.3333333333333333)" />
   <polygon points="255,236 194,193 164,232" style="fill:rgba(1,1,1,0.49411764705882355)" />
   <polygon points="347,194 355,250 416,244" style="fill:rgba(1,1,1,0.7058823529411765)" />
   <polygon points="413,162 347,194 416,244" style="fill:rgba(1,1,1,0.6862745098039216)" />
   <polygon points="487,176 413,162 416,244" style="fill:rgba(1,1,1,0.7568627450980392)" />
   <polygon points="563,171 487,176 520,234" style="fill:rgba(1,1,1,0.7490196078431373)" />
   <polygon points="487,176 416,244 520,234" style="fill:rgba(1,1,1,0.7686274509803922)" />
   <polygon points="630,166 563,171 586,216" style="fill:rgba(1,1,1,0.6941176470588235)" />
   <polygon points="563,171 520,234 586,216" style="fill:rgba(1,1,1,0.7254901960784313)" />
   <polygon points="695,188 630,166 632,231" style="fill:rgba(1,1,1,0.6431372549019608)" />
   <polygon points="630,166 586,216 632,231" style="fill:rgba(1,1,1,0.6745098039215687)" />
   <polygon points="762,195 695,188 688,254" style="fill:rgba(1,1,1,0.6274509803921569)" />
   <polygon points="695,188 632,231 688,254" style="fill:rgba(1,1,1,0.6666666666666666)" />
   <polygon points="833,172 762,195 792,258" style="fill:rgba(1,1,1,0.5490196078431373)" />
   <polygon points="762,195 688,254 792,258" style="fill:rgba(1,1,1,0.6352941176470588)" />
   <polygon points="833,172 792,258 851,253" style="fill:rgba(1,1,1,0.5294117647058824)" />
   <polygon points="851,253 792,258 811,284" style="fill:rgba(1,1,1,0.6235294117647059)" />
   <polygon points="792,258 688,254 786,285" style="fill:rgba(1,1,1,0.7019607843137254)" />
   <polygon points="811,284 792,258 786,285" style="fill:rgba(1,1,1,0.6352941176470588)" />
   <polygon points="811,284 786,285 820,379" style="fill:rgba(1,1,1,0.6627450980392157)" />
   <polygon points="820,379 786,285 777,390" style="fill:rgba(1,1,1,0.6745098039215687)" />
   <polygon points="786,285 688,254 692,320" style="fill:rgba(1,1,1,0.7019607843137254)" />
   <polygon points="777,390 786,285 692,320" style="fill:rgba(1,1,1,0.7333333333333333)" />
   <polygon points="685,358 777,390 692,320" style="fill:rgba(1,1,1,0.7725490196078432)" />
   <polygon points="688,254 632,231 649,295" style="fill:rgba(1,1,1,0.7137254901960784)" />
   <polygon points="692,320 688,254 649,295" style="fill:rgba(1,1,1,0.7254901960784313)" />
   <polygon points="632,231 586,216 574,327" style="fill:rgba(1,1,1,0.7372549019607844)" />
   <polygon points="649,295 632,231 574,327" style="fill:rgba(1,1,1,0.7568627450980392)" />
   <polygon points="685,358 692,320 652,363" style="fill:rgba(1,1,1,0.796078431372549)" />
   <polygon points="692,320 649,295 652,363" style="fill:rgba(1,1,1,0.7725490196078432)" />
   <polygon points="649,295 574,327 652,363" style="fill:rgba(1,1,1,0.8196078431372549)" />
   <polygon points="685,358 652,363 659,410" style="fill:rgba(1,1,1,0.8352941176470589)" />
   <polygon points="652,363 574,327 575,363" style="fill:rgba(1,1,1,0.8509803921568627)" />
   <polygon points="659,410 652,363 575,363" style="fill:rgba(1,1,1,0.8823529411764706)" />
   <polygon points="575,363 574,327 511,373" style="fill:rgba(1,1,1,0.8862745098039215)" />
   <polygon points="586,216 520,234 526,309" style="fill:rgba(1,1,1,0.7725490196078432)" />
   <polygon points="574,327 586,216 526,309" style="fill:rgba(1,1,1,0.7686274509803922)" />
   <polygon points="511,373 574,327 526,309" style="fill:rgba(1,1,1,0.8666666666666667)" />
   <polygon points="520,234 416,244 423,287" style="fill:rgba(1,1,1,0.807843137254902)" />
   <polygon points="526,309 520,234 423,287" style="fill:rgba(1,1,1,0.8156862745098039)" />
   <polygon points="412,390 511,373 423,287" style="fill:rgba(1,1,1,0.8352941176470589)" />
   <polygon points="511,373 526,309 423,287" style="fill:rgba(1,1,1,0.8470588235294118)" />
   <polygon points="416,244 355,250 355,276" style="fill:rgba(1,1,1,0.7529411764705882)" />
   <polygon points="423,287 416,244 355,276" style="fill:rgba(1,1,1,0.7529411764705882)" />
   <polygon points="301,241 255,236 323,288" style="fill:rgba(1,1,1,0.6352941176470588)" />
   <polygon points="355,250 301,241 323,288" style="fill:rgba(1,1,1,0.6901960784313725)" />
   <polygon points="355,276 355,250 323,288" style="fill:rgba(1,1,1,0.7215686274509804)" />
   <polygon points="255,236 164,232 224,299" style="fill:rgba(1,1,1,0.5254901960784314)" />
   <polygon points="323,288 255,236 224,299" style="fill:rgba(1,1,1,0.6)" />
   <polygon points="224,299 164,232 147,313" style="fill:rgba(1,1,1,0.5058823529411764)" />
   <polygon points="108,230 52,245 100,282" style="fill:rgba(1,1,1,0.30196078431372547)" />
   <polygon points="164,232 108,230 100,282" style="fill:rgba(1,1,1,0.403921568627451)" />
   <polygon points="147,313 164,232 100,282" style="fill:rgba(1,1,1,0.40784313725490196)" />
   <polygon points="100,282 52,245 38,296" style="fill:rgba(1,1,1,0.29411764705882354)" />
   <polygon points="100,282 38,296 57,362" style="fill:rgba(1,1,1,0.34509803921568627)" />
   <polygon points="147,313 100,282 79,374" style="fill:rgba(1,1,1,0.43137254901960786)" />
   <polygon points="100,282 57,362 79,374" style="fill:rgba(1,1,1,0.3843137254901961)" />
   <polygon points="224,299 147,313 180,382" style="fill:rgba(1,1,1,0.5568627450980392)" />
   <polygon points="147,313 79,374 180,382" style="fill:rgba(1,1,1,0.4745098039215686)" />
   <polygon points="224,299 180,382 228,381" style="fill:rgba(1,1,1,0.596078431372549)" />
   <polygon points="323,288 224,299 315,371" style="fill:rgba(1,1,1,0.6352941176470588)" />
   <polygon points="224,299 228,381 315,371" style="fill:rgba(1,1,1,0.6470588235294118)" />
   <polygon points="412,390 423,287 361,360" style="fill:rgba(1,1,1,0.788235294117647)" />
   <polygon points="423,287 355,276 361,360" style="fill:rgba(1,1,1,0.7725490196078432)" />
   <polygon points="355,276 323,288 361,360" style="fill:rgba(1,1,1,0.7372549019607844)" />
   <polygon points="323,288 315,371 361,360" style="fill:rgba(1,1,1,0.7372549019607844)" />
   <polygon points="10,30 84,2 27,-43" style="fill:rgba(1,1,1,0.00392156862745098)" />
   <polygon points="102,44 155,8 93,-10" style="fill:rgba(1,1,1,0.10588235294117647)" />
   <polygon points="84,2 102,44 93,-10" style="fill:rgba(1,1,1,0.09803921568627451)" />
   <polygon points="27,-43 84,2 93,-10" style="fill:rgba(1,1,1,0.0196078431372549)" />
   <polygon points="27,-43 93,-10 177,-47" style="fill:rgba(1,1,1,0)" />
   <polygon points="93,-10 155,8 177,-47" style="fill:rgba(1,1,1,0.10588235294117647)" />
   <polygon points="155,8 227,45 239,-20" style="fill:rgba(1,1,1,0.21568627450980393)" />
   <polygon points="177,-47 155,8 239,-20" style="fill:rgba(1,1,1,0.21568627450980393)" />
   <polygon points="227,45 302,34 239,-20" style="fill:rgba(1,1,1,0.3607843137254902)" />
   <polygon points="302,34 384,62 317,-39" style="fill:rgba(1,1,1,0.5137254901960784)" />
   <polygon points="239,-20 302,34 317,-39" style="fill:rgba(1,1,1,0.38823529411764707)" />
   <polygon points="177,-47 239,-20 317,-39" style="fill:rgba(1,1,1,0)" />
   <polygon points="384,62 423,43 384,-56" style="fill:rgba(1,1,1,0.611764705882353)" />
   <polygon points="317,-39 384,62 384,-56" style="fill:rgba(1,1,1,0.5333333333333333)" />
   <polygon points="177,-47 317,-39 384,-56" style="fill:rgba(1,1,1,0)" />
   <polygon points="423,43 487,30 458,-27" style="fill:rgba(1,1,1,0.6039215686274509)" />
   <polygon points="384,-56 423,43 458,-27" style="fill:rgba(1,1,1,0.611764705882353)" />
   <polygon points="487,30 572,34 516,-13" style="fill:rgba(1,1,1,0.5568627450980392)" />
   <polygon points="458,-27 487,30 516,-13" style="fill:rgba(1,1,1,0.5803921568627451)" />
   <polygon points="572,34 614,15 548,-17" style="fill:rgba(1,1,1,0.5098039215686274)" />
   <polygon points="516,-13 572,34 548,-17" style="fill:rgba(1,1,1,0.5372549019607843)" />
   <polygon points="458,-27 516,-13 548,-17" style="fill:rgba(1,1,1,0)" />
   <polygon points="548,-17 614,15 627,-37" style="fill:rgba(1,1,1,0.5098039215686274)" />
   <polygon points="384,-56 458,-27 627,-37" style="fill:rgba(1,1,1,0)" />
   <polygon points="458,-27 548,-17 627,-37" style="fill:rgba(1,1,1,0)" />
   <polygon points="614,15 698,45 706,-29" style="fill:rgba(1,1,1,0.42745098039215684)" />
   <polygon points="627,-37 614,15 706,-29" style="fill:rgba(1,1,1,0.42745098039215684)" />
   <polygon points="384,-56 627,-37 748,-37" style="fill:rgba(1,1,1,0)" />
   <polygon points="698,45 788,22 748,-37" style="fill:rgba(1,1,1,0.3137254901960784)" />
   <polygon points="706,-29 698,45 748,-37" style="fill:rgba(1,1,1,0.3137254901960784)" />
   <polygon points="627,-37 706,-29 748,-37" style="fill:rgba(1,1,1,0)" />
   <polygon points="788,22 844,31 855,-31" style="fill:rgba(1,1,1,0.2)" />
   <polygon points="748,-37 788,22 855,-31" style="fill:rgba(1,1,1,0.25098039215686274)" />
   <polygon points="855,-31 844,31 891,0" style="fill:rgba(1,1,1,0.13725490196078433)" />
   <polygon points="891,0 844,31 906,41" style="fill:rgba(1,1,1,0.13725490196078433)" />
   <polygon points="851,108 833,172 900,96" style="fill:rgba(1,1,1,0.3333333333333333)" />
   <polygon points="844,31 851,108 906,75" style="fill:rgba(1,1,1,0.19215686274509805)" />
   <polygon points="851,108 900,96 906,75" style="fill:rgba(1,1,1,0.26666666666666666)" />
   <polygon points="906,41 844,31 906,75" style="fill:rgba(1,1,1,0.19215686274509805)" />
   <polygon points="833,172 851,253 892,250" style="fill:rgba(1,1,1,0.4980392156862745)" />
   <polygon points="900,96 833,172 892,250" style="fill:rgba(1,1,1,0.3333333333333333)" />
   <polygon points="906,41 906,75 919,315" style="fill:rgba(1,1,1,0.2)" />
   <polygon points="892,250 851,253 919,315" style="fill:rgba(1,1,1,0.5764705882352941)" />
   <polygon points="906,75 900,96 919,315" style="fill:rgba(1,1,1,0.2627450980392157)" />
   <polygon points="900,96 892,250 919,315" style="fill:rgba(1,1,1,0.30980392156862746)" />
   <polygon points="851,253 811,284 875,347" style="fill:rgba(1,1,1,0.611764705882353)" />
   <polygon points="919,315 851,253 875,347" style="fill:rgba(1,1,1,0.5803921568627451)" />
   <polygon points="811,284 820,379 875,347" style="fill:rgba(1,1,1,0.6470588235294118)" />
   <polygon points="919,315 875,347 903,419" style="fill:rgba(1,1,1,0.6470588235294118)" />
   <polygon points="820,379 777,390 834,421" style="fill:rgba(1,1,1,0.7725490196078432)" />
   <polygon points="875,347 820,379 834,421" style="fill:rgba(1,1,1,0.7098039215686275)" />
   <polygon points="903,419 875,347 834,421" style="fill:rgba(1,1,1,0.6980392156862745)" />
   <polygon points="834,421 777,390 777,443" style="fill:rgba(1,1,1,0.788235294117647)" />
   <polygon points="903,419 834,421 777,443" style="fill:rgba(1,1,1,0.803921568627451)" />
   <polygon points="777,390 685,358 713,434" style="fill:rgba(1,1,1,0.8117647058823529)" />
   <polygon points="685,358 659,410 713,434" style="fill:rgba(1,1,1,0.8274509803921568)" />
   <polygon points="777,443 777,390 713,434" style="fill:rgba(1,1,1,0.8235294117647058)" />
   <polygon points="713,434 659,410 656,463" style="fill:rgba(1,1,1,0.8745098039215686)" />
   <polygon points="777,443 713,434 656,463" style="fill:rgba(1,1,1,0.8745098039215686)" />
   <polygon points="659,410 575,363 560,419" style="fill:rgba(1,1,1,0.8901960784313725)" />
   <polygon points="656,463 659,410 560,419" style="fill:rgba(1,1,1,0.9294117647058824)" />
   <polygon points="575,363 511,373 560,419" style="fill:rgba(1,1,1,0.9137254901960784)" />
   <polygon points="511,373 412,390 474,415" style="fill:rgba(1,1,1,0.8823529411764706)" />
   <polygon points="560,419 511,373 474,415" style="fill:rgba(1,1,1,0.9372549019607843)" />
   <polygon points="656,463 560,419 474,415" style="fill:rgba(1,1,1,0.9490196078431372)" />
   <polygon points="412,390 361,360 377,435" style="fill:rgba(1,1,1,0.8313725490196079)" />
   <polygon points="361,360 315,371 377,435" style="fill:rgba(1,1,1,0.7843137254901961)" />
   <polygon points="474,415 412,390 377,435" style="fill:rgba(1,1,1,0.8627450980392157)" />
   <polygon points="656,463 474,415 377,435" style="fill:rgba(1,1,1,0.8784313725490196)" />
   <polygon points="315,371 228,381 295,428" style="fill:rgba(1,1,1,0.7019607843137254)" />
   <polygon points="377,435 315,371 295,428" style="fill:rgba(1,1,1,0.7725490196078432)" />
   <polygon points="656,463 377,435 219,443" style="fill:rgba(1,1,1,0.7215686274509804)" />
   <polygon points="377,435 295,428 219,443" style="fill:rgba(1,1,1,0.7215686274509804)" />
   <polygon points="228,381 180,382 219,443" style="fill:rgba(1,1,1,0.6549019607843137)" />
   <polygon points="295,428 228,381 219,443" style="fill:rgba(1,1,1,0.7019607843137254)" />
   <polygon points="180,382 79,374 151,423" style="fill:rgba(1,1,1,0.5294117647058824)" />
   <polygon points="219,443 180,382 151,423" style="fill:rgba(1,1,1,0.6235294117647059)" />
   <polygon points="151,423 79,374 87,440" style="fill:rgba(1,1,1,0.5294117647058824)" />
   <polygon points="219,443 151,423 87,440" style="fill:rgba(1,1,1,0.5686274509803921)" />
   <polygon points="79,374 57,362 25,431" style="fill:rgba(1,1,1,0.4235294117647059)" />
   <polygon points="87,440 79,374 25,431" style="fill:rgba(1,1,1,0.4392156862745098)" />
   <polygon points="87,440 25,431 -35,430" style="fill:rgba(1,1,1,0.43529411764705883)" />
   <polygon points="57,362 38,296 -34,369" style="fill:rgba(1,1,1,0.2823529411764706)" />
   <polygon points="25,431 57,362 -34,369" style="fill:rgba(1,1,1,0.37254901960784315)" />
   <polygon points="-35,430 25,431 -34,369" style="fill:rgba(1,1,1,0.3803921568627451)" />
   <polygon points="-34,369 38,296 -24,291" style="fill:rgba(1,1,1,0.27450980392156865)" />
   <polygon points="38,296 52,245 -22,251" style="fill:rgba(1,1,1,0.2196078431372549)" />
   <polygon points="-24,291 38,296 -22,251" style="fill:rgba(1,1,1,0.2235294117647059)" />
   <polygon points="-34,369 -24,291 -22,251" style="fill:rgba(1,1,1,0)" />
   <polygon points="51,160 57,121 -15,152" style="fill:rgba(1,1,1,0.08235294117647059)" />
   <polygon points="52,245 51,160 -15,152" style="fill:rgba(1,1,1,0.11372549019607843)" />
   <polygon points="-22,251 52,245 -15,152" style="fill:rgba(1,1,1,0.11372549019607843)" />
   <polygon points="57,121 10,30 -10,87" style="fill:rgba(1,1,1,0.011764705882352941)" />
   <polygon points="-15,152 57,121 -10,87" style="fill:rgba(1,1,1,0.054901960784313725)" />
   <polygon points="-34,369 -22,251 -20,-5" style="fill:rgba(1,1,1,0)" />
   <polygon points="-22,251 -15,152 -20,-5" style="fill:rgba(1,1,1,0)" />
   <polygon points="10,30 27,-43 -20,-5" style="fill:rgba(1,1,1,0.004139433551198257)" />
   <polygon points="-10,87 10,30 -20,-5" style="fill:rgba(1,1,1,0)" />
   <polygon points="-15,152 -10,87 -20,-5" style="fill:rgba(1,1,1,0)" />
</svg>
